<svg xmlns="http://www.w3.org/2000/svg" xmlns:xlink="http://www.w3.org/1999/xlink" width="594" height="336" viewBox="0 0 594 336">
    <defs>
        <path id="prefix__a" d="M0 0.134L16.826 0.134 16.826 17.554 0 17.554z"/>
        <path id="prefix__c" d="M0.508 0.332L54.053 0.332 54.053 53.346 0.508 53.346z"/>
    </defs>
    <g fill="none" fill-rule="evenodd">
        <path fill="#FFF" d="M219.081 201.183c-192.484-30.648-306.898 53.53-79.044 204.107 227.855 150.577 566.323 9.359 438.206-139.15-128.116-148.51-166.678-34.308-359.162-64.957z" opacity=".5" transform="translate(-13 -134)"/>
        <path stroke="#666" d="M293.48 231.047C186.143 116.527-66.324 142.66 123.396 356.962c189.72 214.301 547.124 52.108 469.403-94.924-77.721-147.031-191.983 83.529-299.32-30.99z" transform="translate(-13 -134)"/>
        <g>
            <path fill="#002453" d="M28.192 143.3L336.733 143.3 336.733 117.562 28.192 117.562z" transform="translate(-13 -134) matrix(-1 0 0 1 507.879 214.5)"/>
            <g>
                <path fill="#FFCD00" d="M361.302.049v130.985H143.133V18.93c0-10.475 8.582-18.881 19.07-18.881h199.099z" transform="translate(-13 -134) matrix(-1 0 0 1 507.879 214.5) translate(0 .71)"/>
                <path fill="#002453" d="M333.126 142.59v7.373c0 .986-.29 1.926-.857 2.77-.666 1.032-1.753 1.973-3.076 2.728-2.092 1.172-4.888 1.923-7.973 1.923H3.143V142.59h193.596v7.325h123.244v-7.325h13.143z" transform="translate(-13 -134) matrix(-1 0 0 1 507.879 214.5) translate(0 .71)"/>
                <path fill="#FFCD00" d="M136.635 33.261v96.184h-8.252c-1.832 0-3.51.636-4.866 1.694-.982.78-1.804 1.775-2.38 2.95-.647 1.255-1 2.694-1 4.206v8.851H3.733v-20.654c0-5.666 3.647-12.114 8.524-15.528h.04c.696-.519 1.451-.943 2.215-1.298L37.77 98.835c3.582-1.68 8.408-5.552 10.783-8.668L84.76 42.68c3.962-5.191 12.516-9.419 19.1-9.419h32.776z" transform="translate(-13 -134) matrix(-1 0 0 1 507.879 214.5) translate(0 .71)"/>
                <path stroke="#000" stroke-width=".5" d="M121.412 53.785L121.412 133.528" transform="translate(-13 -134) matrix(-1 0 0 1 507.879 214.5) translate(0 .71)"/>
                <path fill="#99DCE5" d="M122.335 55.029v31.273c0 3.916-3.22 7.082-7.161 7.082H69.292c-.6 0-1.154-.075-1.624-.193-2.688-.645-3.447-2.949-1.653-5.744l22.006-33.562c2.14-3.278 7.114-5.939 11.062-5.939h16.09c.767 0 1.541.113 2.217.351 1.563.494 2.896 1.516 3.782 2.863.727 1.102 1.163 2.42 1.163 3.869" transform="translate(-13 -134) matrix(-1 0 0 1 507.879 214.5) translate(0 .71)"/>
                <path fill="#DC2601" d="M364.872 125.83c1.98 0 3.57-2.115 3.57-4.73v-5.413c0-2.618-1.59-4.732-3.57-4.732h-3.567v14.874h3.567z" transform="translate(-13 -134) matrix(-1 0 0 1 507.879 214.5) translate(0 .71)"/>
                <path fill="#CDCECB" d="M347.021 147.99v8.596c0 4.132-1.331 7.465-2.99 7.465h-2.982v-23.53h2.983c1.658 0 2.99 3.338 2.99 7.469" transform="translate(-13 -134) matrix(-1 0 0 1 507.879 214.5) translate(0 .71)"/>
                <g transform="translate(-13 -134) matrix(-1 0 0 1 507.879 214.5) translate(0 .71) translate(0 129.592)">
                    <mask id="prefix__b" fill="#fff">
                        <use xlink:href="#prefix__a"/>
                    </mask>
                    <path fill="#E5E5E5" d="M4.067 17.554h12.76V3.612c0-1.925-1.816-3.478-4.057-3.478H4.067C1.813.134-.001 1.687-.001 3.612v10.461c0 1.912 1.814 3.48 4.068 3.48" mask="url(#prefix__b)"/>
                </g>
                <path fill="#002453" d="M84.443 157.366h-58.97c.611-3.678 1.882-7.128 3.718-10.22.976-1.632 2.064-3.143 3.336-4.558 5.46-6.184 13.5-10.076 22.434-10.076 8.954 0 16.986 3.892 22.435 10.076 1.257 1.415 2.379 2.926 3.338 4.559 1.83 3.091 3.1 6.541 3.71 10.219" transform="translate(-13 -134) matrix(-1 0 0 1 507.879 214.5) translate(0 .71)"/>
                <g transform="translate(-13 -134) matrix(-1 0 0 1 507.879 214.5) translate(0 .71) translate(27.687 135.227)">
                    <mask id="prefix__d" fill="#fff">
                        <use xlink:href="#prefix__c"/>
                    </mask>
                    <path fill="#474747" d="M.508 26.84c0 14.636 11.991 26.506 26.775 26.506 14.782 0 26.77-11.87 26.77-26.506 0-14.638-11.988-26.508-26.77-26.508C12.5.332.508 12.202.508 26.84" mask="url(#prefix__d)"/>
                </g>
                <path fill="#D3D4D6" d="M35.297 162.066c0 10.75 8.8 19.473 19.672 19.473 10.857 0 19.673-8.722 19.673-19.473 0-10.758-8.816-19.478-19.673-19.478-10.872 0-19.672 8.72-19.672 19.478" transform="translate(-13 -134) matrix(-1 0 0 1 507.879 214.5) translate(0 .71)"/>
                <path stroke="#000" d="M40.237 162.066c0 8.052 6.608 14.58 14.733 14.58 8.133 0 14.73-6.528 14.73-14.58 0-8.05-6.597-14.589-14.73-14.589-8.125 0-14.733 6.54-14.733 14.59z" transform="translate(-13 -134) matrix(-1 0 0 1 507.879 214.5) translate(0 .71)"/>
                <path fill="#575757" d="M336.68 168.796L341.049 168.796 341.049 131.035 336.68 131.035z" transform="translate(-13 -134) matrix(-1 0 0 1 507.879 214.5) translate(0 .71)"/>
                <path fill="#474747" d="M244.46 162.066c0 14.637 11.995 26.507 26.775 26.507 14.788 0 26.771-11.87 26.771-26.507 0-14.638-11.983-26.508-26.771-26.508-14.78 0-26.775 11.87-26.775 26.508" transform="translate(-13 -134) matrix(-1 0 0 1 507.879 214.5) translate(0 .71)"/>
                <path fill="#D3D4D6" d="M251.566 162.066c0 10.75 8.804 19.473 19.668 19.473 10.857 0 19.665-8.722 19.665-19.473 0-10.758-8.808-19.478-19.665-19.478-10.864 0-19.668 8.72-19.668 19.478" transform="translate(-13 -134) matrix(-1 0 0 1 507.879 214.5) translate(0 .71)"/>
                <path stroke="#000" d="M256.49 162.066c0 8.052 6.615 14.58 14.744 14.58 8.13 0 14.732-6.528 14.732-14.58 0-8.05-6.602-14.589-14.732-14.589-8.13 0-14.744 6.54-14.744 14.59z" transform="translate(-13 -134) matrix(-1 0 0 1 507.879 214.5) translate(0 .71)"/>
                <path fill="#E7A800" d="M125.014 142.26c0 4.82 3.948 8.733 8.821 8.733 4.878 0 8.827-3.912 8.827-8.733 0-4.827-3.95-8.732-8.827-8.732-4.873 0-8.821 3.905-8.821 8.732M3.725 126.492v3.234h8.563v-18.763h-.03c-4.887 3.417-8.533 9.862-8.533 15.529" transform="translate(-13 -134) matrix(-1 0 0 1 507.879 214.5) translate(0 .71)"/>
                <path fill="#002453" d="M130.367 129.445L136.635 129.445 136.635 33.261 130.367 33.261z" transform="translate(-13 -134) matrix(-1 0 0 1 507.879 214.5) translate(0 .71)"/>
                <path fill="#999" d="M103.352 108.118L117.665 108.118 117.665 101.038 103.352 101.038z" transform="translate(-13 -134) matrix(-1 0 0 1 507.879 214.5) translate(0 .71)"/>
                <path fill="#002453" d="M103.352 104.58L117.665 104.58 117.665 101.04 103.352 101.04z" transform="translate(-13 -134) matrix(-1 0 0 1 507.879 214.5) translate(0 .71)"/>
            </g>
        </g>
        <g>
            <path fill="#979797" stroke="#979797" d="M0 48.848L55.41 48.848 55.41 0 0 0z" transform="translate(-13 -134) translate(160 287.212)"/>
            <path fill="#FFCD00" d="M17.727 24.788L38.252 24.788 38.252 0 17.727 0z" transform="translate(-13 -134) translate(160 287.212)"/>
        </g>
        <g fill="#002453">
            <path d="M9.734 109.084L9.734 119.026 0 119.026 0 128.967 9.734 128.967 9.735 138.91 19.47 138.91 19.47 128.967 29.203 128.967 29.203 119.026 19.469 119.026 19.469 109.084zM9.734 36.361L9.734 46.304 0 46.304 0 56.245 9.734 56.245 9.735 66.188 19.47 66.188 19.47 56.245 29.203 56.245 29.203 46.304 19.469 46.304 19.469 36.361zM45.612 36.361L45.612 46.304 35.877 46.304 35.877 56.245 45.612 56.245 45.612 66.188 55.347 66.188 55.347 56.245 65.081 56.245 65.081 46.304 55.346 46.304 55.346 36.361zM9.734 72.723L9.734 82.665 0 82.665 0 92.606 9.734 92.606 9.735 102.549 19.47 102.549 19.47 92.606 29.203 92.606 29.203 82.665 19.469 82.665 19.469 72.723zM45.612 72.723L45.612 82.665 35.877 82.665 35.877 92.606 45.612 92.606 45.612 102.549 55.347 102.549 55.347 92.606 65.081 92.606 65.081 82.665 55.346 82.665 55.346 72.723zM9.734 0L9.734 9.942 0 9.942 0 19.884 9.734 19.884 9.735 29.826 19.47 29.826 19.47 19.884 29.203 19.884 29.203 9.942 19.469 9.942 19.469 0zM45.612 0L45.612 9.942 35.877 9.942 35.877 19.884 45.612 19.884 45.612 29.826 55.347 29.826 55.347 19.884 65.081 19.884 65.081 9.942 55.346 9.942 55.346 0z" transform="translate(-13 -134) translate(261.818 134.517)"/>
        </g>
    </g>
</svg>
