<?xml version="1.0" standalone="no"?>
<!DOCTYPE svg PUBLIC "-//W3C//DTD SVG 1.1//EN" "http://www.w3.org/Graphics/SVG/1.1/DTD/svg11.dtd">
<svg xmlns="http://www.w3.org/2000/svg">
<metadata>Copyright (C) 2020 by original authors @ fontello.com</metadata>
<defs>
<font id="correos-icons" horiz-adv-x="1000" >
<font-face font-family="correos-icons" font-weight="400" font-stretch="normal" units-per-em="1000" ascent="850" descent="-150" />
<missing-glyph horiz-adv-x="1000" />
<glyph glyph-name="ico_add" unicode="&#xe800;" d="M571 421l0 358c0 39-31 71-71 71l0 0c-39 0-71-32-71-71l0-358-358 0c-39 0-71-31-71-71l0 0c0-39 32-71 71-71l358 0 0-358c0-39 31-71 71-71l0 0c39 0 71 32 71 71l0 358 358 0c39 0 71 31 71 71l0 0c0 39-32 71-71 71l-358 0z" horiz-adv-x="1000" />

<glyph glyph-name="ico_address" unicode="&#xe801;" d="M405 810c201 0 364-149 364-333 0-180-254-587-364-587-105 0-364 421-364 587 0 184 163 333 364 333z m0-56c-170 0-308-124-308-277 0-68 53-195 135-326 68-109 148-205 173-205 25 0 106 92 173 196 83 130 134 257 134 335 0 153-138 277-307 277z m0-481c-105 0-189 82-189 183 0 102 84 184 189 184 104 0 189-82 189-184 0-101-85-183-189-183z m0 69c65 0 118 51 118 114 0 63-53 114-118 114-65 0-118-51-118-114 0-63 53-114 118-114z" horiz-adv-x="810" />

<glyph glyph-name="ico_adjunto" unicode="&#xe802;" d="M383 47l457 457c76 75 76 197 0 272-75 75-197 75-272 0l-457-457c-102-102-102-267 0-369 102-102 268-102 370 0l379 379c11 11 11 28 0 39l0 0c-11 11-28 11-39 0l-379-379c-81-81-212-81-292 0-81 80-81 211 0 292l457 456c54 54 141 54 194 0 54-53 54-140 0-194l-456-457c-27-27-71-27-98 0-27 27-27 70 0 97l379 379c11 11 11 28 0 39l0 0c-10 11-28 11-38 0l-380-379c-48-48-48-127 0-175 49-48 127-48 175 0z" horiz-adv-x="900" />

<glyph glyph-name="ico_almacen" unicode="&#xe803;" d="M721 821l4-1 446-134c11-3 18-12 19-22l1-5 0-514c0-10-5-19-13-24l-4-2-446-191c-1 0-2-1-3-1l1 0-2 0c-1 0-2 0-3-1-1 0-1 0-2 0l0 0-4 0c0 0-1 0-1 0-1 1-2 1-3 1l0 0-1 0-2 1-2 0-91 39 0-36c0-42-33-77-75-81l-7 0-436 0c-43 0-78 33-82 74l0 7 0 338c0 42 33 77 75 81l7 0 45 0 0 25c0 14 11 25 25 25 13 0 23-9 25-21l1-4 0-25 51 0 0 309 0 5c2 8 7 16 15 20l5 2 445 134c4 1 8 1 12 1z m-157-628l-498 0 0-252c0-20 12-37 27-40l4-1 436 0c16 0 29 16 31 36l0 5 0 252z m-341-25c44 0 72-26 72-66 0-33-18-55-48-84l-8-7-20-19 79 0 0-42-138 0 0 45 32 29c39 33 56 52 56 73 0 20-15 27-31 27-13 0-26-3-42-11l-9-4-9 39c16 10 38 20 66 20z m212-2l0-174 35 0 0-42-134 0 0 42 53 0 0 125-31-24-23 34 50 39 50 0z m-135 456l0-272 144 0 0 25c0 14 11 25 25 25 13 0 23-9 25-21l1-4 0-25 38 0c43 0 78-33 82-74l0-7 0-240 74-32 0 508-300 90-89 27z m834 0l-53-16 0-278-278-96 0 290-58-17 0-508 389 167 0 458z m-992-323l-45 0c-15 0-28-11-31-26l0-4 0-48 498 0 0 48c0 15-12 28-27 30l-4 0-38 0 0-24c0-14-12-26-26-26-12 0-23 9-25 21l0 5 0 24-251 0 0-24c0-14-12-26-26-26-12 0-23 9-25 21l0 5 0 24z m883 289l-165-49 0-228 165 57 0 220z m-93 111l-347-104 5-1 127-39 70 21 277 83-132 40z m-215 64l-347-104 117-35 347 104-117 35z" horiz-adv-x="1200" />

<glyph glyph-name="ico_arrive" unicode="&#xe804;" d="M949 795c-24 26-65 26-90 0-23-25-23-65 0-90l179-187-827 0c-97-1-175-83-175-183l0-385c0-35 27-64 63-64 35 0 62 29 62 64l0 385c0 30 23 54 50 54l827 0-178-187c-15-16-21-39-16-61 6-22 22-40 44-46 22-6 46 1 62 17l282 297c12 12 18 28 18 45 0 17-6 33-18 45l-26 27 0-1-257 270z" horiz-adv-x="1286" />

<glyph glyph-name="ico_arrow" unicode="&#xe805;" d="M130 827c-1 1-1 1-3 3-29 28-76 27-104-3-31-33-31-84 0-116l320-337-320-339c-31-32-31-84 0-116 2-2 2-2 3-3 30-28 76-27 104 3l430 454-430 454z" horiz-adv-x="615" />

<glyph glyph-name="ico_back" unicode="&#xe806;" d="M369 439l1494 0c52 0 95-41 95-92 0-51-43-92-95-92l-1494 0 258-248c37-36 37-94 0-130-37-36-98-36-136 0l-421 405c-18 17-28 40-28 65 0 24 10 48 28 65l428 411c38 36 98 36 136 0 37-36 37-94 0-130l-265-254z" horiz-adv-x="2000" />

<glyph glyph-name="ico_box_scan" unicode="&#xe807;" d="M68 89c17 0 32-13 34-30l0-4 0-103 103 0c18 0 34-15 34-34 0-17-13-31-30-34l-4 0-137 0c-17 0-31 13-34 30l0 4 0 137c0 18 15 34 34 34z m864 0c17 0 31-13 34-30l0-4 0-137c0-17-13-31-30-34l-4 0-136 0c-19 0-35 15-35 34 0 17 13 32 30 34l5 0 102 0 0 103c0 18 15 34 34 34z m-404 599l4-1 337-101c11-4 17-12 18-21l0-4 0-392c0-9-4-17-11-21l-4-2-337-146c-2 0-2-1-3-1l0 0-2 0 0 0c0 0-1 0-2-1 0 0-1 0-2 0 0 0 0 0 0 0l-3 0c0 0 0 0 0 0-1 0-2 0-2 0-1 1-2 1-2 1 0 0-1 0-1 0l-1 0c-1 0-2 1-2 1l-1 0-337 146c-8 3-14 10-15 19l0 4 0 392 0 4c1 8 6 15 14 19l4 2 337 101c4 1 8 2 11 1z m-315-161l0-341 286-123 0 377-286 87 0 0z m623 0l-59-18-227-69 0-377 286 123 0 341z m-149 60l-248-75 85-26 249 75-86 26z m-163 49l-248-75 74-22 249 75-75 22z m-319 180c18 0 34-15 34-34 0-17-13-32-30-34l-4 0-103 0 0-102c0-19-15-35-34-35-17 0-31 13-34 30l0 5 0 136c0 17 13 31 30 34l4 0 137 0z m727 0c17 0 31-13 34-30l0-4 0-136c0-19-15-35-34-35-17 0-32 13-34 30l0 5 0 102-102 0c-19 0-35 15-35 34 0 17 13 31 30 34l5 0 136 0z" horiz-adv-x="1000" />

<glyph glyph-name="ico_burofax" unicode="&#xe808;" d="M668 810c29 0 53-26 53-57l0-46-61 0 0 38-558 0 0-790 558 0 0 86 61 0 0-94c0-31-24-57-53-57l-574 0c-29 0-53 26-53 57l0 806c0 31 24 57 53 57l574 0z m154-216l64-64 2-2c23-25 22-63-2-86l-363-363c-4-3-7-5-12-7l-151-31-3 0c-6 0-12 2-17 6-6 6-8 15-6 22l32 150c1 4 3 8 7 11l362 364 1 1c25 23 62 23 86-1z m-143-124l-269-268-23-108 108 24 268 268-84 84z m-255-32c12 0 21-15 21-33 0-17-9-32-21-32l-229 0c-12 0-21 15-21 32 0 18 9 33 21 33l229 0z m345 123l-58-57 85-85 57 57c6 7 6 15 0 21l-64 64 0 1c-6 5-15 5-20-1z m-213 42c18 0 32-14 32-32 0-18-14-32-32-32l-350 0c-18 0-32 14-32 32 0 18 14 32 32 32l350 0z" horiz-adv-x="905" />

<glyph glyph-name="ico_chat" unicode="&#xe809;" d="M740 623c68 0 124-57 124-127l0 0 0-431c0-70-56-127-124-127l0 0-373 0-64-66c-29-30-77-30-106 0l0 0-64 66-9 0c-68 0-124 57-124 127l0 0 0 431c0 70 56 127 124 127l0 0z m0-58l-616 0c-38 0-68-31-68-69l0 0 0-431c0-39 30-69 68-69l0 0 21 0c7 0 13-3 19-7l0 0 73-76c8-7 19-7 26 0l0 0 73 74c6 6 13 9 20 9l0 0 384 0c38 0 68 31 68 69l0 0 0 431c0 38-31 69-68 69l0 0z m363 285c69 0 124-57 124-127l0-431c0-70-55-126-124-126l-9 0-64-66c-29-30-76-30-106 0l-15 15 0 82 55-56c8-8 19-8 26 0l74 75c5 4 12 7 19 7l20 0c38 0 68 31 68 69l0 431c0 39-30 70-68 70l-615 0c-38 0-68-31-68-70l0-55-56 0 0 55c0 70 55 127 124 127l615 0z m-398-624l4 0c14-3 24-16 23-31-2-17-16-28-32-26l0 0-539 0c-15 0-28 13-28 29 0 15 13 28 28 28l0 0 540 0c2 1 5 0 8 0z m0 151l2 0c15-2 27-16 25-32-1-14-15-26-31-25l0 0-540 0c-15 0-28 13-28 29 0 15 13 28 28 28l0 0 544 0z m361 76c15 0 29-12 29-28 0-16-14-29-29-29l-157 0 0 57 157 0z m0 152c16 0 29-14 29-29 0-16-13-29-29-29l-157 0 0 58 157 0z" horiz-adv-x="1278" />

<glyph glyph-name="ico_close" unicode="&#xe80a;" d="M485 274l-375-376c-25-25-66-25-91 0-25 25-25 66 0 91l375 376-375 375c-25 25-25 66 0 91 25 25 66 25 91 0l375-375 376 375c25 25 66 25 91 0 25-25 25-66 0-91l-376-375 376-376c25-25 25-66 0-91-25-25-66-25-91 0l-376 376z" horiz-adv-x="1000" />

<glyph glyph-name="ico_code_scan" unicode="&#xe80b;" d="M83 142c23 0 42-19 42-42l0 0 0-125 125 0c23 0 42-19 42-42 0-23-19-41-42-41l0 0-167 0c-23 0-41 18-41 41l0 0 0 167c0 23 18 42 41 42z m1056 0c23 0 42-19 42-42l0 0 0-167c0-23-19-41-42-41l0 0-167 0c-23 0-41 18-41 41 0 23 18 42 41 42l0 0 125 0 0 125c0 23 19 42 42 42z m-889 486c15 0 28-13 28-28l0 0 0-500c0-15-13-28-28-28-15 0-28 13-28 28l0 0 0 500c0 15 13 28 28 28z m167 0c15 0 27-13 27-28l0-500c0-15-12-28-27-28l-56 0c-15 0-28 13-28 28l0 500c0 15 13 28 28 28l56 0z m111 0c15 0 28-13 28-28l0 0 0-500c0-15-13-28-28-28-16 0-28 13-28 28l0 0 0 500c0 15 12 28 28 28z m166 0c16 0 28-13 28-28l0-500c0-15-12-28-28-28l-55 0c-15 0-28 13-28 28l0 500c0 15 13 28 28 28l55 0z m112 0c15 0 27-13 27-28l0 0 0-500c0-15-12-28-27-28-16 0-28 13-28 28l0 0 0 500c0 15 12 28 28 28z m166 0c16 0 28-13 28-28l0-500c0-15-12-28-28-28l-55 0c-16 0-28 13-28 28l0 500c0 15 12 28 28 28l55 0z m-722 180c23 0 42-18 42-41 0-23-19-42-42-42l0 0-125 0 0-125c0-23-19-42-42-42-23 0-41 19-41 42l0 0 0 167c0 23 18 41 41 41l0 0z m889 0c23 0 42-18 42-41l0 0 0-167c0-23-19-42-42-42-23 0-42 19-42 42l0 0 0 125-125 0c-23 0-41 19-41 42 0 23 18 41 41 41l0 0z" horiz-adv-x="1222" />

<glyph glyph-name="ico_code" unicode="&#xe80c;" d="M42 850c23 0 41-22 41-50l0 0 0-900c0-28-18-50-41-50-23 0-42 22-42 50l0 0 0 900c0 28 19 50 42 50z m250 0c23 0 41-19 41-42l0-916c0-23-18-42-41-42l-84 0c-23 0-41 19-41 42l0 916c0 23 18 42 41 42l84 0z m250 0c23 0 41-22 41-50l0 0 0-900c0-28-18-50-41-50-23 0-42 22-42 50l0 0 0 900c0 28 19 50 42 50z m250 0c23 0 41-19 41-42l0-916c0-23-18-42-41-42l-84 0c-23 0-41 19-41 42l0 916c0 23 18 42 41 42l84 0z m250 0c23 0 41-22 41-50l0 0 0-900c0-28-18-50-41-50-23 0-42 22-42 50l0 0 0 900c0 28 19 50 42 50z m250 0c23 0 41-19 41-42l0-916c0-23-18-42-41-42l-84 0c-23 0-41 19-41 42l0 916c0 23 18 42 41 42l84 0z" horiz-adv-x="1333" />

<glyph glyph-name="ico_copy" unicode="&#xe80d;" d="M605 707c25 0 45-21 45-46l0-764c0-26-20-47-45-47l-559 0c-26 0-46 21-46 47l0 764c0 25 20 46 46 46l559 0z m-16-62l-526 0 0-737 526 0 0 737z m155 205c25 0 46-21 46-47l0 0 0-763c0-26-21-47-46-47l0 0-47 0 0 58 31 0 0 737-527 0 0-33-62 0 0 48c0 26 21 47 46 47l0 0z m-257-762c13 0 24-11 24-24 0-13-11-23-24-23l-324 0c-13 0-24 10-24 23 0 13 11 24 24 24l324 0z m0 143c13 0 24-11 24-24 0-13-11-24-24-24l-324 0c-13 0-24 11-24 24 0 13 11 24 24 24l324 0z m0 143c13 0 24-11 24-24 0-13-11-24-24-24l-324 0c-13 0-24 11-24 24 0 13 11 24 24 24l324 0z m0 143c13 0 24-11 24-24 0-13-11-24-24-24l-324 0c-13 0-24 11-24 24 0 13 11 24 24 24l324 0z" horiz-adv-x="789" />

<glyph glyph-name="ico_comentarios" unicode="&#xe80e;" d="M407-36l-247 0c-88 0-160 74-160 164l0 558c0 90 72 164 160 164l797 0c89 0 161-74 161-164l0-558c0-90-72-164-161-164l-247 0-82-85c-38-39-100-39-138 0l-83 85z m-247 812c-48 0-87-40-87-90l0-558c0-50 39-89 87-89l262 0c9 0 18-4 26-11l94-96c9-10 24-10 34 0l95 97c7 6 15 10 24 10l262 0c49 0 88 39 88 89l0 558c0 50-39 90-88 90l-797 0z m43-244l3 1c0 0 0 0 0 0 1 0 1 0 1 0l702 0c20 0 37-18 37-38 0-20-17-37-37-37l-699 0c-20-1-38 14-39 33-3 20 12 39 32 41z m8-195l698 0c20 0 37-17 37-37 0-21-17-37-37-37l-697 0c-20-3-39 12-42 34-1 18 12 36 30 39 4 1 7 1 11 1z" horiz-adv-x="1118" />

<glyph glyph-name="ico_correos" unicode="&#xe80f;" d="M717 428l-195 0-196 0 0 33 0 33 196 0 195 0 0-33 0-33z m-130-314c0 37-29 67-65 67-36 0-65-30-65-67 0-36 29-66 65-66 36 0 65 30 65 66l0 0z m-65-198c230 0 421 172 452 397l-66 0c-31-188-192-331-386-331-72 0-131 59-131 132 0 73 59 133 131 133 72 0 130-58 130-133 0-14-3-28-7-41 26 11 50 25 72 42 0 109-87 198-195 198-108 0-196-89-196-199 0-109 88-198 196-198l0 0z m-452 397c21-146 109-270 231-339-25 41-40 89-40 140l0 0 0 199-191 0z m778 66l196 0c0-292-234-529-522-529-288 0-522 237-522 529l326 0 0-90c48 55 118 90 196 90 124 0 228-89 254-207 45 57 72 129 72 207l0 0z m-163 363c72 0 130-59 130-132l0-66-65 0 0 66c0 37-29 66-65 66-6 0-12-1-17-2 10-19 17-41 17-64l0-66-65 0 0 66c0 37-30 66-66 66l0-132-65 0 0 132c-36 0-65-29-65-66l0-66-65 0 0 66c0 23 6 45 17 64-6 1-11 2-17 2-36 0-65-29-65-66l0-66-66 0 0 66c0 73 59 132 131 132 24 0 46-6 65-18 19 11 41 18 65 18 11 0 22-1 32-4 11 3 22 4 33 4 24 0 46-7 66-18 19 11 41 18 65 18l0 0z m-149 77l31 0 0-29-31 0 0-31-28 0 0 31-31 0 0 29 31 0 0 31 28 0 0-31z" horiz-adv-x="1043" />

<glyph glyph-name="ico_date" unicode="&#xe810;" d="M285 850c-25 0-45-20-45-46l0-45-80 0c-81 0-147-66-147-147l0-136 0-91 0-382c0-82 66-148 147-148l779 0c81 0 147 66 147 148l0 382 0 91 0 136c0 81-66 147-147 147l-68 0 0 45c0 26-21 46-46 46-25 0-46-20-46-46l0-45-448 0 0 45c0 26-21 46-46 46z m710-847c0-31-25-56-56-56l-779 0c-31 0-56 25-56 56l0 382 891 0 0-382z m-216 665l0-45c0-25 21-45 46-45 25 0 46 20 46 45l0 45 68 0c31 0 56-25 56-56l0-136-891 0 0 136c0 31 25 56 56 56l80 0 0-45c0-25 20-45 45-45 25 0 46 20 46 45l0 45 448 0z" horiz-adv-x="1100" />

<glyph glyph-name="ico_delete_text" unicode="&#xe811;" d="M488 850c269 0 487-218 487-487 0-270-218-488-487-488-270 0-488 218-488 488 0 269 218 487 488 487z m0-75c-228 0-413-185-413-412 0-228 185-413 413-413 227 0 412 185 412 413 0 227-185 412-412 412z m-138-203l138-137 137 137c20 21 52 21 72 0 21-20 21-52 0-72l-137-137 137-138c21-20 21-52 0-72-20-20-52-20-72 0l-137 137-138-137c-20-20-52-20-72 0-20 20-20 52 0 72l137 138-137 137c-20 20-20 52 0 72 20 21 52 21 72 0z" horiz-adv-x="1000" />

<glyph glyph-name="ico_direc_citypaq" unicode="&#xe812;" d="M898-70c0-15-12-28-27-28l0 0-299 0c-2 0-5-1-7-1l0 0-537 0c-16 0-28 13-28 28l0 0 0 893c0 16 12 28 28 28l0 0 843 0c15 0 27-12 27-28l0 0z m-361 71l-481 0 0-44 481 0 0 44z m306 51l-250 0 0-94 250 0 0 94z m-306 49l-481 0 0-44 481 0 0 44z m306 127l-250 0 0-120 250 0 0 120z m-306-40l-481 0 0-31 481 0 0 31z m0 606l-481 0 0-537 481 0 0 537z m306-466l-250 0 0-45 250 0 0 45z m0 99l-250 0 0-44 250 0 0 44z m0 100l-250 0 0-44 250 0 0 44z m0 92l-250 0 0-36 250 0 0 36z m0 175l-250 0 0-111 250 0 0 111z" horiz-adv-x="944" />

<glyph glyph-name="ico_direc_entrega" unicode="&#xe813;" d="M77-62l0 866c0 27 20 46 47 46l541 0c26 0 47-19 47-46l0-866 31 0c25 0 47-19 47-45 0-28-22-43-47-43l-696 0c-27 0-47 18-47 43 0 24 20 45 47 45l30 0z m542 0l0 824-451 0 0-824 451 0z m-68 366c-26 0-47 21-47 46 0 25 21 46 47 46 26 0 47-21 47-46 0-25-21-46-47-46z" horiz-adv-x="789" />

<glyph glyph-name="ico_download" unicode="&#xe814;" d="M72 445c22 22 57 22 78 0l239-239 0 588c0 31 25 56 55 56 31 0 56-25 56-56l0-588 239 239c21 22 56 22 78 0 22-22 22-57 0-79l-333-333-5-4c0 0 0 0 0 0l5 4c-2-2-4-4-6-5-2-1-3-2-5-3 0-1-1-1-2-1-1-1-2-2-3-2-1-1-2-1-3-1-1-1-2-1-3-2-1 0-2 0-3 0-1-1-2-1-3-1-1 0-2-1-3-1-1 0-2 0-4 0-1 0-2 0-3 0-1 0-1 0-2 0l-1 0c-1 0-2 0-3 0l4 0c-2 0-5 0-8 0-1 0-2 1-3 1-1 0-2 0-3 1-1 0-2 0-3 0-1 1-2 1-3 2-1 0-2 0-3 1-1 0-2 1-3 2-1 0-2 0-2 1-2 1-3 2-5 3 0 0 0 0-1 1-2 1-3 2-5 4l-333 333c-22 22-22 57 0 79z m-19-490l783 0c29 0 53-23 53-52 0-29-24-53-53-53l-783 0c-29 0-53 24-53 53 0 29 24 52 53 52z" horiz-adv-x="889" />

<glyph glyph-name="ico_drop" unicode="&#xe815;" d="M1724 801c62-57 66-155 8-217-2-2-5-5-8-8l-769-714 0 0-770 714c-62 58-66 155-8 217 3 3 5 6 8 8 69 64 174 64 243 0l528-489 0 0 526 489c68 64 174 64 242 0z" horiz-adv-x="1857" />

<glyph glyph-name="ico_edit" unicode="&#xe816;" d="M930 673c38-40 37-101-2-138l-582-580c-5-6-11-9-19-11l-242-51-5 0c-9 0-19 4-26 11-9 10-13 23-9 34l51 240c1 7 5 13 10 18l581 582 1 1c39 37 99 37 137-1l103-103 2-2z m-629-657l430 430-135 135-430-430-37-172 172 37z m574 606l-103 103 0 1c-10 9-23 9-32-1l-92-91 136-136 91 92c10 11 10 24 0 32z" horiz-adv-x="1000" />

<glyph glyph-name="ico_emial" unicode="&#xe817;" d="M500 850c276 0 500-224 500-500l0 0 0-102c1-85-56-159-138-181-82-22-168 15-210 89-91-71-219-70-309 3-90 73-118 198-66 302 51 104 167 159 279 132 113-26 192-127 192-243l0 0 0-102c2-35 31-63 66-63 35 0 65 28 67 63l0 0 0 102c0 210-171 381-381 381-210 0-381-171-381-381 0-210 171-381 381-381l0 0 15 0c33 0 60-26 60-59 0-33-27-60-60-60l0 0-15 0c-276 0-500 224-500 500 0 276 224 500 500 500z m49-381c-48 19-103 8-140-28-36-37-47-92-27-140 19-48 66-79 118-79 71 0 128 57 128 128 0 52-31 99-79 119z" horiz-adv-x="1000" />

<glyph glyph-name="ico_favourite_off" unicode="&#xe818;" d="M692 813c82 10 164-15 221-67 57-53 87-131 87-221 0-86-27-180-77-272-63-123-200-243-380-355l-3-2c-24-15-56-15-79-1l-1 1c-183 114-320 234-383 357-50 92-77 186-77 272 0 90 30 168 87 221 113 103 301 88 413-45 53 64 120 103 192 112z m145-515l1 1c42 78 65 158 65 226 0 65-20 116-56 149-81 74-220 59-294-57-12-18-32-30-53-30-21 0-41 12-53 29-38 61-92 95-152 101l1 0-1 0c-53 6-107-11-142-43-36-33-56-84-56-149 0-68 23-148 66-226l0-1c49-96 181-213 337-312 156 99 288 216 337 312z" horiz-adv-x="1000" />

<glyph glyph-name="ico_favourite_on" unicode="&#xe819;" d="M693 799c-71-9-140-50-193-120-112 148-301 150-403 56-57-51-83-127-83-210 0-83 26-175 75-265 71-139 236-264 378-352l0 0c20-12 46-12 66 0l0 0c142 88 307 213 378 352 50 90 75 182 75 265 0 83-26 159-82 210-54 49-132 74-211 64l0 0z" horiz-adv-x="1000" />

<glyph glyph-name="ico_filter" unicode="&#xe81a;" d="M171 850c23 0 42-19 42-42l0 0 0-429c51-12 93-48 114-96 19-41 21-88 5-131-20-53-65-93-119-106l0 0 0-154c0-23-19-42-42-42-23 0-41 19-41 42l0 0 0 154c-71 18-123 79-129 151-7 73 33 142 100 172 9 4 19 8 29 10l0 0 0 429c0 23 18 42 41 42z m769 0c23 0 41-19 41-42l0 0 0-429c51-12 93-48 115-96 19-41 20-88 4-131-20-53-64-93-119-106l0 0 0-154c0-23-18-42-41-42-23 0-42 19-42 42l0 0 0 154c-70 18-122 79-129 151-6 73 34 142 100 172 10 4 19 8 29 10l0 0 0 429c0 23 19 42 42 42z m-385 0c23 0 42-19 42-42l0 0 0-160c6-2 13-4 19-6 65-24 109-86 112-156 2-70-38-134-102-162-9-4-19-8-29-10l0 0 0-422c0-23-19-42-42-42-22 0-41 19-41 42l0 0 0 422c-6 1-13 3-19 5-43 16-77 49-96 90-20 47-20 100 2 146 23 46 64 79 113 92l0 0 0 161c0 23 19 42 41 42z m-384-549c-12 0-25-3-36-8-37-16-57-55-51-95 7-39 39-70 79-74 39-4 77 20 91 57l0 0c8 22 8 47-2 68-15 32-46 52-81 52z m769 0c-13 0-25-3-37-8-36-16-57-55-50-95 6-39 38-70 78-74 40-4 77 20 91 57 9 22 8 47-2 68-14 32-46 52-80 52z m-384 268c-30 0-58-15-74-41-16-25-19-57-6-84 14-33 47-53 83-52 36 1 67 23 80 57 8 22 7 46-3 68l0 0-4 7c-10 18-26 32-45 39-10 4-20 6-31 6z" horiz-adv-x="1111" />

<glyph glyph-name="ico_help" unicode="&#xe81b;" d="M838 450c89 0 162-70 162-155l0 0 0-132c0-86-73-156-162-156l0 0-41 0 0-2c0-64-54-116-121-116l0 0-124 0 0 1c-14-24-40-40-71-40-45 0-81 35-81 78 0 43 36 77 81 77 31 0 57-16 71-40l0 0 0 1 124 0c22 0 40 18 40 39l0 0 0 406c0 22 18 39 41 39l0 0z m-337 400c88 0 173-25 244-74 70-47 123-112 153-188 7-19-3-40-24-47-20-8-42 2-50 21-50 128-179 214-323 214-181 0-330-134-343-303l0 0 77 0c22 0 39-16 39-37l0 0 0-349c0-20-17-37-39-37l0 0-78 0c-87 0-157 67-157 149l0 0 0 126c0 55 32 103 78 128 2 106 45 205 124 280 80 75 186 117 299 117z m337-478l-41 0 0-287 41 0c45 0 81 35 81 78l0 0 0 132c0 43-36 77-81 77l0 0z m-642 27l-39 0c-44 0-79-33-79-74l0 0 0-126c0-41 35-75 79-75l0 0 39 0 0 275z" horiz-adv-x="1000" />

<glyph glyph-name="ico_home" unicode="&#xe81c;" d="M224 802c0 19-16 35-34 35-19 0-35-16-35-35l0-232-4-10-126-113c-14-12-16-34-3-48 12-15 34-16 48-3l38 33 0-531c0-19 15-35 34-35l663 0c19 0 35 16 35 35l0 531 37-33c14-13 36-12 49 3 12 14 11 36-3 48l-427 381c-13 12-32 12-45 0l-227-203 0 177z m547-311l0-559-595 0 0 559c0 2 99 91 298 265 198-174 297-263 297-265z" horiz-adv-x="947" />

<glyph glyph-name="ico_info" unicode="&#xe81d;" d="M193 521l0 0c-44 0-87 0-130 0-10 0-19-1-28-3-11-3-20-11-21-23-3-11 3-24 14-29 14-6 29-10 45-12 40-2 57-19 50-60-11-76-26-152-39-228-9-52-17-103-25-155-12-69 54-134 106-143 31-4 63-6 94-6 67 0 131 28 177 76 9 7 15 17 18 27 2 9 0 19-6 26-7 5-15 5-23 3-12-4-22-12-34-17-13-6-28-11-42-14-12-3-25-1-35 6-10 7-16 18-17 30-2 13-3 27-1 40 5 33 12 66 18 99 17 90 34 179 51 269 4 25 12 49 7 75-1 11-6 22-15 29-9 8-21 12-33 10-43 0-87 0-131 0z m79 318c-53 3-103-27-126-75-22-48-13-105 24-143 37-39 94-51 144-33 50 19 84 66 85 119 2 70-55 129-127 132l0 0z" horiz-adv-x="467" />

<glyph glyph-name="ico_legal" unicode="&#xe81e;" d="M715-56c0-32-25-59-56-59l-602 0c-32 0-57 27-57 59l0 847c0 32 25 59 57 59l602 0c31 0 56-27 56-59l0-847z m-65 9l0 829-585 0 0-829 585 0z m-476 681l367 0c19 0 34-16 34-34 0-19-15-34-34-34l-367 0c-19 0-34 15-34 34 0 18 15 34 34 34z m0-175l367 0c19 0 34-15 34-33 0-19-15-34-34-34l-367 0c-19 0-34 15-34 34 0 18 15 33 34 33z m229-253c11 10 33 15 44 5 1-1 1-1 1-1 11-12 10-30 0-41l-112-114-4 4-62 55c-12 10-13 28-3 40 9 12 26 14 38 5l1-1 28-25 69 73z" horiz-adv-x="750" />

<glyph glyph-name="ico_less" unicode="&#xe81f;" d="M6505 850c270 0 495-224 495-500l0 0-3-59c-29-250-238-441-492-441l0 0-6010 0c-269 0-495 224-495 500l0 0 3 59c29 250 238 441 492 441l0 0z" horiz-adv-x="7000" />

<glyph glyph-name="ico_location" unicode="&#xe820;" d="M500 850c18 0 33-15 33-34l0 0 0-90c182-16 327-160 343-342l91 0c18 0 33-15 33-34 0-19-15-34-33-34l0 0-91 0c-16-182-161-327-343-342l0-90c0-19-15-34-33-34-18 0-33 15-33 34l0 0 0 90c-182 15-327 160-343 342l-91 0c-18 0-33 15-33 34 0 19 15 34 33 34l0 0 91 0c16 182 161 326 343 342l0 90c0 19 15 34 33 34z m0-190c-172 0-312-139-312-310l1 3 0-3c0-1 0-2 0-3 1-170 140-308 311-308l-5 1 5 0c2 0 3 0 5 0 170 2 307 140 307 310l0-3-1 3c0 1 0 2 0 3-1 170-140 307-311 307z m-8-192c61 0 111-50 111-112 0-62-50-112-111-112-62 0-112 50-112 112 0 62 50 112 112 112z m0-67c-26 0-46-20-46-45 0-24 20-45 46-45 25 0 46 21 46 45 0 25-21 45-46 45z" horiz-adv-x="1000" />

<glyph glyph-name="ico_log_out" unicode="&#xe821;" d="M518 850c20 0 37-16 37-37 0-20-17-37-37-37l0 0-376 0c-38 0-68-30-68-68l0 0 0-696c0-38 30-69 68-69l0 0 376 0c20 0 37-16 37-37 0-20-17-36-37-36l0 0-376 0c-78 0-142 63-142 142l0 0 0 696c0 78 64 142 142 142l0 0z m214-211l4-4 233-238c13-13 14-32 5-46l-4-5-233-256c-14-15-37-16-52-3-14 13-16 33-6 48l3 4 179 196-520 0c-18 0-34 14-36 32l-1 5c0 19 14 34 32 36l5 1 513 0-171 174c-12 13-13 33-3 48l4 4c13 13 33 14 48 4z" horiz-adv-x="1000" />

<glyph glyph-name="ico_map" unicode="&#xe822;" d="M500 825c164 0 298-130 298-291 0-67-34-149-92-242l110 0c35 0 69-25 78-58l41-140 37-125c7-23 3-47-11-66-15-18-37-28-61-28l-800 0c-24 0-46 10-60 28-15 19-19 43-12 66l37 125 41 140c10 33 43 58 78 58l110 0c-58 93-92 175-92 242 0 161 134 291 298 291z m-154-611l-162 0c0 0-3-2-3-1l-41-140-35-121 790 0-35 121-41 140c0-1-3 1-3 1l-162 0c-35-49-68-89-93-117-16-18-38-28-61-28-23 0-45 10-61 28-25 28-58 68-93 117z m154 534c-121 0-220-96-220-214 0-59 40-144 107-243 41-60 86-115 111-143 1-2 3-2 4 0 25 28 70 83 111 144 67 98 107 183 107 242 0 118-99 214-220 214z m0-78c76 0 139-61 139-136 0-75-63-136-139-136-76 0-139 61-139 136 0 75 63 136 139 136z m0-78c-33 0-60-26-60-58 0-32 27-59 60-59 34 0 61 27 61 59 0 32-27 58-61 58z" horiz-adv-x="1000" />

<glyph glyph-name="ico_notif_info" unicode="&#xe823;" d="M500 850c276 0 500-224 500-500 0-276-224-500-500-500-276 0-500 224-500 500 0 276 224 500 500 500z m45-440l-131 0 0 0c-5 0-9-1-14-2-6-2-10-6-11-12-1-6 2-12 8-15 7-3 14-5 22-6 20-1 29-10 26-31-6-39-14-78-20-117-5-26-9-52-13-79-6-35 27-68 54-73 15-2 31-3 47-3 33 0 66 14 89 39 4 4 7 8 9 14 1 5 0 9-3 13-4 2-8 3-12 2-6-2-11-7-17-9-7-3-14-6-21-7-6-2-13-1-18 3-5 4-8 9-8 15-1 7-2 14-1 21 3 17 6 34 9 50 9 46 17 92 26 138 2 13 6 25 3 38 0 6-3 12-7 15-5 4-11 6-17 6z m-26 162c-27 1-52-14-63-38-11-25-7-54 12-73 18-20 47-27 72-17 25 10 42 33 43 60 1 37-27 67-64 68l0 0z" horiz-adv-x="1000" />

<glyph glyph-name="ico_notif_info2" unicode="&#xe824;" d="M500 850c276 0 500-224 500-500 0-276-224-500-500-500-276 0-500 224-500 500 0 276 224 500 500 500z m0-83c-230 0-417-187-417-417 0-230 187-417 417-417 230 0 417 187 417 417 0 230-187 417-417 417z m47-303c6 0 13-2 18-6 5-4 8-10 8-16 3-15-1-28-4-42-9-50-19-99-28-149-3-18-7-37-10-55-1-8-1-15 1-22 0-7 4-13 9-17 6-4 13-5 19-4 9 2 16 5 24 8 6 3 12 8 19 10 4 1 9 1 13-2 3-4 4-9 3-14-2-6-5-11-10-16-26-26-61-41-98-41-18-1-35 1-52 3-29 5-66 41-60 79 5 29 9 58 14 86 7 42 16 85 22 127 4 23-5 32-28 34-8 0-17 2-25 6-6 3-9 10-8 16 1 6 6 11 12 13 5 1 10 2 16 2l0 0z m-29 176c40-1 71-34 70-73 0-30-19-56-47-66-28-10-60-3-80 18-20 21-26 53-13 79 12 27 40 44 70 42l0 0z" horiz-adv-x="1000" />

<glyph glyph-name="ico_notif_ok" unicode="&#xe825;" d="M500 850c276 0 500-224 500-500 0-276-224-500-500-500-276 0-500 224-500 500 0 276 224 500 500 500z m228-309l-318-280-83 79c-19 18-49 18-69 0l-1-2c-19-18-19-47 0-65l153-145 388 346c20 17 20 46 1 64l-2 2c-19 18-50 18-69 1z" horiz-adv-x="1000" />

<glyph glyph-name="ico_notif_wrong" unicode="&#xe826;" d="M500 850c-276 0-500-224-500-500 0-276 224-500 500-500 276 0 500 224 500 500 0 133-53 260-146 354-94 93-221 146-354 146z m0-800c-30 0-54 24-54 54 0 30 24 54 54 54 30 0 54-24 54-54 0-30-24-54-54-54z m54 234c0-30-24-54-54-54-30 0-54 24-54 54l0 312c0 30 24 54 54 54 30 0 54-24 54-54l0-312z" horiz-adv-x="1000" />

<glyph glyph-name="ico_options" unicode="&#xe827;" d="M125 600c69 0 125 56 125 125 0 69-56 125-125 125-69 0-125-56-125-125 0-69 56-125 125-125l0 0z m0-125c-69 0-125-56-125-125 0-69 56-125 125-125 69 0 125 56 125 125 0 69-56 125-125 125l0 0z m0-375c-69 0-125-56-125-125 0-69 56-125 125-125 69 0 125 56 125 125 0 69-56 125-125 125l0 0z" horiz-adv-x="250" />

<glyph glyph-name="ico_pago_card" unicode="&#xe828;" d="M1090 589c59 0 108-48 108-108l0 0 0-477c0-59-49-108-108-108l0 0-807 0c-60 0-108 49-108 108l0 0 0 477c0 60 48 108 108 108l0 0z m47-552l-902 0 0-33c0-26 22-47 48-47l0 0 807 0c26 0 47 21 47 47l0 0 0 33z m-47 492l-807 0c-26 0-48-22-48-48l0 0 0-319 902 0 0 319c0 26-21 48-47 48l0 0z m-985 236c13 59 71 95 129 82l0 0 788-173c20-5 38-14 52-29l0 0-205 0-648 143c-3 1-7 2-10 2-22-1-42-16-47-38l0 0-102-465c-6-26 10-51 36-57l0 0 25-6 0-62-38 9c-58 13-95 70-82 129l0 0z" horiz-adv-x="1200" />

<glyph glyph-name="ico_pago_oficina" unicode="&#xe829;" d="M288 237l248-25 247 25 7 0 251-25c16-2 28-14 30-29l1-5 0-281c0-18-15-33-33-34l-5 1-247 24-248-24-6 0-248 24-248-24c-16-2-31 9-36 24l-1 5 0 4 0 281c0 16 11 29 26 33l5 1 251 25 6 0z m-30-71l-190-19 0-212 214 21 6 0 196-19 0 52c0 19 16 34 34 34 19 0 34-15 34-34l0-56 231 23 7 0 214-21 0 212-179 18 0-63c0-18-16-34-34-34-19 0-34 16-34 34l0 64-218-22-6 0-207 21 0-63c0-18-16-34-34-34-19 0-34 16-34 34l0 64z m269 684c99-2 178-82 178-179 0-82-57-153-137-174l-7-1 0-202c0-18-12-33-29-37l-5-1-5 0c-16 0-31 11-36 28l-2 5 0 5 0 201-7 1c-78 20-133 87-137 165l-1 9 1 9c5 98 88 173 187 171z m-5-79c-57 0-102-45-102-100 0-55 45-100 102-100 28 0 54 11 73 29 19 19 30 44 30 71 0 55-46 100-103 100z" horiz-adv-x="1105" />

<glyph glyph-name="ico_pago_paypal" unicode="&#xe82a;" d="M756 601c12 76 0 128-41 175-45 52-127 74-232 74l-304 0c-21 0-39-16-43-37l-126-802c-2-16 10-30 26-30l187 0-13-82c-2-14 9-27 23-27l158 0c19 0 35 14 38 32l1 8 30 189 2 11c3 18 19 32 37 32l24 0c153 0 273 62 308 242 15 75 7 138-32 182-11 13-26 24-43 33m0 0c12 76 0 128-41 175-45 52-127 74-232 74l-304 0c-21 0-39-16-43-37l-126-802c-2-16 10-30 26-30l187 0 47 298-1-9c3 21 21 37 43 37l89 0c175 0 312 71 352 277 1 6 2 12 3 17" horiz-adv-x="842" />

<glyph glyph-name="ico_pass_off" unicode="&#xe82b;" d="M2368 623c32 29 59 56 75 77 32 35 32 91 0 123-32 36-83 36-113 0-99-109-470-460-1077-460-607 0-977 354-1077 460-32 36-83 36-113 0-32-35-32-91 0-123 17-18 41-45 73-74l-121-186c-27-41-16-94 19-124 13-12 29-18 46-18 24 0 51 12 67 39l118 180c54-42 118-86 193-127l148-71c64-29 134-53 212-74l-70-283c-10-47 14-94 57-109 8-3 13-3 21-3 35 0 67 26 78 65l73 295c61-12 129-18 196-21l161 0c67 3 134 12 196 21l72-295c11-39 43-65 78-65 8 0 14 0 22 3 43 12 67 62 56 109l-70 283c76 21 148 48 213 74l147 71c76 41 140 82 194 124l115-177c16-24 40-39 65-39 16 0 32 6 45 18 35 30 43 86 19 124l-118 183z" horiz-adv-x="2500" />

<glyph glyph-name="ico_pass_on" unicode="&#xe82c;" d="M884 850c4 0 7 0 11-1 20-7 32-29 27-51l0 0-33-125 19-7c89-32 171-81 242-142l53 77c8 13 21 18 33 18 7 0 15-3 22-8 16-14 21-38 9-57l0 0-58-86c1-2 3-4 5-6 18-20 36-42 53-64 15-20 30-41 43-63l10-16 0 0c1-3 3-5 4-8 7-13 11-25 9-39-3-19-15-36-24-51-56-92-130-171-216-234-83-60-180-103-280-122-108-22-219-20-326 7-51 13-101 32-149 56-48 24-92 54-133 87-81 64-148 145-197 236-2 2-3 5-4 7-1 2-1 4-2 6-4 14-2 30 6 43 11 21 23 41 36 61 27 39 56 75 88 109l-51 77c-12 17-8 43 9 57 6 5 14 8 22 8 11 0 23-7 31-18l0 0 47-70c26 22 53 42 81 60 57 37 119 66 184 86l-28 111c-6 22 6 45 27 51 4 1 6 1 10 1 17 0 32-12 37-30l0 0 30-115c8 2 17 3 26 5 55 7 109 11 164 6 31-3 62-7 93-13l33 127c5 18 21 30 37 30z m-299-259c-54-8-108-22-159-43-53-23-103-53-149-88-43-35-82-75-116-118-15-20-29-41-42-63 13-22 27-43 43-63 34-44 73-83 116-118 45-35 95-65 148-88 51-21 104-35 158-43 55-7 111-7 166 0 54 8 107 22 158 43 52 23 102 53 148 88 43 35 82 75 116 119 15 20 29 40 42 62-12 20-25 39-39 57-35 46-76 87-120 123-47 36-97 66-151 89-51 21-104 35-157 44-54 6-109 6-162-1z m83-58c138 0 250-114 250-254 0-140-112-254-250-254-138 0-250 114-250 254 0 140 112 254 250 254z m0-111c-78 0-141-64-141-143 0-79 63-143 141-143 78 0 141 64 141 143 0 79-63 143-141 143z" horiz-adv-x="1333" />

<glyph glyph-name="ico_pendiente" unicode="&#xe82d;" d="" horiz-adv-x="5000" />

<glyph glyph-name="ico_perfil" unicode="&#xe82e;" d="M444 850c144 0 261-113 261-251 0-140-117-253-261-253-144 0-260 113-260 253 0 138 117 251 260 251z m0-83c-98 0-174-74-174-168 0-95 76-170 174-170 97 0 175 76 175 170 0 93-78 168-175 168z m-202-455l405 0c134 0 242-103 242-232l0-230-889 0 0 230c0 129 108 232 242 232z m246-232c0-55-87-55-87 0l0 149-159 0c-86 0-156-66-156-149l0-147 717 0 0 147c0 83-70 149-156 149l-159 0 0-149z" horiz-adv-x="889" />

<glyph glyph-name="ico_personal" unicode="&#xe82f;" d="M66-47l274 0 8-8 0-53-8-7-283 0c-31 0-57 27-57 59l0 847c0 32 26 59 57 59l613 0c32 0 58-27 58-59l0-281-8-7-51 0-7 7 0 272-596 0 0-829z m110 681l375 0c19 0 34-16 34-34 0-19-15-34-34-34l-375 0c-18 0-33 15-33 34 0 18 15 34 33 34z m0-175l233 0c18 0 34-15 34-33 0-19-16-34-34-34l-233 0c-18 0-33 15-33 34 0 18 15 33 33 33z m520 11c89 0 161-67 161-150 0-84-72-152-161-152-88 0-161 68-161 152 0 83 73 150 161 150z m0-62c-53 0-95-39-95-88 0-51 42-90 95-90 53 0 95 40 95 90 0 48-42 88-95 88z m-119-244l238 0c83 0 150-63 150-141l0-131-7-7-523 0-7 7 0 131c0 78 67 141 149 141z m152-141c0-41-66-41-66 0l0 78-86 0c-47 0-84-34-84-78l0-76 406 0 0 76c0 44-37 78-84 78l-86 0 0-78z" horiz-adv-x="1000" />

<glyph glyph-name="ico_phone" unicode="&#xe830;" d="M438 844c63 1 115-48 116-111l0-763c1-29-10-56-30-76-23-23-54-35-86-35l-322 0c-30-1-59 10-81 31-22 21-34 49-35 80l0 763c2 63 53 112 116 111l322 0z m-8-55l-305 0c-38 0-69-30-70-67l0-732c1-37 32-67 70-67l306 0c38-1 69 29 70 67l0 732c-2 38-33 67-71 67z m-154-757c23 0 42-18 42-40 0-22-19-40-42-40-24 0-42 18-42 40 0 22 18 40 42 40z m78 689c1 1 3-1 5-4 1-4 2-8 2-13l0-4c0-5-1-9-2-12-2-4-4-5-5-5l-123 0c-2-1-4 1-6 4-1 4-2 8-2 13l0 4c0 5 1 9 2 13 1 2 3 4 4 4l125 0z" horiz-adv-x="591" />

<glyph glyph-name="ico_poi" unicode="&#xe831;" d="M37 561c8 151 137 269 292 265 154-3 278-127 278-278l0 0c0-139-104-255-242-276l0-357c0-23-19-42-43-42-24 0-43 19-43 42l0 355c-144 22-250 147-242 291z m285-219c56 0 110 21 149 60 40 39 62 91 62 146 0 113-95 206-211 206-117 0-211-93-211-206 0-114 94-206 211-206z" horiz-adv-x="636" />

<glyph glyph-name="ico_refresh" unicode="&#xe832;" d="M189 397c2 0 3-1 4-1 1 0 1 0 1 0 1 0 2 0 3 0 0 0 1 0 1-1l0 0 2 0c1 0 1 0 2-1l0 0 1 0 251-101c20-7 29-29 21-48-5-15-19-24-35-24-4 0-9 1-14 3l0 0-195 78c28-202 201-357 410-357 175 0 332 111 391 276 5 15 19 25 35 25 5 0 9-1 13-2 19-7 30-29 23-48-69-195-255-327-462-327-236 0-433 168-479 390l0 0-93-123c-7-10-18-16-30-16-8 0-16 3-23 8-8 6-13 15-14 25-2 10 1 20 7 28l0 0 150 200 0 0 1 1c0 1 1 1 1 2l0 0 2 1 0 0 2 2c0 0 0 1 0 1 2 1 3 2 4 2 0 0 0 1 0 1l2 1 0 0 1 0c1 0 1 1 1 1 1 0 2 1 3 1 0 0 1 0 1 0 1 1 2 1 3 1l0 0 1 1c1 0 2 0 3 0 1 0 1 0 1 0 2 0 3 1 4 1l0 0z m452 451c236 0 433-167 479-390l0 0 93 124c8 10 19 15 31 15 8 0 16-2 22-7 17-13 20-36 8-53l0 0-151-201c0 0 0 0 0 0-1-1-1-2-2-2l0 0-1-1c-1-1-1-2-2-2 0-1-1-1-1-1-1-1-2-2-3-3 0 0-1 0-1 0l-1-1 0 0-2-1c0 0 0 0-1 0-1 0-2-1-3-1 0 0 0-1-1-1l0 0-3-1c0 0 0 0-1 0-1 0-2 0-3 0l0 0-1-1c-1 0-2 0-4 0l0 0-2 0 0 0-2 0 0 0-1 1c-1 0-2 0-2 0l0 0-2 0c-1 0-1 1-2 1 0 0-1 0-2 0l0 0-1 1-251 100c-19 8-29 30-21 49 6 15 20 24 35 24 5 0 10-1 14-3l0 0 195-78c-28 201-201 357-410 357-175 0-332-111-390-276-6-15-20-25-36-25-4 0-8 1-12 2-10 3-17 10-22 19-4 9-5 20-1 29 69 195 254 326 461 326z" horiz-adv-x="1294" />

<glyph glyph-name="ico_remitente" unicode="&#xe833;" d="M1022 380c111 0 200-91 200-204l0-201-489 0 0-125-733 0 0 201c0 113 89 204 200 204l304 0c30 73 101 125 185 125l333 0z m-691-198l-131 0c-72 0-129-58-129-131l0-128 591 0 0 52-173 0 0 201 0 6-87 0 0-131c0-48-71-48-71 0l0 131z m229-3l0-3 0 0 0-128 102 0 0 3c0 63-43 116-102 128z m260 128l-131 0c-45 0-85-23-108-58 88-22 152-102 152-198l0-3 418 0 0 128c0 73-57 131-129 131l-131 0 0-131c0-48-71-48-71 0l0 131z m-453 418c118 0 215-99 215-219 0-123-96-222-215-222-119 0-216 99-216 222 0 120 97 219 216 219z m0-73c-81 0-144-65-144-146 0-84 62-149 144-149 79 0 144 66 144 149 0 80-65 146-144 146z m489 198c118 0 215-99 215-219 0-123-97-222-215-222-119 0-216 99-216 222 0 120 97 219 216 219z m0-73c-81 0-144-65-144-146 0-84 62-149 144-149 79 0 144 66 144 149 0 80-65 146-144 146z m-454-726c0-48-71-48-71 0l0 131-131 0c-72 0-129-58-129-131l0-128 591 0 0 128c0 73-57 131-128 131l-132 0 0-131z" horiz-adv-x="1222" />

<glyph glyph-name="ico_rubbish" unicode="&#xe834;" d="M424 850c43 0 78-36 78-80l0 0 0-48 163 0c22 0 41-15 47-37l23-97c7-26-9-52-34-59-4-1-8-1-12-1l-3 0 0-2-45-602c-3-42-38-74-79-74l0 0-385 0c-41 0-75 32-78 73l0 0-48 602c0 1 0 2 0 3l-3 0c-27 0-48 22-48 48 0 4 1 8 1 12l24 97c6 22 25 37 47 37l170 0 0 48c0 42 31 76 72 80l7 0z m200-322l-511 0 48-599c0-8 6-14 13-16l3 0 385 0c9 0 16 7 17 16l0 0 45 599z m-256-46c14 0 26-11 28-25l1-5 0-467c0-16-13-30-29-30-14 0-25 11-27 25l-1 5 0 467c0 16 13 30 28 30z m-131 0c14 0 26-10 29-24l1-5 21-467c1-16-11-30-26-31-14 0-26 10-29 24l-1 4-21 467c-1 17 11 31 26 32z m263 0c14-1 25-12 26-27l0-5-21-467c-1-16-14-29-30-28-14 1-25 12-26 27l0 4 21 467c1 17 14 29 30 29z m154 177l-571 0-17-68 605 0-17 68z m-230 128l-103 0c-9 0-17-8-17-17l0 0 0-48 136 0 0 48c0 8-5 15-12 17l-4 0z" horiz-adv-x="737" />

<glyph glyph-name="ico_save" unicode="&#xe835;" d="M996 424c20 0 37-16 37-36l0 0 0-376c0-79-64-142-142-142l0 0-696 0c-79 0-143 63-143 142l0 0 0 376c0 20 17 36 37 36 21 0 37-16 37-36l0 0 0-376c0-38 31-68 69-68l0 0 696 0c37 0 68 30 68 68l0 0 0 376c0 20 17 36 37 36z m-445 426c19 0 34-14 37-32l0-5 0-513 174 171c13 13 33 14 48 3l4-4c13-13 14-33 4-47l-4-5-238-233c-13-12-32-14-46-5l-5 4-256 233c-15 14-16 37-3 52 13 14 33 16 48 6l4-3 196-178 0 519c0 19 14 34 32 36l5 1z" horiz-adv-x="1053" />

<glyph glyph-name="ico_saved" unicode="&#xe836;" d="M570 814c58 0 105-46 113-106l1-8 0-8 0-259 41 0c48 0 89-37 95-85l1-7 0-7 0-349c0-52-39-95-89-99l-7 0-593 0c-51 0-92 40-96 91l0 8 0 349c0 52 39 95 89 99l7 0 41 0 0 259c0 59 39 108 92 120l7 1 8 1 8 0 282 0z m-141-510c-41 0-74-31-78-71l0 0 0-6 0-134 0-7c3-40 37-71 78-71 40 0 73 30 77 70l0 0 1 7 0 134-1 7c-3 40-37 71-77 71z m140 421l-281 0c-12 0-23-9-26-23l-1-5 0-5 0-259 336 0 0 259c0 15-9 28-19 32l-4 1-5 0z" horiz-adv-x="857" />

<glyph glyph-name="ico_search" unicode="&#xe837;" d="" horiz-adv-x="889" />

<glyph glyph-name="ico_share" unicode="&#xe838;" d="M741 143c-38 0-71-15-97-38l-352 208c2 11 4 23 4 35 0 12-2 24-4 35l348 207c27-26 62-41 101-41 82 0 148 67 148 150 0 84-66 151-148 151-82 0-148-67-148-151 0-12 2-23 4-35l-348-206c-27 25-62 41-101 41-82 0-148-68-148-151 0-83 66-151 148-151 39 0 74 16 101 41l352-209c-3-10-4-21-4-32 0-81 64-147 144-147 79 0 144 66 144 147 0 80-65 146-144 146l0 0z" horiz-adv-x="889" />

<glyph glyph-name="ico_tosend_blue" unicode="&#xe839;" d="M516 829c7 2 14 2 21 0l0 0 471-142c15-5 23-17 25-29l0-5 0-548c0-12-7-24-17-30l-5-3-471-203 0 0c-1 0-2-1-3-1l3 1c-1 0-3-1-5-1-1-1-1-1-2-1-1 0-2 0-3 0 0 0-1 0-1 0-1-1-2-1-3-1-1 0-1 0-2 1-1 0-1 0-2 0-1 0-2 0-2 0-1 0-2 0-3 1 0 0 0 0 0 0l-1 0c-1 0-2 1-3 1l-1 0-471 203c-11 5-19 16-21 28l-1 5 0 548 1 5c1 12 10 24 25 29l0 0z m445-224l-44-14 0-270c0-14-8-26-20-32l-4-2-234-81c-23-8-48 10-48 34l0 0 0 259-49-15 0-528 400 173-1 476z m-870 0l0-476 399-173 0 528-399 121z m754-36l-162-49 0-230 162 56 0 223z m-91 120l-347-105 119-36 347 105-119 36z m-228 68l-347-104 104-32 347 105-104 31z" horiz-adv-x="1048" />

<glyph glyph-name="ico_tosend_card" unicode="&#xe83a;" d="M516 829c7 2 14 2 21 0l0 0 471-142c15-5 23-17 25-29l0-5 0-548c0-12-7-24-17-30l-5-3-471-203 0 0c-1 0-2-1-3-1l3 1c-1 0-3-1-5-1-1-1-1-1-2-1-1 0-2 0-3 0 0 0-1 0-1 0-1-1-2-1-3-1-1 0-1 0-2 1-1 0-1 0-2 0-1 0-2 0-2 0-1 0-2 0-3 1 0 0 0 0 0 0l-1 0c-1 0-2 1-3 1l-1 0-471 203c-11 5-19 16-21 28l-1 5 0 548 1 5c1 12 10 24 25 29l0 0z m445-224l-44-14 0-270c0-14-8-26-20-32l-4-2-234-81c-23-8-48 10-48 34l0 0 0 259-49-15 0-528 400 173-1 476z m-870 0l0-476 399-173 0 528-399 121z m754-36l-162-49 0-230 162 56 0 223z m-91 120l-347-105 119-36 347 105-119 36z m-228 68l-347-104 104-32 347 105-104 31z" horiz-adv-x="1048" />

<glyph glyph-name="ico_turn" unicode="&#xe83b;" d="M424 178c88 0 159-74 159-165l0-163-583 0 0 163c0 91 71 165 159 165l265 0z m-161-59l-104 0c-57 0-102-47-102-106l0-104 470 0 0 104c0 59-46 106-103 106l-104 0 0-106c0-39-57-39-57 0l0 106z m279 720c252 0 458-206 458-459 0-209-141-386-333-441l0 72c154 52 264 197 264 369 0 216-174 390-389 390-115 0-218-50-289-128l-88 0c83 119 221 197 377 197z m-250-281c94 0 171-79 171-177 0-100-77-180-171-180-95 0-171 80-171 180 0 98 77 177 171 177z m0-58c-65 0-115-53-115-119 0-68 50-121 115-121 63 0 114 54 114 121 0 65-51 119-114 119z m250 213c17 0 32-14 34-31l0-4 0-263 241 0c19 0 34-16 34-35 0-17-13-32-30-34l-4 0-275 0c-18 0-32 13-34 30l-1 4 0 298c0 19 16 35 35 35z" horiz-adv-x="1000" />

<glyph glyph-name="ico_ubicacioÌn" unicode="&#xe83c;" d="M500 850c276 0 500-224 500-500 0-276-224-500-500-500-276 0-500 224-500 500 0 276 224 500 500 500z m0-56c-245 0-444-198-444-444 0-245 199-444 444-444 246 0 444 199 444 444 0 246-198 444-444 444z m14-139c130 0 235-99 235-222 0-122-164-388-235-388-69 0-235 277-235 388l0 0 0 11c6 118 109 211 235 211z m0-54c-101 0-181-76-181-168l0 0 0-7c8-92 150-327 181-327 35 0 181 238 181 334l0 0 0 10c-5 87-84 158-181 158z m0-57c69 0 124-56 124-125 0-68-55-124-124-124-69 0-124 56-124 124 0 69 55 125 124 125z m0-54c-39 0-70-32-70-71 0-38 31-70 70-70 39 0 70 32 70 70 0 39-31 71-70 71z" horiz-adv-x="1000" />
</font>
</defs>
</svg>
