<?xml version="1.0" encoding="UTF-8"?>
<svg width="24px" height="24px" viewBox="0 0 24 24" version="1.1" xmlns="http://www.w3.org/2000/svg" xmlns:xlink="http://www.w3.org/1999/xlink">
    <!-- Generator: Sketch 63.1 (92452) - https://sketch.com -->
    <title>atoms/ico/24px/ico_add</title>
    <desc>Created with Sketch.</desc>
    <g id="atoms/ico/24px/ico_add" stroke="none" stroke-width="1" fill="none" fill-rule="evenodd">
        <path d="M13,11 L13,5.99077797 C13,5.44358641 12.5561352,5 12,5 L12,5 C11.4477153,5 11,5.45097518 11,5.99077797 L11,11 L5.99077797,11 C5.44358641,11 5,11.4438648 5,12 L5,12 C5,12.5522847 5.45097518,13 5.99077797,13 L11,13 L11,18.009222 C11,18.5564136 11.4438648,19 12,19 L12,19 C12.5522847,19 13,18.5490248 13,18.009222 L13,13 L18.009222,13 C18.5564136,13 19,12.5561352 19,12 L19,12 C19,11.4477153 18.5490248,11 18.009222,11 L13,11 Z" id="icon" fill="#002453"></path>
    </g>
</svg>