<?xml version="1.0" encoding="UTF-8"?>
<svg width="24px" height="24px" viewBox="0 0 24 24" version="1.1" xmlns="http://www.w3.org/2000/svg" xmlns:xlink="http://www.w3.org/1999/xlink">
    <!-- Generator: Sketch 63.1 (92452) - https://sketch.com -->
    <title>atoms/ico/24px/ico_address</title>
    <desc>Created with Sketch.</desc>
    <g id="atoms/ico/24px/ico_address" stroke="none" stroke-width="1" fill="none" fill-rule="evenodd">
        <path d="M12.5,2.85 C16.7196525,2.85 20.15,5.96565558 20.15,9.82394366 C20.15,13.6159198 14.8206617,22.15 12.5,22.15 C10.303882,22.15 4.85,13.3270833 4.85,9.82394366 C4.85,5.96565558 8.28034751,2.85 12.5,2.85 Z M12.5,4.00962441 C8.93678613,4.00962441 6.04631902,6.61239036 6.04631902,9.82394366 C6.04631902,11.26676 7.1504641,13.924135 8.86450558,16.6833711 C10.2908109,18.9794143 11.9853629,20.9903756 12.5,20.9903756 C13.0364092,20.9903756 14.7389229,19.0585064 16.1380342,16.8616094 C17.8742755,14.1353478 18.953681,11.4728294 18.953681,9.82394366 C18.953681,6.61239036 16.0632139,4.00962441 12.5,4.00962441 Z M12.5,14.121831 C10.3089994,14.121831 8.5309816,12.3983502 8.5309816,10.2699531 C8.5309816,8.14155588 10.3089994,6.41807512 12.5,6.41807512 C14.6910006,6.41807512 16.4690184,8.14155588 16.4690184,10.2699531 C16.4690184,12.3983502 14.6910006,14.121831 12.5,14.121831 Z M12.5,12.6622066 C13.8666619,12.6622066 14.9726994,11.5900945 14.9726994,10.2699531 C14.9726994,8.94981165 13.8666619,7.87769953 12.5,7.87769953 C11.1333381,7.87769953 10.0273006,8.94981165 10.0273006,10.2699531 C10.0273006,11.5900945 11.1333381,12.6622066 12.5,12.6622066 Z" id="Combined-Shape" fill="#002453"></path>
    </g>
</svg>