<?xml version="1.0" encoding="UTF-8"?>
<svg width="24px" height="24px" viewBox="0 0 24 24" version="1.1" xmlns="http://www.w3.org/2000/svg" xmlns:xlink="http://www.w3.org/1999/xlink">
    <!-- Generator: Sketch 63.1 (92452) - https://sketch.com -->
    <title>atoms/ico/24px/ico_adjunto</title>
    <desc>Created with Sketch.</desc>
    <g id="atoms/ico/24px/ico_adjunto" stroke="none" stroke-width="1" fill="none" fill-rule="evenodd">
        <path d="M6.22719236,14.7000002 L19.1484849,14.7000002 C21.2803931,14.7000002 23,12.9762964 23,10.8500001 C23,8.72803035 21.2756182,7 19.1484849,7 L6.22662756,7 C3.33832995,7 1,9.33842482 1,12.2250001 C1,15.1075595 3.34154734,17.4500002 6.22662756,17.4500002 L16.9486307,17.4500002 C17.2531437,17.4500002 17.5,17.2058746 17.5,16.9000002 L17.5,16.9000002 C17.5,16.5962436 17.2540558,16.3500002 16.9486307,16.3500002 L6.22662756,16.3500002 C3.94755412,16.3500002 2.10000002,14.4985391 2.10000002,12.2250001 C2.10000002,9.94682548 3.94495576,8.10000002 6.22662756,8.10000002 L19.1484849,8.10000002 C20.6665171,8.10000002 21.9000005,9.33395514 21.9000005,10.8500001 C21.9000005,12.3705471 20.6711167,13.6000001 19.1484849,13.6000001 L6.22719236,13.6000001 C5.46752382,13.6000001 4.85000008,12.9825439 4.85000008,12.2250001 C4.85000008,11.4637665 5.46345827,10.8500001 6.22719236,10.8500001 L16.9486583,10.8500001 C17.2531561,10.8500001 17.5,10.6058744 17.5,10.3000001 L17.5,10.3000001 C17.5,9.99624348 17.2540681,9.75000006 16.9486583,9.75000006 L6.22719236,9.75000006 C4.85410374,9.75000006 3.75000006,10.8580953 3.75000006,12.2250001 C3.75000006,13.5891235 4.85907684,14.7000002 6.22719236,14.7000002 Z" id="Path" fill="#002453" transform="translate(12.000000, 12.225000) rotate(-45.000000) translate(-12.000000, -12.225000) "></path>
    </g>
</svg>