<?xml version="1.0" encoding="UTF-8"?>
<svg width="24px" height="24px" viewBox="0 0 24 24" version="1.1" xmlns="http://www.w3.org/2000/svg" xmlns:xlink="http://www.w3.org/1999/xlink">
    <!-- Generator: Sketch 63.1 (92452) - https://sketch.com -->
    <title>atoms/ico/24px/ico_almacen</title>
    <desc>Created with Sketch.</desc>
    <g id="atoms/ico/24px/ico_almacen" stroke="none" stroke-width="1" fill="none" fill-rule="evenodd">
        <path d="M14.4263606,2.5895125 L14.5064347,2.60726316 L23.4091766,5.27477193 C23.6431229,5.34486875 23.7747177,5.52923529 23.803961,5.72788555 L23.8101839,5.81360439 L23.8101839,16.1024816 C23.8101839,16.2954317 23.7115826,16.472455 23.5530882,16.5748779 L23.4690291,16.6196011 L14.5662871,20.4302853 C14.5375107,20.4423329 14.51773,20.4491879 14.4975703,20.4549315 L14.512,20.4495956 L14.4761295,20.4604147 C14.4569194,20.4652458 14.437393,20.4689057 14.4176326,20.4715133 C14.4078497,20.4727241 14.3982288,20.4737462 14.3886281,20.474514 L14.3851566,20.4748226 L14.3021813,20.4746356 C14.2919495,20.4737845 14.2815635,20.4726788 14.2711634,20.4712706 C14.2516372,20.4687343 14.2326382,20.4651509 14.2139308,20.460617 L14.2098205,20.4594294 L14.1947673,20.4556124 L14.1635936,20.4458972 L14.1236403,20.4302853 L12.3,19.6495956 L12.3,20.372449 C12.3,21.2226421 11.6373718,21.9226813 10.7960249,21.9940145 L10.6542286,22 L1.94577136,22 C1.08606043,22 0.378184279,21.3447078 0.306052471,20.5126755 L0.3,20.372449 L0.3,13.6295612 C0.3,12.7793682 0.962628203,12.0793289 1.80397506,12.0079957 L1.94577136,12.0020102 L2.83304075,12.0020102 L2.83304075,11.505102 C2.83304075,11.2261454 3.06171784,11 3.34379738,11 C3.59455997,11 3.80308319,11.1786828 3.84632585,11.4143102 L3.85455401,11.505102 L3.85455401,12.0020102 L4.879,12.0015956 L4.87974355,5.81360439 L4.88600997,5.72788555 C4.91107564,5.5576139 5.01133835,5.39783641 5.18679809,5.31151802 L5.28079438,5.27477193 L14.1835363,2.60726316 C14.2625261,2.58359561 14.3454192,2.57767873 14.4263606,2.5895125 Z M11.278,15.133 L1.32154163,15.1332219 L1.32154163,20.172424 C1.32154163,20.5855715 1.55685009,20.9281014 1.86120644,20.9823206 L1.94579974,20.9897959 L10.654257,20.9897959 C10.9697935,20.9897959 11.2313966,20.681695 11.2728059,20.2831862 L11.2785151,20.172424 L11.278,15.133 Z M4.458,15.638 C5.346,15.638 5.904,16.166 5.904,16.958 C5.904,17.6281538 5.54101775,18.0631361 4.93303232,18.6357606 L4.776,18.782 L4.374,19.166 L5.964,19.166 L5.964,20 L3.204,20 L3.204,19.1 L3.846,18.524 C4.626,17.864 4.956,17.474 4.956,17.054 C4.956,16.664 4.662,16.526 4.332,16.526 C4.07485714,16.526 3.81771429,16.5877143 3.49255977,16.7375918 L3.324,16.82 L3.144,16.046 C3.456,15.836 3.906,15.638 4.458,15.638 Z M8.7,15.686 L8.7,19.166 L9.402,19.166 L9.402,20 L6.726,20 L6.726,19.166 L7.782,19.166 L7.782,16.658 L7.164,17.132 L6.69,16.466 L7.698,15.686 L8.7,15.686 Z M6.004,6.569 L6.004,12.0015956 L8.87211363,12.0020102 L8.87211363,11.505102 C8.87211363,11.2261454 9.10079073,11 9.38287026,11 C9.63360763,11 9.84215047,11.1786828 9.8853978,11.4143102 L9.89362689,11.505102 L9.89362689,12.0019821 L10.6542286,12.0019821 C11.5139396,12.0019821 12.2218157,12.6572744 12.2939475,13.4893067 L12.3,13.6295332 L12.3,18.4255956 L13.782,19.06 L13.7817435,8.89959561 L7.77874355,7.10059561 L6.004,6.569 Z M22.685,6.569 L21.6147435,6.88959561 L21.6155774,12.4504213 L16.068529,14.3520803 L16.0677435,8.55159561 L14.9067435,8.89959561 L14.907,19.06 L22.685,15.731 L22.685,6.569 Z M2.83306913,13.0122143 L1.94579974,13.0122143 C1.63287102,13.0122143 1.37298782,13.2410872 1.32832252,13.5384561 L1.32154163,13.6295612 L1.32154163,14.5731293 L11.2785151,14.5731293 L11.2785151,13.6295612 C11.2785151,13.3200969 11.04708,13.0630909 10.7463821,13.0189201 L10.654257,13.0122143 L9.89365527,13.0122143 L9.89365527,13.5090944 C9.89365527,13.788051 9.66497817,14.0141964 9.38289864,14.0141964 C9.13216127,14.0141964 8.92361843,13.8355136 8.8803711,13.5998862 L8.87214201,13.5090944 L8.87214201,13.0122143 L3.85458239,13.0122143 L3.85458239,13.5090944 C3.85458239,13.788051 3.62590529,14.0141964 3.34382576,14.0141964 C3.09308839,14.0141964 2.88454555,13.8355136 2.84129822,13.5998862 L2.83306913,13.5090944 L2.83306913,13.0122143 Z M20.49,7.242 L17.193,8.229 L17.193,12.777 L20.49,11.646 L20.49,7.242 Z M18.6467435,5.02159561 L11.7027435,7.10159561 L11.7947435,7.12959561 L14.3447435,7.89359561 L15.7397435,7.47559561 L21.287,5.813 L18.6467435,5.02159561 Z M14.345,3.732 L7.402,5.813 L9.74274355,6.51459561 L16.6877435,4.43359561 L14.345,3.732 Z" id="Combined-Shape" fill="#002453"></path>
    </g>
</svg>