<?xml version="1.0" encoding="UTF-8"?>
<svg width="24px" height="24px" viewBox="0 0 24 24" version="1.1" xmlns="http://www.w3.org/2000/svg" xmlns:xlink="http://www.w3.org/1999/xlink">
    <!-- Generator: Sketch 63.1 (92452) - https://sketch.com -->
    <title>atoms/ico/24px/ico_arrive</title>
    <desc>Created with Sketch.</desc>
    <g id="atoms/ico/24px/ico_arrive" stroke="none" stroke-width="1" fill="none" fill-rule="evenodd">
        <path d="M16.2913758,5.77263921 C15.9457545,5.40912026 15.3744292,5.40912026 15.0288079,5.77263921 C14.6967674,6.12187399 14.6967674,6.67814286 15.0288079,7.02737764 L17.5327662,9.65374589 L5.95690728,9.65374589 C4.59470097,9.65596482 3.50207158,10.8051747 3.5,12.2112529 L3.5,17.6004962 C3.5,18.0917903 3.88811174,18.5 4.37983449,18.5 C4.87155723,18.5 5.25966897,18.0917903 5.25966897,17.6004962 L5.25966897,12.2119893 C5.25966897,11.7871868 5.57763677,11.4527534 5.95690728,11.4527534 L17.533503,11.4527534 L15.0382412,14.0723962 C14.8225992,14.2992047 14.739988,14.6234793 14.8173284,14.9270645 C14.8959903,15.2358369 15.1296991,15.4816481 15.4351463,15.5677306 C15.7461601,15.655382 16.0775066,15.5620004 16.3004919,15.327468 L20.2507705,11.1726288 C20.4110248,11.004502 20.5,10.7789767 20.5,10.5452596 C20.5,10.3115424 20.4110248,10.0860171 20.2503353,9.91743317 L19.8879516,9.53724623 L19.8792933,9.54635287 L16.2913758,5.77263921 Z" id="Path" fill="#002453"></path>
    </g>
</svg>