<?xml version="1.0" encoding="UTF-8"?>
<svg width="24px" height="24px" viewBox="0 0 24 24" version="1.1" xmlns="http://www.w3.org/2000/svg" xmlns:xlink="http://www.w3.org/1999/xlink">
    <!-- Generator: Sketch 63.1 (92452) - https://sketch.com -->
    <title>atoms/ico/24px/ico_back</title>
    <desc>Created with Sketch.</desc>
    <g id="atoms/ico/24px/ico_back" stroke="none" stroke-width="1" fill="none" fill-rule="evenodd">
        <path d="M19.5736544,13.0639293 L1.65,13.0639293 C1.01487254,13.0639293 0.5,12.5697686 0.5,11.9601904 C0.5,11.3506122 1.01487254,10.8564514 1.65,10.8564514 L19.5736544,10.8564514 L16.4768272,7.88420026 C16.0277243,7.45316338 16.0277243,6.75431453 16.4768272,6.32327766 C16.9259301,5.89224078 17.6540699,5.89224078 18.1031728,6.32327766 L23.1631728,11.1797291 C23.3771493,11.385098 23.5,11.6638656 23.5,11.9601904 C23.5,12.2565152 23.3771493,12.5352828 23.1631728,12.7406517 L18.0202165,17.6767223 C17.5711135,18.1077592 16.8429738,18.1077592 16.3938709,17.6767223 C15.9447679,17.2456855 15.9447679,16.5468366 16.3938709,16.1157997 L19.5736544,13.0639293 Z" id="Combined-Shape" fill="#002453" transform="translate(12.000000, 12.000000) rotate(-180.000000) translate(-12.000000, -12.000000) "></path>
    </g>
</svg>