<?xml version="1.0" encoding="UTF-8"?>
<svg width="24px" height="24px" viewBox="0 0 24 24" version="1.1" xmlns="http://www.w3.org/2000/svg" xmlns:xlink="http://www.w3.org/1999/xlink">
    <!-- Generator: Sketch 63.1 (92452) - https://sketch.com -->
    <title>atoms/ico/24px/ico_box_scan</title>
    <desc>Created with Sketch.</desc>
    <g id="atoms/ico/24px/ico_box_scan" stroke="none" stroke-width="1" fill="none" fill-rule="evenodd">
        <path d="M2.5,17.75 C2.87969577,17.75 3.19349096,18.0321539 3.24315338,18.3982294 L3.25,18.5 L3.25,20.75 L5.5,20.75 C5.91421356,20.75 6.25,21.0857864 6.25,21.5 C6.25,21.8796958 5.96784612,22.193491 5.60177056,22.2431534 L5.5,22.25 L2.5,22.25 C2.12030423,22.25 1.80650904,21.9678461 1.75684662,21.6017706 L1.75,21.5 L1.75,18.5 C1.75,18.0857864 2.08578644,17.75 2.5,17.75 Z M21.5,17.75 C21.8796958,17.75 22.193491,18.0321539 22.2431534,18.3982294 L22.25,18.5 L22.25,21.5 C22.25,21.8796958 21.9678461,22.193491 21.6017706,22.2431534 L21.5,22.25 L18.5,22.25 C18.0857864,22.25 17.75,21.9142136 17.75,21.5 C17.75,21.1203042 18.0321539,20.806509 18.3982294,20.7568466 L18.5,20.75 L20.75,20.75 L20.75,18.5 C20.75,18.0857864 21.0857864,17.75 21.5,17.75 Z M12.6193093,4.56594481 L12.6998079,4.58389174 L20.1187595,6.81989174 C20.3521978,6.89024778 20.4835069,7.07443314 20.5126867,7.27284716 L20.5189032,7.3584625 L20.5189032,15.9829625 C20.5189032,16.1755402 20.4206774,16.352286 20.2626605,16.454806 L20.1788473,16.4996102 L12.7598957,19.6938602 C12.7352422,19.7044001 12.7162637,19.7112022 12.6969245,19.7169788 L12.701,19.714 L12.6646107,19.7254344 L12.6646107,19.7254344 C12.6505215,19.7289023 12.6362062,19.731684 12.6217571,19.7339028 C12.6072493,19.7360378 12.593189,19.7376497 12.5791724,19.73872 C12.5773257,19.7389068 12.5752894,19.7390493 12.5732511,19.7391806 L12.5016885,19.7391806 C12.4996502,19.7390493 12.4976138,19.7389068 12.4955794,19.7387532 C12.4817506,19.7376497 12.4676902,19.7360378 12.4536102,19.7338682 C12.4387333,19.731684 12.4244181,19.7289023 12.4102662,19.7255771 C12.4073085,19.7247212 12.4042884,19.7239818 12.4012688,19.7232158 L12.3780151,19.7169788 C12.3586758,19.7112022 12.3396973,19.7044001 12.3211593,19.6966248 L12.3150438,19.6938602 L4.89609219,16.4996102 C4.71921248,16.4234542 4.59571814,16.26334 4.56404384,16.0776617 L4.55603629,15.9829625 L4.55603629,7.3584625 L4.5622891,7.27284716 C4.58730035,7.102778 4.68734535,6.94316255 4.8624241,6.85672309 L4.95621629,6.81989174 L12.3751679,4.58389174 C12.4545641,4.5599625 12.5379289,4.55398019 12.6193093,4.56594481 Z M5.681,8.115 L5.681,15.613 L11.974,18.322 L11.974,10.012 L5.68303629,8.1159625 L5.681,8.115 Z M19.393,8.116 L18.1030363,8.5039625 L13.0990363,10.0129625 L13.0990363,18.3219625 L19.393,15.612 L19.393,8.116 Z M16.1200363,6.7899625 L10.6520363,8.4379625 L12.537,9.006 L18.006,7.358 L16.1200363,6.7899625 Z M12.537,5.71 L7.06803629,7.3579625 L8.70303629,7.8509625 L14.1710363,6.2029625 L12.537,5.71 Z M5.5,1.75 C5.91421356,1.75 6.25,2.08578644 6.25,2.5 C6.25,2.87969577 5.96784612,3.19349096 5.60177056,3.24315338 L5.5,3.25 L3.25,3.25 L3.25,5.5 C3.25,5.91421356 2.91421356,6.25 2.5,6.25 C2.12030423,6.25 1.80650904,5.96784612 1.75684662,5.60177056 L1.75,5.5 L1.75,2.5 C1.75,2.12030423 2.03215388,1.80650904 2.39822944,1.75684662 L2.5,1.75 L5.5,1.75 Z M21.5,1.75 C21.8796958,1.75 22.193491,2.03215388 22.2431534,2.39822944 L22.25,2.5 L22.25,5.5 C22.25,5.91421356 21.9142136,6.25 21.5,6.25 C21.1203042,6.25 20.806509,5.96784612 20.7568466,5.60177056 L20.75,5.5 L20.75,3.25 L18.5,3.25 C18.0857864,3.25 17.75,2.91421356 17.75,2.5 C17.75,2.12030423 18.0321539,1.80650904 18.3982294,1.75684662 L18.5,1.75 L21.5,1.75 Z" id="Combined-Shape" fill="#002453"></path>
    </g>
</svg>