<?xml version="1.0" encoding="UTF-8"?>
<svg width="24px" height="24px" viewBox="0 0 24 24" version="1.1" xmlns="http://www.w3.org/2000/svg" xmlns:xlink="http://www.w3.org/1999/xlink">
    <!-- Generator: Sketch 63.1 (92452) - https://sketch.com -->
    <title>atoms/ico/24px/ico_burofax</title>
    <desc>Created with Sketch.</desc>
    <g id="atoms/ico/24px/ico_burofax" stroke="none" stroke-width="1" fill="none" fill-rule="evenodd">
        <path d="M17.02,2.85 C17.6447106,2.85 18.15,3.38336106 18.15,4.03444444 L18.15,4.999 L16.85,4.999 L16.85,4.20555556 L5.15,4.20555556 L5.15,20.7944444 L16.85,20.7944444 L16.85,18.999 L18.15,18.999 L18.15,20.9655556 C18.15,21.6166389 17.6447106,22.15 17.02,22.15 L4.98,22.15 C4.35528942,22.15 3.85,21.6166389 3.85,20.9655556 L3.85,4.03444444 C3.85,3.38336106 4.35528942,2.85 4.98,2.85 L17.02,2.85 Z M20.2572214,7.38030587 L21.6058594,8.73036683 L21.637592,8.76213297 C22.1343638,9.27780613 22.1172673,10.0878956 21.6057323,10.5632409 L13.9741551,18.1869875 C13.9025605,18.2586576 13.8281207,18.3045151 13.729229,18.3291489 L10.5518675,19 L10.4884022,19 C10.3609275,19 10.2383339,18.9483272 10.1441824,18.8540764 C10.0199706,18.7297336 9.96997121,18.5509757 10.0180371,18.410095 L10.6858201,15.2591922 C10.7090308,15.1662511 10.7548399,15.0917328 10.8263076,15.0201898 L18.4422725,7.38030587 L18.4603785,7.36222119 C18.9695192,6.87074598 19.7594026,6.88196182 20.2572214,7.38030587 Z M17.2474584,9.97059567 L11.6142829,15.6097149 L11.1262557,17.8709669 L13.3851243,17.3824248 L19.0182998,11.7433056 L17.2474584,9.97059567 Z M11.9059387,10.6611111 C12.151187,10.6611111 12.35,10.9645626 12.35,11.3388889 C12.35,11.7132152 12.151187,12.0166667 11.9059387,12.0166667 L7.0940613,12.0166667 C6.84881302,12.0166667 6.65,11.7132152 6.65,11.3388889 C6.65,10.9645626 6.84881302,10.6611111 7.0940613,10.6611111 L11.9059387,10.6611111 Z M19.1458451,8.07020148 L17.9366312,9.26628069 L19.7218724,11.0534056 L20.9144591,9.84517686 C21.0402778,9.7070552 21.0396934,9.53195541 20.9174198,9.41953278 L19.5687818,8.06947183 L19.5583341,8.0587823 C19.4341749,7.94484969 19.2581816,7.94783577 19.1458451,8.07020148 Z M14.6722222,7.17777778 C15.0465486,7.17777778 15.35,7.48122923 15.35,7.85555556 C15.35,8.22988189 15.0465486,8.53333333 14.6722222,8.53333333 L7.32777778,8.53333333 C6.95345145,8.53333333 6.65,8.22988189 6.65,7.85555556 C6.65,7.48122923 6.95345145,7.17777778 7.32777778,7.17777778 L14.6722222,7.17777778 Z" id="Combined-Shape" fill="#002453"></path>
    </g>
</svg>