<?xml version="1.0" encoding="UTF-8"?>
<svg width="24px" height="24px" viewBox="0 0 24 24" version="1.1" xmlns="http://www.w3.org/2000/svg" xmlns:xlink="http://www.w3.org/1999/xlink">
    <!-- Generator: Sketch 63.1 (92452) - https://sketch.com -->
    <title>atoms/ico/24px/ico_cart</title>
    <desc>Created with Sketch.</desc>
    <g id="atoms/ico/24px/ico_cart" stroke="none" stroke-width="1" fill="none" fill-rule="evenodd">
        <path d="M18.9947431,15.9979324 C20.6319989,15.9979324 21.9640454,17.3403856 21.9640454,18.9904324 C21.9640454,20.6404793 20.6319989,21.9829324 18.9947431,21.9829324 C17.3574873,21.9829324 16.0254408,20.6404793 16.0254408,18.9904324 C16.0254408,17.3403856 17.3574408,15.9979324 18.9947431,15.9979324 Z M9.00680359,15.9979324 C10.6440594,15.9979324 11.9761059,17.3403856 11.9761059,18.9904324 C11.9761059,20.6404793 10.6440594,21.9829324 9.00680359,21.9829324 C7.36954777,21.9829324 6.03750126,20.6404793 6.03750126,18.9904324 C6.03750126,17.3403856 7.36950126,15.9979324 9.00680359,15.9979324 Z M18.9947431,17.7934324 C18.3397199,17.7934324 17.8070222,18.3302918 17.8070222,18.9904324 C17.8070222,19.6505731 18.3397199,20.1874324 18.9947431,20.1874324 C19.6497664,20.1874324 20.1824641,19.6505731 20.1824641,18.9904324 C20.1824641,18.3302918 19.6497664,17.7934324 18.9947431,17.7934324 Z M9.00680359,17.7934324 C8.35178033,17.7934324 7.81908266,18.3302918 7.81908266,18.9904324 C7.81908266,19.6505731 8.35178033,20.1874324 9.00680359,20.1874324 C9.66182684,20.1874324 10.1945245,19.6505731 10.1945245,18.9904324 C10.1945245,18.3302918 9.66182684,17.7934324 9.00680359,17.7934324 Z M4.53864844,2 C4.91939453,2 5.25051172,2.25188535 5.33911328,2.60868153 L5.33911328,2.60868153 L6.07976562,5.5945414 L22.1770625,5.5945414 C22.4302344,5.5945414 22.6691836,5.70661465 22.8249883,5.89875796 C22.980793,6.09094268 23.0364805,6.34121338 22.9759375,6.57798726 L22.9759375,6.57798726 L20.9733789,14.3750892 C20.8825859,14.7286975 20.5528867,14.9771879 20.1745898,14.9771879 L20.1745898,14.9771879 L7.36410156,14.9771879 C6.98335547,14.9771879 6.65223828,14.7255924 6.56363672,14.3685064 L6.56363672,14.3685064 L3.88908984,3.58579299 L1.8229375,3.58579299 C1.36841406,3.58579299 1,3.23081847 1,2.7928758 C1,2.35493312 1.36841406,2 1.8229375,2 L1.8229375,2 Z M21.1255742,7.1803758 L6.47310156,7.1803758 L8.01366016,13.3913535 L19.5307461,13.3913535 L21.1255742,7.1803758 Z" id="cart" fill="#002453"></path>
    </g>
</svg>