<?xml version="1.0" encoding="UTF-8"?>
<svg width="24px" height="24px" viewBox="0 0 24 24" version="1.1" xmlns="http://www.w3.org/2000/svg" xmlns:xlink="http://www.w3.org/1999/xlink">
    <!-- Generator: Sketch 63.1 (92452) - https://sketch.com -->
    <title>atoms/ico/24px/ico_chat</title>
    <desc>Created with Sketch.</desc>
    <g id="atoms/ico/24px/ico_chat" stroke="none" stroke-width="1" fill="none" fill-rule="evenodd">
        <path d="M14.3149052,7.09090909 C15.5488798,7.09090909 16.5454545,8.11482227 16.5454545,9.37684831 L16.5454545,9.37684831 L16.5454545,17.1288286 C16.5454545,18.3898279 15.5494563,19.4087957 14.3149052,19.4087957 L14.3149052,19.4087957 L7.6139696,19.4087957 L6.46150356,20.5959276 C5.9281812,21.134577 5.07014055,21.134577 4.54498457,20.5966102 L4.54498457,20.5966102 L3.39204565,19.4087957 L3.23658098,19.4087957 C2.00107113,19.4087957 1,18.3890615 1,17.1288286 L1,17.1288286 L1,9.37684831 C1,8.1156628 2.00179567,7.09090909 3.23658098,7.09090909 L3.23658098,7.09090909 Z M14.3149052,8.12304712 L3.23678897,8.12304712 C2.55363371,8.12304712 2.00868976,8.68033726 2.00868976,9.37706159 L2.00868976,9.37706159 L2.00868976,17.1290419 C2.00868976,17.824157 2.55206122,18.376871 3.23678897,18.376871 L3.23678897,18.376871 L3.60386859,18.376871 C3.73227256,18.376871 3.8487821,18.4237818 3.94465194,18.5053235 L3.94465194,18.5053235 L5.26709067,19.8591162 C5.40325427,19.9987494 5.60277741,19.9987494 5.73892177,19.859136 L5.73892177,19.859136 L7.03826732,18.5271082 C7.15577355,18.4242527 7.27375179,18.376871 7.40216309,18.376871 L7.40216309,18.376871 L14.3149052,18.376871 C14.9945088,18.376871 15.5371808,17.8234454 15.5371808,17.1290419 L15.5371808,17.1290419 L15.5371808,9.37684831 C15.5370177,8.68092907 14.9927976,8.12304712 14.3149052,8.12304712 L14.3149052,8.12304712 Z M20.8543281,3 C22.0891134,3 23.0909091,4.0247537 23.0909091,5.28593921 L23.0909091,13.0379195 C23.0909091,14.2981525 22.089838,15.3178866 20.8543281,15.3178866 L20.6988634,15.3178866 L19.5459245,16.5057011 C19.0207685,17.0436679 18.1627279,17.0436679 17.6294055,16.5050186 L17.3634545,16.232 L17.3634545,14.755 L18.3519873,15.7682269 C18.4881317,15.9078403 18.6876548,15.9078403 18.8238184,15.7682071 L20.1462572,14.4144144 C20.242127,14.3328727 20.3586365,14.2859619 20.4870405,14.2859619 L20.8541201,14.2859619 C21.5388479,14.2859619 22.0822193,13.7332479 22.0822193,13.0381328 L22.0822193,5.2861525 C22.0822193,4.58942817 21.5372754,4.03213803 20.8541201,4.03213803 L9.77600385,4.03213803 C9.09811147,4.03213803 8.55389135,4.59001998 8.55372833,5.28593921 L8.55345455,6.272 L7.54545455,6.272 L7.54545455,5.28593921 C7.54545455,4.02391318 8.5420293,3 9.77600385,3 L20.8543281,3 Z M13.6856913,14.2257611 L13.7603093,14.2364998 C14.0109594,14.2811272 14.1914523,14.5273852 14.1746779,14.7866416 C14.1363828,15.0882628 13.8786962,15.2963894 13.602879,15.2587662 L13.602879,15.2587662 L3.89840187,15.2618222 C3.62489957,15.2618222 3.38833729,15.0304593 3.38833729,14.7457532 C3.38833729,14.4610482 3.62509623,14.2296842 3.89840187,14.2296842 L3.89840187,14.2296842 L13.6104607,14.2296842 C13.6602329,14.2221815 13.711354,14.2244534 13.7603093,14.2364998 Z M13.6828268,11.5059866 L13.7277276,11.5090283 C13.9986649,11.5458982 14.2038357,11.8017722 14.1663434,12.0864195 C14.150198,12.3480707 13.8973199,12.5623017 13.6242749,12.5430598 L13.6242749,12.5430598 L3.89819388,12.5438834 C3.62469158,12.5438834 3.3881293,12.3125206 3.3881293,12.0278144 C3.3881293,11.7457567 3.62252223,11.5059866 3.89819388,11.5059866 L3.89819388,11.5059866 L13.6828268,11.5059866 Z M20.1925072,10.1387751 C20.4658129,10.1387751 20.7025718,10.3701391 20.7025718,10.6548441 C20.7025718,10.9395503 20.4660095,11.1709131 20.1925072,11.1709131 L17.3634545,11.169 L17.3634545,10.138 L20.1925072,10.1387751 Z M20.1927152,7.41507751 C20.4683869,7.41507751 20.7027798,7.65484758 20.7027798,7.93690532 C20.7027798,8.22161148 20.4662175,8.45297433 20.1927152,8.45297433 L17.3634545,8.452 L17.3634545,7.415 L20.1927152,7.41507751 Z" id="Combined-Shape" fill="#002453"></path>
    </g>
</svg>