<?xml version="1.0" encoding="UTF-8"?>
<svg width="24px" height="24px" viewBox="0 0 24 24" version="1.1" xmlns="http://www.w3.org/2000/svg" xmlns:xlink="http://www.w3.org/1999/xlink">
    <!-- Generator: Sketch 63.1 (92452) - https://sketch.com -->
    <title>atoms/ico/24px/ico_close</title>
    <desc>Created with Sketch.</desc>
    <g id="atoms/ico/24px/ico_close" stroke="none" stroke-width="1" fill="none" fill-rule="evenodd">
        <path d="M12.25,13.7963181 L5.86657102,20.179747 C5.43956707,20.606751 4.7472569,20.606751 4.32025296,20.179747 C3.89324901,19.7527431 3.89324901,19.0604329 4.32025296,18.633429 L10.7036819,12.25 L4.32025296,5.86657102 C3.89324901,5.43956707 3.89324901,4.7472569 4.32025296,4.32025296 C4.7472569,3.89324901 5.43956707,3.89324901 5.86657102,4.32025296 L12.25,10.7036819 L18.633429,4.32025296 C19.0604329,3.89324901 19.7527431,3.89324901 20.179747,4.32025296 C20.606751,4.7472569 20.606751,5.43956707 20.179747,5.86657102 L13.7963181,12.25 L20.179747,18.633429 C20.606751,19.0604329 20.606751,19.7527431 20.179747,20.179747 C19.7527431,20.606751 19.0604329,20.606751 18.633429,20.179747 L12.25,13.7963181 Z" id="Path" fill="#002453"></path>
    </g>
</svg>