<?xml version="1.0" encoding="UTF-8"?>
<svg width="24px" height="24px" viewBox="0 0 24 24" version="1.1" xmlns="http://www.w3.org/2000/svg" xmlns:xlink="http://www.w3.org/1999/xlink">
    <!-- Generator: Sketch 63.1 (92452) - https://sketch.com -->
    <title>atoms/ico/24px/ico_code</title>
    <desc>Created with Sketch.</desc>
    <g id="atoms/ico/24px/ico_code" stroke="none" stroke-width="1" fill="none" fill-rule="evenodd">
        <path d="M4.5,6 C4.77614237,6 5,6.26862915 5,6.6 L5,6.6 L5,17.4 C5,17.7313708 4.77614237,18 4.5,18 C4.22385763,18 4,17.7313708 4,17.4 L4,17.4 L4,6.6 C4,6.26862915 4.22385763,6 4.5,6 Z M7.5,6 C7.77614237,6 8,6.22385763 8,6.5 L8,17.5 C8,17.7761424 7.77614237,18 7.5,18 L6.5,18 C6.22385763,18 6,17.7761424 6,17.5 L6,6.5 C6,6.22385763 6.22385763,6 6.5,6 L7.5,6 Z M10.5,6 C10.7761424,6 11,6.26862915 11,6.6 L11,6.6 L11,17.4 C11,17.7313708 10.7761424,18 10.5,18 C10.2238576,18 10,17.7313708 10,17.4 L10,17.4 L10,6.6 C10,6.26862915 10.2238576,6 10.5,6 Z M13.5,6 C13.7761424,6 14,6.22385763 14,6.5 L14,17.5 C14,17.7761424 13.7761424,18 13.5,18 L12.5,18 C12.2238576,18 12,17.7761424 12,17.5 L12,6.5 C12,6.22385763 12.2238576,6 12.5,6 L13.5,6 Z M16.5,6 C16.7761424,6 17,6.26862915 17,6.6 L17,6.6 L17,17.4 C17,17.7313708 16.7761424,18 16.5,18 C16.2238576,18 16,17.7313708 16,17.4 L16,17.4 L16,6.6 C16,6.26862915 16.2238576,6 16.5,6 Z M19.5,6 C19.7761424,6 20,6.22385763 20,6.5 L20,17.5 C20,17.7761424 19.7761424,18 19.5,18 L18.5,18 C18.2238576,18 18,17.7761424 18,17.5 L18,6.5 C18,6.22385763 18.2238576,6 18.5,6 L19.5,6 Z" id="Combined-Shape" fill="#002453"></path>
    </g>
</svg>