<?xml version="1.0" encoding="UTF-8"?>
<svg width="24px" height="24px" viewBox="0 0 24 24" version="1.1" xmlns="http://www.w3.org/2000/svg" xmlns:xlink="http://www.w3.org/1999/xlink">
    <!-- Generator: Sketch 63.1 (92452) - https://sketch.com -->
    <title>atoms/ico/24px/ico_code_scan</title>
    <desc>Created with Sketch.</desc>
    <g id="atoms/ico/24px/ico_code_scan" stroke="none" stroke-width="1" fill="none" fill-rule="evenodd">
        <path d="M2.5,15.75 C2.91421356,15.75 3.25,16.0857864 3.25,16.5 L3.25,16.5 L3.25,18.75 L5.5,18.75 C5.91421356,18.75 6.25,19.0857864 6.25,19.5 C6.25,19.9142136 5.91421356,20.25 5.5,20.25 L5.5,20.25 L2.5,20.25 C2.08578644,20.25 1.75,19.9142136 1.75,19.5 L1.75,19.5 L1.75,16.5 C1.75,16.0857864 2.08578644,15.75 2.5,15.75 Z M21.5,15.75 C21.9142136,15.75 22.25,16.0857864 22.25,16.5 L22.25,16.5 L22.25,19.5 C22.25,19.9142136 21.9142136,20.25 21.5,20.25 L21.5,20.25 L18.5,20.25 C18.0857864,20.25 17.75,19.9142136 17.75,19.5 C17.75,19.0857864 18.0857864,18.75 18.5,18.75 L18.5,18.75 L20.75,18.75 L20.75,16.5 C20.75,16.0857864 21.0857864,15.75 21.5,15.75 Z M5.5,7 C5.77614237,7 6,7.22385763 6,7.5 L6,7.5 L6,16.5 C6,16.7761424 5.77614237,17 5.5,17 C5.22385763,17 5,16.7761424 5,16.5 L5,16.5 L5,7.5 C5,7.22385763 5.22385763,7 5.5,7 Z M8.5,7 C8.77614237,7 9,7.22385763 9,7.5 L9,16.5 C9,16.7761424 8.77614237,17 8.5,17 L7.5,17 C7.22385763,17 7,16.7761424 7,16.5 L7,7.5 C7,7.22385763 7.22385763,7 7.5,7 L8.5,7 Z M10.5,7 C10.7761424,7 11,7.22385763 11,7.5 L11,7.5 L11,16.5 C11,16.7761424 10.7761424,17 10.5,17 C10.2238576,17 10,16.7761424 10,16.5 L10,16.5 L10,7.5 C10,7.22385763 10.2238576,7 10.5,7 Z M13.5,7 C13.7761424,7 14,7.22385763 14,7.5 L14,16.5 C14,16.7761424 13.7761424,17 13.5,17 L12.5,17 C12.2238576,17 12,16.7761424 12,16.5 L12,7.5 C12,7.22385763 12.2238576,7 12.5,7 L13.5,7 Z M15.5,7 C15.7761424,7 16,7.22385763 16,7.5 L16,7.5 L16,16.5 C16,16.7761424 15.7761424,17 15.5,17 C15.2238576,17 15,16.7761424 15,16.5 L15,16.5 L15,7.5 C15,7.22385763 15.2238576,7 15.5,7 Z M18.5,7 C18.7761424,7 19,7.22385763 19,7.5 L19,16.5 C19,16.7761424 18.7761424,17 18.5,17 L17.5,17 C17.2238576,17 17,16.7761424 17,16.5 L17,7.5 C17,7.22385763 17.2238576,7 17.5,7 L18.5,7 Z M5.5,3.75 C5.91421356,3.75 6.25,4.08578644 6.25,4.5 C6.25,4.91421356 5.91421356,5.25 5.5,5.25 L5.5,5.25 L3.25,5.25 L3.25,7.5 C3.25,7.91421356 2.91421356,8.25 2.5,8.25 C2.08578644,8.25 1.75,7.91421356 1.75,7.5 L1.75,7.5 L1.75,4.5 C1.75,4.08578644 2.08578644,3.75 2.5,3.75 L2.5,3.75 Z M21.5,3.75 C21.9142136,3.75 22.25,4.08578644 22.25,4.5 L22.25,4.5 L22.25,7.5 C22.25,7.91421356 21.9142136,8.25 21.5,8.25 C21.0857864,8.25 20.75,7.91421356 20.75,7.5 L20.75,7.5 L20.75,5.25 L18.5,5.25 C18.0857864,5.25 17.75,4.91421356 17.75,4.5 C17.75,4.08578644 18.0857864,3.75 18.5,3.75 L18.5,3.75 Z" id="Combined-Shape" fill="#002453"></path>
    </g>
</svg>