<?xml version="1.0" encoding="UTF-8"?>
<svg width="24px" height="24px" viewBox="0 0 24 24" version="1.1" xmlns="http://www.w3.org/2000/svg" xmlns:xlink="http://www.w3.org/1999/xlink">
    <!-- Generator: Sketch 63.1 (92452) - https://sketch.com -->
    <title>atoms/ico/24px/ico_comentarios</title>
    <desc>Created with Sketch.</desc>
    <g id="atoms/ico/24px/ico_comentarios" stroke="none" stroke-width="1" fill="none" fill-rule="evenodd">
        <path d="M9.91625937,19.0551948 L5.72622692,19.0551948 C4.21733124,19.0551948 3,17.8097896 3,16.2685683 L3,6.79392571 C3,5.25144944 4.21803581,4 5.72622692,4 L19.266401,4 C20.7755831,4 22,5.25247675 22,6.79392571 L22,16.2685683 C22,17.808853 20.7764686,19.0551948 19.266401,19.0551948 L15.0763887,19.0551948 L13.6672411,20.506968 C13.0253838,21.164483 11.9766674,21.164483 11.324829,20.5061338 L9.91625937,19.0551948 Z M5.72622692,5.26150203 C4.8976918,5.26150203 4.23253387,5.94335775 4.23233462,6.79392571 L4.23233462,16.268829 C4.23233462,17.1175443 4.8956004,17.7939534 5.72622692,17.7939534 L10.175134,17.7939534 C10.3320811,17.7939534 10.4762768,17.8518645 10.6198955,17.9775766 L12.2079845,19.6056106 C12.3743832,19.7762493 12.6182448,19.7762493 12.784667,19.6055865 L14.400981,17.950951 C14.5181552,17.8512889 14.6605558,17.7939534 14.8174939,17.7939534 L19.2661468,17.7939534 C20.1030363,17.7939534 20.767157,17.1184141 20.767157,16.268829 L20.767157,6.79418639 C20.767157,5.94263443 20.1011144,5.26150203 19.2661468,5.26150203 L5.72622692,5.26150203 Z M6.44388843,9.39992349 L6.49876727,9.39620584 C6.50413743,9.39620584 6.50413743,9.39620584 6.50957114,9.39620584 C6.51500485,9.39620584 6.51500485,9.39620584 6.52037501,9.39620584 L18.457763,9.39620584 C18.7946951,9.39620584 19.0811753,9.68925816 19.0811753,10.0339954 C19.0811753,10.3819696 18.7920436,10.6647464 18.457763,10.6647464 L6.57033069,10.6637398 C6.23660907,10.6872576 5.92753582,10.4254197 5.90780248,10.1056238 C5.86197859,9.75772161 6.11274288,9.4449867 6.44388843,9.39992349 Z M6.58721469,12.7251695 L18.4575088,12.7251695 C18.7915491,12.7251695 19.0809211,13.0079477 19.0809211,13.3559206 C19.0809211,13.7038948 18.7917894,13.9866716 18.4575088,13.9866716 L6.59648125,13.9829365 C6.25937127,14.0289203 5.94442097,13.7745435 5.89761587,13.4058953 C5.87711381,13.0890263 6.0977163,12.7880444 6.40406642,12.7334998 C6.4639007,12.7187764 6.52638199,12.7159997 6.58721469,12.7251695 Z" id="Shape" fill="#002453"></path>
    </g>
</svg>