<?xml version="1.0" encoding="UTF-8"?>
<svg width="24px" height="24px" viewBox="0 0 24 24" version="1.1" xmlns="http://www.w3.org/2000/svg" xmlns:xlink="http://www.w3.org/1999/xlink">
    <!-- Generator: Sketch 63.1 (92452) - https://sketch.com -->
    <title>atoms/ico/24px/ico_copy</title>
    <desc>Created with Sketch.</desc>
    <g id="atoms/ico/24px/ico_copy" stroke="none" stroke-width="1" fill="none" fill-rule="evenodd">
        <path d="M16.4882353,5.71428571 C16.9647059,5.71428571 17.3529412,6.11238095 17.3529412,6.60095238 L17.3529412,21.1133333 C17.3529412,21.6019048 16.9647059,22 16.4882353,22 L5.86470588,22 C5.38823529,22 5,21.6019048 5,21.1133333 L5,6.60095238 C5,6.11238095 5.38823529,5.71428571 5.86470588,5.71428571 L16.4882353,5.71428571 Z M16.1985294,6.90238095 L6.19852941,6.90238095 L6.19852941,20.902381 L16.1985294,20.902381 L16.1985294,6.90238095 Z M19.1352941,3 C19.6117647,3 20,3.39809524 20,3.88666667 L20,3.88666667 L20,18.3990476 C20,18.887619 19.6117647,19.2857143 19.1352941,19.2857143 L19.1352941,19.2857143 L18.2352941,19.2857143 L18.236,18.188 L18.8235294,18.1880952 L18.8235294,4.18809524 L8.82352941,4.18809524 L8.824,4.809 L7.648,4.809 L7.64705882,3.88666667 C7.64705882,3.39809524 8.03529412,3 8.51176471,3 L8.51176471,3 Z M14.2535014,17.4761905 C14.5033445,17.4761905 14.7058824,17.6787283 14.7058824,17.9285714 C14.7058824,18.1784145 14.5033445,18.3809524 14.2535014,18.3809524 L8.09943978,18.3809524 C7.84959667,18.3809524 7.64705882,18.1784145 7.64705882,17.9285714 C7.64705882,17.6787283 7.84959667,17.4761905 8.09943978,17.4761905 L14.2535014,17.4761905 Z M14.2535014,14.7619048 C14.5033445,14.7619048 14.7058824,14.9644426 14.7058824,15.2142857 C14.7058824,15.4641288 14.5033445,15.6666667 14.2535014,15.6666667 L8.09943978,15.6666667 C7.84959667,15.6666667 7.64705882,15.4641288 7.64705882,15.2142857 C7.64705882,14.9644426 7.84959667,14.7619048 8.09943978,14.7619048 L14.2535014,14.7619048 Z M14.2535014,12.047619 C14.5033445,12.047619 14.7058824,12.2501569 14.7058824,12.5 C14.7058824,12.7498431 14.5033445,12.952381 14.2535014,12.952381 L8.09943978,12.952381 C7.84959667,12.952381 7.64705882,12.7498431 7.64705882,12.5 C7.64705882,12.2501569 7.84959667,12.047619 8.09943978,12.047619 L14.2535014,12.047619 Z M14.2535014,9.33333333 C14.5033445,9.33333333 14.7058824,9.53587118 14.7058824,9.78571429 C14.7058824,10.0355574 14.5033445,10.2380952 14.2535014,10.2380952 L8.09943978,10.2380952 C7.84959667,10.2380952 7.64705882,10.0355574 7.64705882,9.78571429 C7.64705882,9.53587118 7.84959667,9.33333333 8.09943978,9.33333333 L14.2535014,9.33333333 Z" id="Combined-Shape" fill="#002453"></path>
    </g>
</svg>