<?xml version="1.0" encoding="UTF-8"?>
<svg width="24px" height="24px" viewBox="0 0 24 24" version="1.1" xmlns="http://www.w3.org/2000/svg" xmlns:xlink="http://www.w3.org/1999/xlink">
    <!-- Generator: Sketch 63.1 (92452) - https://sketch.com -->
    <title>atoms/ico/24px/ico_correos</title>
    <desc>Created with Sketch.</desc>
    <g id="atoms/ico/24px/ico_correos" stroke="none" stroke-width="1" fill="none" fill-rule="evenodd">
        <path d="M16.5002,9.6997 L12.0002,9.6997 L7.5002,9.6997 L7.5002,8.9397 L7.5002,8.1797 L12.0002,8.1797 L16.5002,8.1797 L16.5002,8.9397 L16.5002,9.6997 Z M13.5002,16.9187 C13.5002,16.0787 12.8282,15.3977 12.0002,15.3977 C11.1712,15.3977 10.5002,16.0787 10.5002,16.9187 C10.5002,17.7577 11.1712,18.4387 12.0002,18.4387 C12.8282,18.4387 13.5002,17.7577 13.5002,16.9187 L13.5002,16.9187 Z M12.0002,21.4797 C17.2902,21.4797 21.6772,17.5157 22.3952,12.3577 L20.8762,12.3577 C20.1652,16.6727 16.4602,19.9587 12.0002,19.9587 C10.3432,19.9587 9.0022,18.5977 9.0022,16.9187 C9.0022,15.2397 10.3432,13.8797 12.0002,13.8797 C13.6572,13.8797 15.0002,15.1997 15.0002,16.9187 C15.0002,17.2537 14.9332,17.5707 14.8342,17.8727 C15.4332,17.6247 15.9892,17.2967 16.5002,16.9087 C16.5002,14.3997 14.4842,12.3587 12.0002,12.3587 C9.5152,12.3587 7.5002,14.3997 7.5002,16.9187 C7.5002,19.4367 9.5152,21.4797 12.0002,21.4797 L12.0002,21.4797 Z M1.6192,12.3577 C2.0952,15.7187 4.1082,18.5717 6.9252,20.1517 C6.3422,19.2147 6.0002,18.1087 6.0002,16.9187 L6.0002,16.9187 L6.0002,12.3577 L1.6192,12.3577 Z M19.5002,10.8377 L24.0002,10.8377 C24.0002,17.5547 18.6272,22.9997 12.0002,22.9997 C5.3732,22.9997 0.0002,17.5547 0.0002,10.8377 L7.5002,10.8377 L7.5002,12.9067 C8.5992,11.6407 10.2052,10.8377 12.0002,10.8377 C14.8622,10.8377 17.2522,12.8697 17.8512,15.5877 C18.8822,14.2867 19.5002,12.6357 19.5002,10.8377 L19.5002,10.8377 Z M15.7502,2.4757 C17.4062,2.4757 18.7502,3.8367 18.7502,5.5157 L18.7502,7.0367 L17.2502,7.0367 L17.2502,5.5157 C17.2502,4.6767 16.5782,3.9957 15.7502,3.9957 C15.6162,3.9957 15.4882,4.0197 15.3642,4.0527 C15.6022,4.4887 15.7502,4.9827 15.7502,5.5157 L15.7502,7.0367 L14.2502,7.0367 L14.2502,5.5157 C14.2502,4.6767 13.5782,3.9957 12.7502,3.9957 L12.7502,7.0367 L11.2502,7.0367 L11.2502,3.9957 C10.4212,3.9957 9.7502,4.6767 9.7502,5.5157 L9.7502,7.0367 L8.2502,7.0367 L8.2502,5.5157 C8.2502,4.9827 8.3972,4.4887 8.6362,4.0537 C8.5122,4.0197 8.3842,3.9957 8.2502,3.9957 C7.4212,3.9957 6.7502,4.6767 6.7502,5.5157 L6.7502,7.0367 L5.2502,7.0367 L5.2502,5.5157 C5.2502,3.8367 6.5932,2.4757 8.2502,2.4757 C8.8012,2.4757 9.3152,2.6297 9.7582,2.8927 C10.1992,2.6347 10.7042,2.4757 11.2502,2.4757 C11.5052,2.4757 11.7482,2.5187 11.9842,2.5787 C12.2292,2.5137 12.4852,2.4757 12.7502,2.4757 C13.2992,2.4757 13.8062,2.6357 14.2492,2.8967 C14.6922,2.6357 15.2012,2.4757 15.7502,2.4757 L15.7502,2.4757 Z M12.3272,0.7167 L13.0342,0.7167 L13.0342,1.3797 L12.3272,1.3797 L12.3272,2.0957 L11.6732,2.0957 L11.6732,1.3797 L10.9662,1.3797 L10.9662,0.7167 L11.6732,0.7167 L11.6732,-0.0003 L12.3272,-0.0003 L12.3272,0.7167 Z" id="Fill-1" fill="#000066"></path>
    </g>
</svg>