<?xml version="1.0" encoding="UTF-8"?>
<svg width="24px" height="24px" viewBox="0 0 24 24" version="1.1" xmlns="http://www.w3.org/2000/svg" xmlns:xlink="http://www.w3.org/1999/xlink">
    <!-- Generator: Sketch 63.1 (92452) - https://sketch.com -->
    <title>atoms/ico/24px/ico_date</title>
    <desc>Created with Sketch.</desc>
    <g id="atoms/ico/24px/ico_date" stroke="none" stroke-width="1" fill="none" fill-rule="evenodd">
        <path d="M6.70318816,2 C6.19878224,2 5.78986892,2.40891332 5.78986892,2.91331924 L5.78986892,3.81182241 L4.20328118,3.81182241 C2.5805666,3.81182241 1.26036364,5.13202537 1.26036364,6.75473996 L1.26036364,9.47364059 L1.26036364,11.3002791 L1.26036364,18.9471459 C1.26036364,20.5698605 2.5805666,21.8900634 4.20328118,21.8900634 L19.7754757,21.8900634 C21.3981903,21.8900634 22.7183932,20.5698605 22.7183932,18.9471459 L22.7183932,11.3002283 L22.7183932,9.47358985 L22.7183932,6.75468922 C22.7183932,5.13197463 21.3981903,3.81177167 19.7754757,3.81177167 L18.4153911,3.81177167 L18.4153911,2.91331924 C18.4153911,2.40891332 18.0064778,2 17.5020719,2 C16.997666,2 16.5887526,2.40891332 16.5887526,2.91331924 L16.5887526,3.81182241 L7.6165074,3.81182241 L7.6165074,2.91331924 C7.6165074,2.40891332 7.20764482,2 6.70318816,2 Z M20.8918055,18.9471459 C20.8918055,19.5626723 20.3910529,20.0634249 19.7755264,20.0634249 L4.20333192,20.0634249 C3.5878055,20.0634249 3.08705285,19.5626723 3.08705285,18.9471459 L3.08705285,11.3002283 L20.8918055,11.3002283 L20.8918055,18.9471459 Z M16.5888034,5.63846089 L16.5888034,6.53691332 C16.5888034,7.04131924 16.9977167,7.45023256 17.5021226,7.45023256 C18.0065285,7.45023256 18.4154419,7.04131924 18.4154419,6.53691332 L18.4154419,5.63846089 L19.7755264,5.63846089 C20.3910529,5.63846089 20.8918055,6.13921353 20.8918055,6.75473996 L20.8918055,9.47364059 L3.08705285,9.47364059 L3.08705285,6.75473996 C3.08705285,6.13921353 3.5878055,5.63846089 4.20333192,5.63846089 L5.78991966,5.63846089 L5.78991966,6.53691332 C5.78991966,7.04131924 6.19883298,7.45023256 6.7032389,7.45023256 C7.20764482,7.45023256 7.61655814,7.04131924 7.61655814,6.53691332 L7.61655814,5.63846089 L16.5888034,5.63846089 Z" id="Shape" fill="#002453"></path>
    </g>
</svg>