<?xml version="1.0" encoding="UTF-8"?>
<svg width="24px" height="24px" viewBox="0 0 24 24" version="1.1" xmlns="http://www.w3.org/2000/svg" xmlns:xlink="http://www.w3.org/1999/xlink">
    <!-- Generator: Sketch 63.1 (92452) - https://sketch.com -->
    <title>atoms/ico/24px/ico_delete_text</title>
    <desc>Created with Sketch.</desc>
    <g id="atoms/ico/24px/ico_delete_text" stroke="none" stroke-width="1" fill="none" fill-rule="evenodd">
        <path d="M11.75,2 C17.1347763,2 21.5,6.36522369 21.5,11.75 C21.5,17.1347763 17.1347763,21.5 11.75,21.5 C6.36522369,21.5 2,17.1347763 2,11.75 C2,6.36522369 6.36522369,2 11.75,2 Z M11.75,3.5 C7.19365081,3.5 3.5,7.19365081 3.5,11.75 C3.5,16.3063492 7.19365081,20 11.75,20 C16.3063492,20 20,16.3063492 20,11.75 C20,7.19365081 16.3063492,3.5 11.75,3.5 Z M9.00855752,7.55172077 L11.75,10.2931633 L14.4914425,7.55172077 C14.8937368,7.14942641 15.5459849,7.14942641 15.9482792,7.55172077 C16.3505736,7.95401513 16.3505736,8.60626316 15.9482792,9.00855752 L13.2068367,11.75 L15.9482792,14.4914425 C16.3505736,14.8937368 16.3505736,15.5459849 15.9482792,15.9482792 C15.5459849,16.3505736 14.8937368,16.3505736 14.4914425,15.9482792 L11.75,13.2068367 L9.00855752,15.9482792 C8.60626316,16.3505736 7.95401513,16.3505736 7.55172077,15.9482792 C7.14942641,15.5459849 7.14942641,14.8937368 7.55172077,14.4914425 L10.2931633,11.75 L7.55172077,9.00855752 C7.14942641,8.60626316 7.14942641,7.95401513 7.55172077,7.55172077 C7.95401513,7.14942641 8.60626316,7.14942641 9.00855752,7.55172077 Z" id="Combined-Shape" fill="#002453"></path>
    </g>
</svg>