<?xml version="1.0" encoding="UTF-8"?>
<svg width="24px" height="24px" viewBox="0 0 24 24" version="1.1" xmlns="http://www.w3.org/2000/svg" xmlns:xlink="http://www.w3.org/1999/xlink">
    <!-- Generator: Sketch 63.1 (92452) - https://sketch.com -->
    <title>atoms/ico/24px/ico_direc_entrega</title>
    <desc>Created with Sketch.</desc>
    <g id="atoms/ico/24px/ico_direc_entrega" stroke="none" stroke-width="1" fill="none" fill-rule="evenodd">
        <path d="M6.46957123,20.3220109 L6.46957123,3.8673913 C6.46957123,3.35289728 6.83482985,3 7.35650069,3 L17.6434993,3 C18.1203152,3 18.5304288,3.36321474 18.5304288,3.8673913 L18.5304288,20.3220109 L19.1130705,20.3220109 C19.5898864,20.3220109 20,20.6852256 20,21.1894022 C20,21.7060579 19.5943489,22 19.1130705,22 L5.88692946,22 C5.38218653,22 5,21.6643161 5,21.1894022 C5,20.7189281 5.37658549,20.3220109 5.88692946,20.3220109 L6.46957123,20.3220109 Z M16.7565698,20.3220109 L16.7565698,4.67798913 L8.1846473,4.67798913 L8.1846473,20.3220109 L16.7565698,20.3220109 Z M15.4685339,13.3673913 C14.9810583,13.3673913 14.5816044,12.981456 14.5816044,12.5 C14.5816044,12.018544 14.9810583,11.6326087 15.4685339,11.6326087 C15.9560094,11.6326087 16.3554633,12.018544 16.3554633,12.5 C16.3554633,12.981456 15.9560094,13.3673913 15.4685339,13.3673913 Z" id="Combined-Shape" fill="#002453"></path>
    </g>
</svg>