<?xml version="1.0" encoding="UTF-8"?>
<svg width="24px" height="24px" viewBox="0 0 24 24" version="1.1" xmlns="http://www.w3.org/2000/svg" xmlns:xlink="http://www.w3.org/1999/xlink">
    <!-- Generator: Sketch 63.1 (92452) - https://sketch.com -->
    <title>atoms/ico/24px/ico_direc_citypaq</title>
    <desc>Created with Sketch.</desc>
    <g id="atoms/ico/24px/ico_direc_citypaq" stroke="none" stroke-width="1" fill="none" fill-rule="evenodd">
        <path d="M20.170129,19.5576786 C20.170129,19.8338209 19.9462714,20.0576786 19.670129,20.0576786 L19.670129,20.0576786 L14.2981993,20.0592625 C14.2563204,20.0706415 14.2122565,20.0767143 14.1667742,20.0767143 L14.1667742,20.0767143 L4.5,20.0767143 C4.22385763,20.0767143 4,19.8528567 4,19.5767143 L4,19.5767143 L4,3.5 C4,3.22385763 4.22385763,3 4.5,3 L4.5,3 L19.670129,3.00067857 C19.9462714,3.00067857 20.170129,3.2245362 20.170129,3.50067857 L20.170129,3.50067857 Z M13.666,18.279 L5,18.279 L5,19.076 L13.666,19.076 L13.666,18.279 Z M19.17,17.357 L14.667,17.357 L14.667,19.057 L19.17,19.057 L19.17,17.357 Z M13.666,16.48 L5,16.48 L5,17.278 L13.666,17.278 L13.666,16.48 Z M19.169,14.202 L14.666,14.202 L14.667,16.356 L19.17,16.356 L19.169,14.202 Z M13.666,14.913 L5,14.913 L5,15.48 L13.666,15.48 L13.666,14.913 Z M13.666,4 L5,4 L5,13.683 L13.666,13.683 L13.666,4 Z M19.17,12.404 L14.667,12.404 L14.667,13.202 L19.17,13.202 L19.17,12.404 Z M19.17,10.607 L14.667,10.607 L14.667,11.404 L19.17,11.404 L19.17,10.607 Z M19.17,8.809 L14.667,8.809 L14.667,9.606 L19.17,9.606 L19.17,8.809 Z M19.169,7.156 L14.666,7.156 L14.667,7.809 L19.17,7.809 L19.169,7.156 Z M19.17,4 L14.667,4 L14.666,6.011 L19.169,6.011 L19.17,4 Z" id="Combined-Shape" fill="#002453"></path>
    </g>
</svg>