<?xml version="1.0" encoding="UTF-8"?>
<svg width="24px" height="24px" viewBox="0 0 24 24" version="1.1" xmlns="http://www.w3.org/2000/svg" xmlns:xlink="http://www.w3.org/1999/xlink">
    <!-- Generator: Sketch 63.1 (92452) - https://sketch.com -->
    <title>atoms/ico/24px/ico_download</title>
    <desc>Created with Sketch.</desc>
    <g id="atoms/ico/24px/ico_download" stroke="none" stroke-width="1" fill="none" fill-rule="evenodd">
        <path d="M5.29289322,10.2928932 C5.68341751,9.90236893 6.31658249,9.90236893 6.70710678,10.2928932 L11,14.586 L11,4 C11,3.44771525 11.4477153,3 12,3 C12.5522847,3 13,3.44771525 13,4 L13,14.586 L17.2928932,10.2928932 C17.6834175,9.90236893 18.3165825,9.90236893 18.7071068,10.2928932 C19.0976311,10.6834175 19.0976311,11.3165825 18.7071068,11.7071068 L12.7071068,17.7071068 L12.625449,17.7803112 C12.6225624,17.7826279 12.6196628,17.7849289 12.6167501,17.787214 L12.7071068,17.7071068 C12.6717127,17.7425008 12.6343256,17.774687 12.5953066,17.8036654 C12.5711307,17.8215099 12.546275,17.8382813 12.5206602,17.8539326 C12.5086131,17.8613931 12.4963944,17.8685012 12.4840621,17.8753288 C12.4642939,17.8862061 12.4438914,17.8966234 12.4230991,17.9063462 C12.4060985,17.914321 12.3887956,17.9218036 12.371336,17.9287745 C12.3515792,17.9366843 12.3317977,17.9438775 12.3117364,17.9504533 C12.2968513,17.9552713 12.2814633,17.9599023 12.265993,17.9641549 C12.2444365,17.9701664 12.2227461,17.9753602 12.2007941,17.9798348 C12.1833753,17.9832978 12.165949,17.9863719 12.1484669,17.9889822 C12.1294204,17.991899 12.1096949,17.994252 12.0898018,17.9960225 C12.0659949,17.998105 12.042681,17.9993651 12.0193545,17.9998139 C12.0129086,17.9999387 12.0064615,18 12,18 L11.9816379,17.9998325 C11.9579802,17.9994007 11.9343349,17.9981344 11.9107499,17.9960336 L12,18 C11.9493797,18 11.8996379,17.9962388 11.8510388,17.9889807 C11.834051,17.9863719 11.8166247,17.9832978 11.7992742,17.9797599 C11.7772539,17.9753602 11.7555635,17.9701664 11.7341604,17.964279 C11.7185367,17.9599023 11.7031487,17.9552713 11.6878575,17.9502619 C11.6682023,17.9438775 11.6484208,17.9366843 11.6289415,17.928896 C11.6112044,17.9218036 11.5939015,17.914321 11.5767785,17.9063266 C11.5561086,17.8966234 11.5357061,17.8862061 11.515723,17.8751242 C11.5036056,17.8685012 11.4913869,17.8613931 11.4792912,17.8540045 C11.453725,17.8382813 11.4288693,17.8215099 11.4048407,17.8036865 C11.397397,17.7982466 11.3901576,17.7927155 11.3829777,17.7870723 C11.3515341,17.7623312 11.3213595,17.7355731 11.2928932,17.7071068 L5.29289322,11.7071068 C4.90236893,11.3165825 4.90236893,10.6834175 5.29289322,10.2928932 Z M4.94727818,19.1054436 L19.0527218,19.1054436 C19.5758891,19.1054436 20,19.5295545 20,20.0527218 C20,20.5758891 19.5758891,21 19.0527218,21 L4.94727818,21 C4.42411089,21 4,20.5758891 4,20.0527218 C4,19.5295545 4.42411089,19.1054436 4.94727818,19.1054436 Z" id="Combined-Shape" fill="#002453"></path>
    </g>
</svg>