<?xml version="1.0" encoding="UTF-8"?>
<svg width="24px" height="24px" viewBox="0 0 24 24" version="1.1" xmlns="http://www.w3.org/2000/svg" xmlns:xlink="http://www.w3.org/1999/xlink">
    <!-- Generator: Sketch 63.1 (92452) - https://sketch.com -->
    <title>atoms/ico/24px/ico_edit</title>
    <desc>Created with Sketch.</desc>
    <g id="atoms/ico/24px/ico_edit" stroke="none" stroke-width="1" fill="none" fill-rule="evenodd">
        <path d="M20.6713713,6.3732233 C21.3906508,7.11908324 21.3658966,8.29078137 20.6252413,8.9783119 L9.57542534,20.0051551 C9.47176295,20.1088175 9.36398107,20.1751448 9.22079497,20.2107747 L4.62027027,21.1810811 L4.52837838,21.1810811 C4.34380678,21.1810811 4.1663026,21.1063425 4.02998006,20.9700199 C3.85013291,20.7901728 3.77773837,20.5316209 3.84733336,20.3278537 L4.81422113,15.7704472 C4.84782819,15.6360189 4.9141555,15.5282371 5.01763404,15.4247587 L16.0448449,4.37457466 L16.0710607,4.3484173 C16.8082493,3.63755683 17.9519272,3.65377922 18.6727226,4.37457466 L20.6254253,6.32727736 L20.6713713,6.3732233 Z M8.72256334,18.8414508 L16.878879,10.6851351 L14.3148649,8.12112096 L6.15854916,16.2774367 L5.45193108,19.5480689 L8.72256334,18.8414508 Z M19.6286287,7.32407399 L17.675926,5.37137129 L17.6607986,5.35591016 C17.4810277,5.19112018 17.2262057,5.1954392 17.0635528,5.37242664 L15.3127232,7.10241306 L17.8975869,9.68727679 L19.6243419,7.93971756 C19.8065157,7.73994099 19.8056695,7.48667996 19.6286287,7.32407399 Z" id="Shape" fill="#002453"></path>
    </g>
</svg>