<?xml version="1.0" encoding="UTF-8"?>
<svg width="24px" height="24px" viewBox="0 0 24 24" version="1.1" xmlns="http://www.w3.org/2000/svg" xmlns:xlink="http://www.w3.org/1999/xlink">
    <!-- Generator: Sketch 63.1 (92452) - https://sketch.com -->
    <title>atoms/ico/24px/ico_emial</title>
    <desc>Created with Sketch.</desc>
    <g id="atoms/ico/24px/ico_emial" stroke="none" stroke-width="1" fill="none" fill-rule="evenodd">
        <path d="M11.9999039,4 C16.4181288,4 19.9999047,7.581722 19.9999047,12 L19.9999047,12 L19.9999047,13.6313276 C20.0107139,14.9885712 19.1008236,16.180801 17.7888146,16.5283931 C16.4768055,16.8759851 15.0959901,16.2906345 14.4334945,15.1060172 C12.9734403,16.2458613 10.9194737,16.2255843 9.48220662,15.0571375 C8.04493957,13.8886908 7.60573152,11.8821059 8.42345256,10.2200679 C9.2411736,8.55802989 11.0988525,7.68153821 12.9015696,8.10719877 C14.7042867,8.53285933 15.9737154,10.1477288 15.9616519,12 L15.9616519,12 L15.9616519,13.6313276 C15.9953967,14.1942259 16.4617293,14.6334449 17.0256314,14.6334449 C17.5895335,14.6334449 18.0558662,14.1942259 18.089611,13.6313276 L18.089611,13.6313276 L18.089611,12 C18.089611,8.6367072 15.3631562,5.91021968 11.9999039,5.91021968 C8.63665148,5.91021968 5.91019672,8.6367072 5.91019672,12 C5.91019672,15.3632928 8.63665148,18.0897803 11.9999039,18.0897803 L11.9999039,18.0897803 L12.244409,18.0897803 C12.7718953,18.0897803 13.1995074,18.5173976 13.1995074,19.0448902 C13.1995074,19.5723828 12.7718953,20 12.244409,20 L12.244409,20 L11.9999039,20 C7.58167896,20 4,16.418278 4,12 C4,7.581722 7.58167896,4 11.9999039,4 Z M12.7849985,10.104591 C12.0183864,9.78704601 11.1359776,9.96257014 10.549238,10.5493167 C9.96249849,11.1360634 9.78697647,12.0184827 10.1045176,12.7851041 C10.4220588,13.5517255 11.1701288,14.0515759 11.9999039,14.0515759 C13.1329443,14.0515759 14.0514551,13.1330541 14.0514551,12 C14.0514551,11.170215 13.5516107,10.422136 12.7849985,10.104591 Z" id="Combined-Shape" fill="#002453"></path>
    </g>
</svg>