<?xml version="1.0" encoding="UTF-8"?>
<svg width="24px" height="24px" viewBox="0 0 24 24" version="1.1" xmlns="http://www.w3.org/2000/svg" xmlns:xlink="http://www.w3.org/1999/xlink">
    <!-- Generator: Sketch 63.1 (92452) - https://sketch.com -->
    <title>atoms/ico/24px/ico_entrega</title>
    <desc>Created with Sketch.</desc>
    <g id="atoms/ico/24px/ico_entrega" stroke="none" stroke-width="1" fill="none" fill-rule="evenodd">
        <path d="M7.11071742,1 C7.2950935,0.997717024 7.4722675,1.06933637 7.60324103,1.19940323 C7.70797228,1.30359107 7.77628547,1.43828631 7.79973245,1.58347439 L7.80877326,1.69402013 L7.83066883,7.09456259 L7.98779548,7.07008295 L8.14813038,7.06019919 L17.605194,6.93281536 C18.0614175,6.92662126 18.4911027,7.10050535 18.8152141,7.42270138 C19.0987187,7.70442479 19.2716062,8.06991512 19.3115245,8.46607722 L19.3204262,8.63758404 L19.3590985,18.202524 C19.3594373,18.2797189 19.347191,18.3541364 19.3245598,18.4239248 L19.2830993,18.5249042 L20.4347482,18.5093792 C20.8186355,18.5040168 21.1313358,18.8148046 21.1328691,19.2031759 C21.1342523,19.5562408 20.8782304,19.8520306 20.5431697,19.9067515 L20.4404587,19.9157518 L9.70341321,20.060443 C9.40265502,21.1799591 8.3940951,22.0152037 7.19551864,22.0313016 C6.8854226,22.0354031 6.58335347,21.9852964 6.30016887,21.8850155 C5.94618808,21.7596643 5.62140905,21.5560557 5.34658821,21.2828621 C4.85155877,20.7909513 4.57721596,20.1316078 4.57451834,19.4263993 C4.57165531,18.7211323 4.84049807,18.054464 5.33142245,17.5491811 C5.66157248,17.2093111 6.06594167,16.9705315 6.5072352,16.8472162 L6.48617599,16.751609 L6.47843551,16.651509 L6.42110843,2.41598552 L3.69806279,2.45273395 C3.31412894,2.45770208 3.00153455,2.14714072 3,1.75876933 C2.99846776,1.40565118 3.25456351,1.11004371 3.58968357,1.05523034 L3.69241171,1.04619344 L7.11071742,1 Z M7.59623329,18.2255681 C7.46621978,18.1795279 7.32603127,18.1553873 7.17996323,18.1573121 C6.85412997,18.1616969 6.54825369,18.2942395 6.31887356,18.5303791 C6.08932803,18.7664601 5.96377523,19.0779043 5.96508752,19.4074524 C5.96636109,19.7371683 6.09447076,20.045118 6.32592491,20.275185 C6.55727311,20.5050255 6.86397484,20.6293137 7.18986754,20.6247611 C7.86243791,20.6158376 8.40750256,20.0549188 8.40474343,19.3746208 C8.40268123,18.8421151 8.06534048,18.3916877 7.59623329,18.2255681 Z M17.8361022,8.4302692 C17.8081019,8.40252078 17.7542593,8.35993871 17.67514,8.34479712 L17.61107,8.33924656 L15.1375722,8.37255469 L15.146193,10.5329497 C15.1475817,10.8860146 14.8914232,11.181756 14.5563376,11.236468 L14.4536228,11.245467 L11.3341806,11.2876819 C11.2507774,11.2887505 11.1706073,11.2749068 11.0961721,11.2485479 C10.8624249,11.1657737 10.6864626,10.9592625 10.6452922,10.7052606 L10.6361248,10.5937173 L10.6274446,8.43349015 L8.15394686,8.46679828 C8.03929393,8.4683243 7.96426549,8.52827569 7.92964863,8.56400015 C7.90187034,8.59239855 7.85921704,8.64732661 7.84352704,8.72744758 L7.83745595,8.79280325 L7.86912105,16.6327884 C7.86933135,16.7010591 7.8595911,16.7669395 7.84186457,16.8296141 C8.67765321,17.0418327 9.35209698,17.6652562 9.64168069,18.4771269 L9.69776218,18.6539025 L18.0467704,18.5414237 C18.0137735,18.4776 17.9901728,18.4080359 17.9779724,18.3343929 L17.9684724,18.2210767 L17.9299656,8.65619528 C17.9294574,8.54040294 17.8709371,8.4648962 17.8361022,8.4302692 Z M12.8771608,12.4259321 C13.2262996,12.4211104 13.5163328,12.6774731 13.5673284,13.0159135 L13.575276,13.1197289 L13.5837668,15.2252942 L13.9476454,14.9053023 C14.2387932,14.6492869 14.6778041,14.6785575 14.9282917,14.970526 C15.0974063,15.1679384 15.1372998,15.4348259 15.0555538,15.6661949 C15.0260854,15.7494113 14.9808373,15.8281024 14.9202532,15.8972451 L14.8545735,15.963019 L13.3587201,17.2785739 C13.1642976,17.4496399 12.8999951,17.4952715 12.6699077,17.4137932 C12.6190711,17.3957911 12.5699335,17.3715898 12.5235667,17.3411212 L12.4562288,17.2907094 L10.9499654,16.0156563 C10.7221043,15.8227544 10.6493684,15.5119335 10.7447137,15.2426867 C10.7719976,15.1656392 10.8129901,15.0919349 10.868381,15.0254073 C11.0938834,14.7537191 11.4769732,14.6952078 11.7649558,14.8730822 L11.8482447,14.9335593 L12.1931172,15.2255143 L12.1847559,13.138508 C12.1843645,13.053927 12.1987929,12.9727049 12.2255419,12.8971681 C12.3217064,12.6261335 12.5767955,12.4298901 12.8771608,12.4259321 Z M13.7468867,8.39127523 L12.0179647,8.41471103 L12.023955,9.87181042 L13.7528176,9.84854248 L13.7468867,8.39127523 Z" id="Shape" fill="#002453"></path>
    </g>
</svg>