<?xml version="1.0" encoding="UTF-8"?>
<svg width="24px" height="24px" viewBox="0 0 24 24" version="1.1" xmlns="http://www.w3.org/2000/svg" xmlns:xlink="http://www.w3.org/1999/xlink">
    <!-- Generator: Sketch 63.1 (92452) - https://sketch.com -->
    <title>atoms/ico/input/ico_error</title>
    <desc>Created with Sketch.</desc>
    <g id="atoms/ico/input/ico_error" stroke="none" stroke-width="1" fill="none" fill-rule="evenodd">
        <path d="M12,3 C7.02943725,3 3,7.02943725 3,12 C3,16.9705627 7.02943725,21 12,21 C16.9705627,21 21,16.9705627 21,12 C21,9.61305159 20.0517884,7.32386638 18.363961,5.63603897 C16.6761336,3.94821156 14.3869484,3 12,3 Z M12,17.4 C11.4631792,17.4 11.028,16.9648208 11.028,16.428 C11.028,15.8911792 11.4631792,15.456 12,15.456 C12.5368208,15.456 12.972,15.8911792 12.972,16.428 C12.972,16.9648208 12.5368208,17.4 12,17.4 Z M12.972,13.188 C12.972,13.7248208 12.5368208,14.16 12,14.16 C11.4631792,14.16 11.028,13.7248208 11.028,13.188 L11.028,7.572 C11.028,7.03517922 11.4631792,6.6 12,6.6 C12.5368208,6.6 12.972,7.03517922 12.972,7.572 L12.972,13.188 Z" id="Shape" fill="#F32735"></path>
    </g>
</svg>