<?xml version="1.0" encoding="UTF-8"?>
<svg width="24px" height="24px" viewBox="0 0 24 24" version="1.1" xmlns="http://www.w3.org/2000/svg" xmlns:xlink="http://www.w3.org/1999/xlink">
    <!-- Generator: Sketch 63.1 (92452) - https://sketch.com -->
    <title>atoms/ico/24px/ico_favourite_off</title>
    <desc>Created with Sketch.</desc>
    <g id="atoms/ico/24px/ico_favourite_off" stroke="none" stroke-width="1" fill="none" fill-rule="evenodd">
        <path d="M15.4497562,3.67077361 C16.9237399,3.49129475 18.4040874,3.94195606 19.4318164,4.88056528 C20.4635402,5.82256454 21.0000625,7.2267107 21.0000625,8.8456875 C21.0000625,10.3935653 20.5216108,12.0875553 19.6163522,13.7436597 C18.4811586,15.9583772 16.0116522,18.1250793 12.7687767,20.1320267 L12.7225239,20.1689515 C12.2832305,20.441425 11.7191637,20.4417491 11.2962333,20.1802044 L11.2759134,20.1688349 C7.98804839,18.1254967 5.51857839,15.9583805 4.38662695,13.7495227 C3.47826852,12.0875284 2.9998125,10.3935405 2.9998125,8.8456875 C2.9998125,7.22673582 3.53634629,5.82257737 4.56803147,4.88059004 C6.60335695,3.02171997 9.98985334,3.28843782 11.9990886,5.67662241 C12.9510308,4.52984203 14.1650564,3.82734014 15.4497562,3.67077361 Z M18.0647704,12.9349104 L18.0741542,12.9174944 C18.845112,11.509402 19.2495,10.0774712 19.2495,8.84568125 C19.2495,7.68196917 18.9020586,6.76630991 18.2517906,6.17259956 C16.7914876,4.83903212 14.2863236,5.11219078 12.9496003,7.20025517 C12.7453175,7.52493194 12.3852332,7.72605625 11.9995,7.72605625 C11.6170653,7.72605625 11.2556834,7.52552173 11.0514912,7.20412495 C10.3551135,6.11374485 9.38243823,5.50580842 8.30657013,5.38814312 L8.33038103,5.3896023 L8.30610347,5.38813655 C7.34920771,5.28347165 6.38700189,5.58788439 5.74672746,6.17261616 C5.09648034,6.76631275 4.74903625,7.68197513 4.74903625,8.84568125 C4.74903625,10.0774963 5.15341885,11.5094245 5.92521485,12.9190282 L5.93624695,12.9396365 C6.81722748,14.6630898 9.18665343,16.7714428 11.9993008,18.5491501 C14.8106843,16.7730632 17.1813682,14.6633959 18.0647704,12.9349104 Z" id="Shape" fill="#002453"></path>
    </g>
</svg>