<?xml version="1.0" encoding="UTF-8"?>
<svg width="24px" height="24px" viewBox="0 0 24 24" version="1.1" xmlns="http://www.w3.org/2000/svg" xmlns:xlink="http://www.w3.org/1999/xlink">
    <!-- Generator: Sketch 63.1 (92452) - https://sketch.com -->
    <title>atoms/ico/24px/ico_favourite_on</title>
    <desc>Created with Sketch.</desc>
    <g id="atoms/ico/24px/ico_favourite_on" stroke="none" stroke-width="1" fill="none" fill-rule="evenodd">
        <path d="M15.48,3.9189375 C14.2,4.07493125 12.9569375,4.8115 11.99975,6.078375 C9.9899375,3.4168125 6.58575,3.376375 4.736625,5.0651875 C3.7280625,5.9860625 3.2498125,7.3483125 3.2498125,8.8456875 C3.2498125,10.3404375 3.71164375,11.99325 4.606,13.629625 C5.881625,16.118625 8.8541875,18.3694375 11.407875,19.9565 L11.4103125,19.95775 C11.7692937,20.1789813 12.2315625,20.1792875 12.59075,19.9565 L12.592,19.95525 C15.1456875,18.36875 18.118125,16.1185625 19.393875,13.629625 C20.28825,11.99325 20.7500625,10.3404375 20.7500625,8.8456875 C20.7500625,7.3483125 20.2718375,5.9860625 19.26325,5.0651875 C18.2945625,4.1805 16.8888125,3.7473125 15.4803125,3.9189375 L15.48,3.9189375 Z" id="Path" fill="#002453"></path>
    </g>
</svg>