<?xml version="1.0" encoding="UTF-8"?>
<svg width="24px" height="24px" viewBox="0 0 24 24" version="1.1" xmlns="http://www.w3.org/2000/svg" xmlns:xlink="http://www.w3.org/1999/xlink">
    <!-- Generator: Sketch 63.1 (92452) - https://sketch.com -->
    <title>atoms/ico/24px/ico_filter</title>
    <desc>Created with Sketch.</desc>
    <g id="atoms/ico/24px/ico_filter" stroke="none" stroke-width="1" fill="none" fill-rule="evenodd">
        <path d="M5.08105108,3 C5.49401553,3 5.82878936,3.33578644 5.82878936,3.75 L5.82878936,3.75 L5.82878936,11.47875 C6.74323288,11.7034055 7.50329566,12.3384764 7.88880831,13.2 C8.23003717,13.9463326 8.25832258,14.7988128 7.96732083,15.56625 C7.61267187,16.5170703 6.81199323,17.2303134 5.82878936,17.47125 L5.82878936,17.47125 L5.82878936,20.25 C5.82878936,20.6642136 5.49401553,21 5.08105108,21 C4.66808663,21 4.3333128,20.6642136 4.3333128,20.25 L4.3333128,20.25 L4.3333128,17.4675 C3.06163182,17.1484989 2.13047812,16.0572728 2.012559,14.7477908 C1.89463989,13.4383089 2.61578361,12.1973916 3.80989601,11.655 C3.9793066,11.5811038 4.15433655,11.520912 4.3333128,11.475 L4.3333128,11.475 L4.3333128,3.75 C4.3333128,3.33578644 4.66808663,3 5.08105108,3 Z M18.9142092,3 C19.3271737,3 19.6619475,3.33578644 19.6619475,3.75 L19.6619475,3.75 L19.6619475,11.47875 C20.576391,11.7034055 21.3364538,12.3384764 21.7219664,13.2 C22.0631953,13.9463326 22.0914807,14.7988128 21.800479,15.56625 C21.44583,16.5170703 20.6451514,17.2303134 19.6619475,17.47125 L19.6619475,17.47125 L19.6619475,20.25 C19.6619475,20.6642136 19.3271737,21 18.9142092,21 C18.5012448,21 18.1664709,20.6642136 18.1664709,20.25 L18.1664709,20.25 L18.1664709,17.4675 C16.8947899,17.1484989 15.9636362,16.0572728 15.8457171,14.7477908 C15.727798,13.4383089 16.4489417,12.1973916 17.6430541,11.655 C17.8124647,11.5811038 17.9874947,11.520912 18.1664709,11.475 L18.1664709,11.475 L18.1664709,3.75 C18.1664709,3.33578644 18.5012448,3 18.9142092,3 Z M11.9976301,3 C12.4105946,3 12.7453684,3.33578644 12.7453684,3.75 L12.7453684,3.75 L12.7453684,6.645 C12.8612679,6.675 12.9734286,6.70875 13.0855893,6.75 C14.2615423,7.18568493 15.0570087,8.29265408 15.0972415,9.5494104 C15.1374744,10.8061667 14.414449,11.9620423 13.2687852,12.4725 C13.1004713,12.5491964 12.9251917,12.6094741 12.7453684,12.6525 L12.7453684,12.6525 L12.7453684,20.25 C12.7453684,20.6642136 12.4105946,21 11.9976301,21 C11.5846657,21 11.2498919,20.6642136 11.2498919,20.25 L11.2498919,20.25 L11.2498919,12.65625 C11.1377311,12.62625 11.0218317,12.5925 10.9096709,12.55125 C10.1439052,12.2629817 9.52473372,11.6797401 9.18987291,10.93125 C8.8148162,10.0957533 8.82780103,9.13657318 9.22533624,8.31159871 C9.62287146,7.48662423 10.3641584,6.88052162 11.2498919,6.65625 L11.2498919,6.65625 L11.2498919,3.75 C11.2498919,3.33578644 11.5846657,3 11.9976301,3 Z M5.07731239,12.8812475 C4.85272926,12.8808497 4.63074927,12.9294747 4.42678009,13.02375 C3.77163582,13.321258 3.39739116,14.0230379 3.51432619,14.7347744 C3.63126122,15.4465109 4.21021863,15.9907352 4.92589459,16.0616593 C5.64157055,16.1325833 6.3155139,15.7125225 6.56905025,15.0375 L6.56905025,15.0375 C6.7237574,14.6411234 6.70624803,14.2020651 6.52792464,13.81875 C6.26968664,13.247814 5.70236575,12.8811665 5.07731239,12.8812475 Z M18.9104705,12.88125 C18.6859256,12.8812065 18.464021,12.9298151 18.2599382,13.02375 C17.6047939,13.321258 17.2305493,14.0230379 17.3474843,14.7347744 C17.4644193,15.4465109 18.0433768,15.9907352 18.7590527,16.0616593 C19.4747287,16.1325833 20.148672,15.7125225 20.4022084,15.0375 C20.5517897,14.6421214 20.5369746,14.2030793 20.3610828,13.81875 C20.1028448,13.247814 19.5355239,12.8811665 18.9104705,12.88125 Z M12.0088462,8.0625 C11.4694367,8.06287973 10.967056,8.33771888 10.6746791,8.79238745 C10.3823023,9.24705601 10.3398626,9.81945446 10.5619726,10.3125 C10.8265786,10.9001348 11.4181253,11.2699534 12.0606459,11.2494291 C12.7031665,11.2289048 13.2700539,10.8220817 13.4968454,10.21875 C13.642902,9.82187459 13.6240453,9.38280721 13.4445037,9 L13.4445037,9 L13.3742998,8.85997292 C13.1952274,8.54296034 12.9115248,8.29608339 12.5696499,8.16375 C12.3901752,8.09693011 12.200286,8.06264667 12.0088462,8.0625 Z" id="Combined-Shape" fill="#002453"></path>
    </g>
</svg>