<?xml version="1.0" encoding="UTF-8"?>
<svg width="24px" height="24px" viewBox="0 0 24 24" version="1.1" xmlns="http://www.w3.org/2000/svg" xmlns:xlink="http://www.w3.org/1999/xlink">
    <!-- Generator: Sketch 63.1 (92452) - https://sketch.com -->
    <title>atoms/ico/24px/ico_help</title>
    <desc>Created with Sketch.</desc>
    <g id="atoms/ico/24px/ico_help" stroke="none" stroke-width="1" fill="none" fill-rule="evenodd">
        <path d="M18.7567568,10.0000039 C20.5450811,10.0000039 22,11.3937126 22,13.1068 L22,13.1068 L22,15.7475767 C22,17.4606641 20.5450811,18.8543728 18.7567568,18.8543728 L18.7567568,18.8543728 L17.9459459,18.8543728 L17.9459459,18.8932078 C17.9459459,20.1780233 16.8547568,21.2233049 15.5135135,21.2233049 L15.5135135,21.2233049 L13.0405405,21.2233049 L13.0405405,21.1986835 C12.763973,21.6764699 12.2323243,22.0000039 11.6216216,22.0000039 C10.7260405,22.0000039 10,21.3045087 10,20.4466058 C10,19.5887029 10.7260405,18.8932078 11.6216216,18.8932078 C12.2323243,18.8932078 12.763973,19.2167417 13.0405405,19.6945282 L13.0405405,19.6945282 L13.0405405,19.6699068 L15.5135135,19.6699068 C15.9605946,19.6699068 16.3243243,19.3214796 16.3243243,18.8932078 L16.3243243,18.8932078 L16.3243243,10.7767029 C16.3243243,10.347732 16.6873243,10.0000039 17.1351351,10.0000039 L17.1351351,10.0000039 Z M12.0198193,2 C13.7816245,2 15.4702772,2.50910441 16.9031896,3.47225986 C18.3038899,4.41377262 19.3578888,5.71545244 19.9511717,7.23660325 C20.1011559,7.62119722 19.8940274,8.04825986 19.488577,8.1905522 C19.0830483,8.3327703 18.6327827,8.13635267 18.4827985,7.75179582 C17.4873529,5.19962877 14.8901062,3.48491879 12.0198193,3.48491879 C8.39256646,3.48491879 5.41131794,6.15777262 5.15001984,9.53596288 L5.15001984,9.53596288 L6.69679031,9.53596288 C7.12912986,9.53596288 7.4795887,9.86836195 7.4795887,10.2784223 L7.4795887,10.2784223 L7.4795887,17.2575406 C7.4795887,17.6676009 7.12912986,18 6.69679031,18 L6.69679031,18 L5.13119354,18 C3.40465342,18 2,16.6677309 2,15.0301624 L2,15.0301624 L2,12.5058005 C2,11.4085568 2.6311312,10.4490766 3.56665355,9.93492343 C3.58927642,7.82437123 4.46581491,5.84334107 6.04178376,4.34858469 C7.63857505,2.83407889 9.76164169,2 12.0198193,2 Z M18.7567568,11.5534019 L17.9459459,11.5534019 L17.9459459,17.3009748 L18.7567568,17.3009748 C19.6509189,17.3009748 20.3783784,16.6041204 20.3783784,15.7475767 L20.3783784,15.7475767 L20.3783784,13.1068 C20.3783784,12.2502563 19.6509189,11.5534019 18.7567568,11.5534019 L18.7567568,11.5534019 Z M5.91399193,11.0208817 L5.13119354,11.0208817 C4.26792348,11.0208817 3.56559677,11.6870162 3.56559677,12.5058005 L3.56559677,12.5058005 L3.56559677,15.0301624 C3.56559677,15.8489466 4.26792348,16.5150812 5.13119354,16.5150812 L5.13119354,16.5150812 L5.91399193,16.5150812 L5.91399193,11.0208817 Z" id="Combined-Shape" fill="#002453"></path>
    </g>
</svg>