<?xml version="1.0" encoding="UTF-8"?>
<svg width="24px" height="24px" viewBox="0 0 24 24" version="1.1" xmlns="http://www.w3.org/2000/svg" xmlns:xlink="http://www.w3.org/1999/xlink">
    <!-- Generator: Sketch 63.1 (92452) - https://sketch.com -->
    <title>ico_hobby</title>
    <desc>Created with Sketch.</desc>
    <g id="Menú" stroke="none" stroke-width="1" fill="none" fill-rule="evenodd">
        <g id="CORREOS_1440_Menu_particulares" transform="translate(-64.000000, -368.000000)" fill="#002453" fill-rule="nonzero">
            <path d="M87.2968758,383.5155 L85.7729714,383.5155 L86.1571584,382.874894 C86.91522,381.610743 86.0061743,380.002148 84.5303166,380.002148 C83.0553496,380.002148 82.1438195,381.611024 82.9044592,382.876487 L83.2885056,383.5155 L80.4765246,383.5155 L80.8607116,382.874894 C81.6187732,381.610743 80.7097274,380.002148 79.2338698,380.002148 C77.7589028,380.002148 76.8473727,381.611024 77.6080124,382.876487 L77.9920588,383.5155 L77.5452937,383.5155 C75.8652957,383.5155 74.498563,384.882356 74.498563,386.562437 L74.498563,389.164052 C74.498563,389.952412 73.8573137,390.593768 73.0690647,390.593768 C72.2808156,390.593768 71.6395664,389.952412 71.6395664,389.164052 L71.6395664,384.921779 L72.7257057,384.921779 C73.7441576,384.921779 74.2788132,383.705301 73.5872672,382.955473 L71.8984098,381.12389 L77.8219496,374.8577 C78.0947149,374.569226 78.0742306,374.112607 77.7783559,373.849399 C76.6879979,372.879442 71.4321447,368.2023 71.3935667,368.169206 C71.1215514,367.935764 70.7220362,367.947295 70.463099,368.182612 L64.2291533,373.854602 C63.941763,374.115842 63.9216537,374.565851 64.1860284,374.851982 L69.9865683,381.126374 L68.3424297,382.969817 C67.6683211,383.725645 68.2056486,384.921732 69.2170693,384.921732 L70.2331774,384.921732 L70.2331774,389.164005 C70.2331774,390.727787 71.5053165,392 73.0689709,392 C74.6326253,392 75.9047644,390.727787 75.9047644,389.164005 L75.9047644,386.56239 C75.9047644,385.657731 76.640701,384.921732 77.5452,384.921732 L77.9919651,384.921732 L77.6079186,385.560745 C76.8480758,386.824942 77.7572622,388.435084 79.2337761,388.435084 C80.7078056,388.435084 81.619617,386.828036 80.8606179,385.562339 L80.4764308,384.921732 L83.2884119,384.921732 L82.9043654,385.560745 C82.1445226,386.824942 83.053709,388.435084 84.5302229,388.435084 C86.0042524,388.435084 86.9160638,386.828036 86.1570647,385.562339 L85.7728777,384.921732 L87.2968758,384.921732 C87.6851879,384.921732 88,384.606913 88,384.218593 C88,383.830272 87.6851879,383.5155 87.2968758,383.5155 L87.2968758,383.5155 Z M84.5302698,381.408427 C84.9123006,381.408427 85.1471909,381.824544 84.9510661,382.151645 L84.5307385,382.852534 L84.1097546,382.152067 C83.9128799,381.824544 84.1486608,381.408427 84.5302698,381.408427 L84.5302698,381.408427 Z M79.2337761,381.408427 C79.6158069,381.408427 79.8506972,381.824544 79.6545724,382.151645 L79.2342448,382.852534 L78.8132609,382.152067 C78.6163862,381.824544 78.8521672,381.408427 79.2337761,381.408427 L79.2337761,381.408427 Z M71.6394726,373.671551 L71.6394726,370.26953 L75.4628274,373.671551 L71.6394726,373.671551 Z M75.6785459,375.07783 L71.6394726,379.350526 L71.6394726,375.07783 L75.6785459,375.07783 Z M70.2331774,373.671551 L66.5199787,373.671551 L70.2331305,370.293108 L70.2331305,373.671551 L70.2331774,373.671551 Z M70.2331774,375.07783 L70.2331774,379.321509 L66.3100258,375.07783 L70.2331774,375.07783 Z M70.9450203,382.164582 L72.1906282,383.5155 L69.7401468,383.5155 L70.9450203,382.164582 Z M79.2337761,387.028853 C78.8516515,387.028853 78.6166674,386.612266 78.8132609,386.285213 L79.2342917,385.584745 L79.6545724,386.285635 C79.8510253,386.613344 79.6151506,387.028853 79.2337761,387.028853 L79.2337761,387.028853 Z M84.5302698,387.028853 C84.1481452,387.028853 83.9131611,386.612266 84.1097546,386.285213 L84.5307854,385.584745 L84.9510661,386.285635 C85.147519,386.613344 84.9116443,387.028853 84.5302698,387.028853 L84.5302698,387.028853 Z" id="ico_hobby"></path>
        </g>
    </g>
</svg>