<?xml version="1.0" encoding="UTF-8"?>
<svg width="24px" height="24px" viewBox="0 0 24 24" version="1.1" xmlns="http://www.w3.org/2000/svg" xmlns:xlink="http://www.w3.org/1999/xlink">
    <!-- Generator: Sketch 63.1 (92452) - https://sketch.com -->
    <title>atoms/ico/24px/ico_home</title>
    <desc>Created with Sketch.</desc>
    <g id="atoms/ico/24px/ico_home" stroke="none" stroke-width="1" fill="none" fill-rule="evenodd">
        <path d="M7.24999271,3.9047619 C7.24999271,3.54285237 6.95868902,3.25 6.6,3.25 C6.24131098,3.25 5.95,3.54285237 5.95,3.9047619 L5.95,8.32386089 L5.86658015,8.51027724 L3.4686525,10.6530461 C3.19974731,10.8933375 3.17548965,11.3079038 3.41461867,11.5783473 C3.65307,11.8480244 4.06320543,11.8722777 4.33134742,11.6326683 L5.05,10.9904859 L5.05,21.0952381 C5.05,21.4571476 5.34131098,21.75 5.7,21.75 L18.3,21.75 C18.658689,21.75 18.95,21.4571476 18.95,21.0952381 L18.95,10.9904859 L19.6686525,11.6326682 C19.9367946,11.8722777 20.34693,11.8480244 20.5853813,11.5783473 C20.8245103,11.3079038 20.8002527,10.8933375 20.5313474,10.653046 L12.4313474,3.41495077 C12.1852235,3.19501641 11.8147765,3.19501641 11.5686526,3.41495078 L7.24999271,7.27406431 L7.24999271,3.9047619 Z M17.65,9.82897949 L17.65,20.4404762 L6.35,20.4404762 L6.35,9.82897949 C6.35,9.78526943 8.23333333,8.10228346 12,4.78002158 C15.7666667,8.10228346 17.65,9.78526943 17.65,9.82897949 Z" id="Shape" fill="#002453"></path>
    </g>
</svg>