<?xml version="1.0" encoding="UTF-8"?>
<svg width="24px" height="24px" viewBox="0 0 24 24" version="1.1" xmlns="http://www.w3.org/2000/svg" xmlns:xlink="http://www.w3.org/1999/xlink">
    <!-- Generator: Sketch 63.1 (92452) - https://sketch.com -->
    <title>atoms/ico/24px/ico_info</title>
    <desc>Created with Sketch.</desc>
    <g id="atoms/ico/24px/ico_info" stroke="none" stroke-width="1" fill="none" fill-rule="evenodd">
        <path d="M11.8940625,8.92857143 L11.8940625,8.92857143 C11.2378125,8.92857143 10.5925,8.92857143 9.9428125,8.92857143 C9.80083742,8.92985263 9.65964196,8.94930302 9.5228125,8.98642857 C9.35579189,9.02059288 9.22827224,9.15321047 9.2034375,9.31857143 C9.1572368,9.498229 9.2495072,9.68442691 9.4221875,9.76 C9.63239718,9.85630137 9.85820823,9.91577225 10.089375,9.93571429 C10.6975,9.96357143 10.9425,10.225 10.850625,10.8378571 C10.68,11.9842857 10.4503125,13.1221429 10.2534375,14.2664286 C10.12,15.0378571 10.0084375,15.8114286 9.879375,16.5828571 C9.7065625,17.6221429 10.6953125,18.5971429 11.480625,18.7257143 C11.9458254,18.7895836 12.4152849,18.8189528 12.885,18.8135714 C13.8915738,18.8123598 14.8530898,18.4045936 15.5428125,17.6864286 C15.6680828,17.573349 15.7621418,17.4310856 15.81625,17.2728571 C15.8426708,17.1346365 15.8094043,16.9918716 15.724375,16.8785714 C15.6216243,16.8155686 15.4950734,16.8021453 15.3809375,16.8421429 C15.2015625,16.9 15.041875,17.02 14.866875,17.095 C14.6623474,17.1884867 14.4482179,17.2603222 14.228125,17.3092857 C14.0506293,17.3519469 13.8629634,17.3161658 13.714759,17.2114054 C13.5665546,17.106645 13.4727396,16.9434572 13.458125,16.765 C13.4213123,16.5656107 13.4146786,16.3619973 13.4384375,16.1607143 C13.5128125,15.6635714 13.6178125,15.1707143 13.7096875,14.6778571 C13.9590625,13.3335714 14.2120833,11.9885714 14.46875,10.6428571 C14.53875,10.2742857 14.656875,9.91214286 14.578125,9.52428571 C14.5658973,9.35200117 14.4834202,9.19178169 14.3492744,9.07972206 C14.2151287,8.96766242 14.0405976,8.91318816 13.865,8.92857143 C13.20875,8.92857143 12.5503125,8.92857143 11.8940625,8.92857143 Z M13.0840625,4.16285714 C12.2775072,4.12820716 11.5297848,4.57523435 11.1924683,5.29375019 C10.8551517,6.01226603 10.9953591,6.85930266 11.5471661,7.4365904 C12.098973,8.01387815 12.9525829,8.20655024 13.7066353,7.92401384 C14.4606876,7.64147744 14.9651438,6.93995069 14.9828125,6.14928571 C15.0135401,5.08968029 14.1655106,4.20440546 13.0840625,4.16714286 L13.0840625,4.16285714 Z" id="Shape" fill="#002453"></path>
    </g>
</svg>