<?xml version="1.0" encoding="UTF-8"?>
<svg width="24px" height="24px" viewBox="0 0 24 24" version="1.1" xmlns="http://www.w3.org/2000/svg" xmlns:xlink="http://www.w3.org/1999/xlink">
    <!-- Generator: Sketch 63.1 (92452) - https://sketch.com -->
    <title>atoms/ico/24px/ico_instagram</title>
    <desc>Created with Sketch.</desc>
    <g id="atoms/ico/24px/ico_instagram" stroke="none" stroke-width="1" fill="none" fill-rule="evenodd">
        <path d="M15.5844838,4 L8.41532692,4 C5.98071713,4 4,5.98081177 4,8.41542156 L4,15.5845784 C4,18.0192829 5.98071713,20 8.41532692,20 L15.5844838,20 C18.0192829,20 20,18.0191882 20,15.5845784 L20,8.41542156 C20,5.98081177 18.0192829,4 15.5844838,4 Z M15.5844838,5.41959754 C17.2364221,5.41959754 18.5804971,6.76357786 18.5804971,8.41542156 L18.5804971,15.5845784 C18.5804971,17.2365168 17.2365168,18.5804025 15.5845784,18.5804025 L8.41532692,18.5804025 C6.76348322,18.5804025 5.41959754,17.2365168 5.41959754,15.5845784 L5.41959754,8.41542156 C5.41959754,6.76357786 6.76348322,5.41959754 8.41532692,5.41959754 L15.5844838,5.41959754 Z M12,7.80952381 C9.68933663,7.80952381 7.80952381,9.68937978 7.80952381,12.0000962 C7.80952381,14.3107164 9.68933663,16.1904762 12,16.1904762 C14.3106634,16.1904762 16.1904762,14.3107164 16.1904762,12.0000962 C16.1904762,9.68937978 14.3106634,7.80952381 12,7.80952381 Z M12,9.25236281 C13.5150472,9.25236281 14.7475741,10.484918 14.7475741,12 C14.7475741,13.5149858 13.514951,14.7474448 12,14.7474448 C10.485049,14.7474448 9.25242588,13.5149858 9.25242588,12 C9.25242588,10.484918 10.4849528,9.25236281 12,9.25236281 Z M16.5714286,6.28571429 C16.2711688,6.28571429 15.9762078,6.40727273 15.7641558,6.62025974 C15.5510649,6.83220779 15.4285714,7.12727273 15.4285714,7.42857143 C15.4285714,7.72893506 15.5511688,8.0238961 15.7641558,8.23688312 C15.9761039,8.44883117 16.2711688,8.57142857 16.5714286,8.57142857 C16.8727273,8.57142857 17.1667532,8.44883117 17.3797403,8.23688312 C17.5927273,8.0238961 17.7142857,7.72883117 17.7142857,7.42857143 C17.7142857,7.12727273 17.5927273,6.83220779 17.3797403,6.62025974 C17.1677922,6.40727273 16.8727273,6.28571429 16.5714286,6.28571429 Z" id="Mask" fill="#002453"></path>
    </g>
</svg>