<?xml version="1.0" encoding="UTF-8"?>
<svg width="24px" height="24px" viewBox="0 0 24 24" version="1.1" xmlns="http://www.w3.org/2000/svg" xmlns:xlink="http://www.w3.org/1999/xlink">
    <!-- Generator: Sketch 63.1 (92452) - https://sketch.com -->
    <title>atoms/ico/24px/ico_ko</title>
    <desc>Created with Sketch.</desc>
    <g id="atoms/ico/24px/ico_ko" stroke="none" stroke-width="1" fill="none" fill-rule="evenodd">
        <path d="M9.25855752,16.1982792 C8.85626316,16.6005736 8.20401513,16.6005736 7.80172077,16.1982792 C7.39942641,15.7959849 7.39942641,15.1437368 7.80172077,14.7414425 L10.5431633,12 L7.80172077,9.25855752 C7.39942641,8.85626316 7.39942641,8.20401513 7.80172077,7.80172077 C8.20401513,7.39942641 8.85626316,7.39942641 9.25855752,7.80172077 L12,10.5431633 L14.7414425,7.80172077 C15.1437368,7.39942641 15.7959849,7.39942641 16.1982792,7.80172077 C16.6005736,8.20401513 16.6005736,8.85626316 16.1982792,9.25855752 L13.4568367,12 L16.1982792,14.7414425 C16.6005736,15.1437368 16.6005736,15.7959849 16.1982792,16.1982792 C15.7959849,16.6005736 15.1437368,16.6005736 14.7414425,16.1982792 L12,13.4568367 L9.25855752,16.1982792 Z" id="Path" fill="#002453"></path>
    </g>
</svg>