<?xml version="1.0" encoding="UTF-8"?>
<svg width="24px" height="24px" viewBox="0 0 24 24" version="1.1" xmlns="http://www.w3.org/2000/svg" xmlns:xlink="http://www.w3.org/1999/xlink">
    <!-- Generator: Sketch 63.1 (92452) - https://sketch.com -->
    <title>atoms/ico/24px/ico_language</title>
    <desc>Created with Sketch.</desc>
    <g id="atoms/ico/24px/ico_language" stroke="none" stroke-width="1" fill="none" fill-rule="evenodd">
        <path d="M18.3845312,15.0174063 L15.9839688,15.0174063 C16.2571563,14.2012813 16.416125,13.347625 16.4575938,12.46875 L19.0465937,12.46875 C18.986875,13.3752813 18.7555312,14.2355625 18.3845312,15.0174063 L18.3845312,15.0174063 Z M13.51725,18.897875 C13.7855938,18.6368438 14.075625,18.3257813 14.3658125,17.9637188 C14.867625,17.3375625 15.2854687,16.663625 15.6122812,15.9549063 L17.8485625,15.9549063 C16.8497187,17.42725 15.3099375,18.503875 13.51725,18.897875 L13.51725,18.897875 Z M12.46875,18.5863438 L12.46875,15.9549063 L14.570375,15.9549063 C14.3158438,16.4380938 14.0112187,16.9034063 13.6565313,17.3494688 C13.2346875,17.8800625 12.8098125,18.2923125 12.46875,18.5863438 L12.46875,18.5863438 Z M12.46875,12.46875 L15.518875,12.46875 C15.473375,13.3590938 15.2976563,14.2102188 14.9927813,15.0174063 L12.46875,15.0174063 L12.46875,12.46875 Z M12.46875,8.98259375 L14.9932187,8.98259375 C15.2979375,9.789625 15.4734375,10.6408125 15.5189375,11.53125 L12.46875,11.53125 L12.46875,8.98259375 Z M12.46875,5.4123125 C12.8025937,5.70015625 13.2176875,6.1028125 13.6342188,6.6225625 C13.9985,7.077125 14.3104688,7.55178125 14.5704062,8.04509375 L12.46875,8.04509375 L12.46875,5.4123125 Z M17.8485312,8.04509375 L15.61225,8.04509375 C15.2854375,7.33640625 14.8675937,6.6624375 14.3657812,6.03628125 C14.075625,5.67421875 13.7855938,5.36315625 13.5172187,5.102125 C15.3099375,5.496125 16.8497187,6.57275 17.8485312,8.04509375 L17.8485312,8.04509375 Z M19.0465937,11.53125 L16.4575938,11.53125 C16.416125,10.652375 16.2572187,9.79871875 15.9839688,8.98259375 L18.3845312,8.98259375 C18.7555312,9.7644375 18.986875,10.6247188 19.0465937,11.53125 L19.0465937,11.53125 Z M11.53125,8.04509375 L9.429625,8.04509375 C9.6841875,7.56190625 9.9888125,7.096625 10.3435,6.6505 C10.7653437,6.11990625 11.1902187,5.707625 11.53125,5.413625 L11.53125,8.04509375 Z M11.53125,11.53125 L8.48109375,11.53125 C8.526625,10.6409375 8.70234375,9.78978125 9.0071875,8.98259375 L11.53125,8.98259375 L11.53125,11.53125 Z M11.53125,15.0174063 L9.0068125,15.0174063 C8.70209375,14.210375 8.52659375,13.3591875 8.48109375,12.46875 L11.53125,12.46875 L11.53125,15.0174063 Z M11.53125,18.5876875 C11.1974063,18.2998437 10.7823125,17.8971875 10.3657812,17.3774375 C10.0015,16.9229062 9.68953125,16.4482188 9.429625,15.9549063 L11.53125,15.9549063 L11.53125,18.5876875 Z M6.1515,15.9549063 L8.38778125,15.9549063 C8.71459375,16.6635938 9.13240625,17.3375625 9.63421875,17.9637188 C9.924375,18.3257813 10.2144062,18.6368438 10.4828125,18.897875 C8.69009375,18.503875 7.15034375,17.42725 6.1515,15.9549063 L6.1515,15.9549063 Z M4.9534375,12.46875 L7.54240625,12.46875 C7.58390625,13.347625 7.7428125,14.2012813 8.0160625,15.0174063 L5.61546875,15.0174063 C5.2445,14.2355625 5.01315625,13.3752813 4.9534375,12.46875 L4.9534375,12.46875 Z M5.61546875,8.98259375 L8.0160625,8.98259375 C7.74284375,9.79871875 7.58390625,10.652375 7.54240625,11.53125 L4.9534375,11.53125 C5.01315625,10.6247188 5.2445,9.7644375 5.61546875,8.98259375 L5.61546875,8.98259375 Z M10.4828125,5.102125 C10.2144375,5.36315625 9.92440625,5.67421875 9.63421875,6.03628125 C9.13240625,6.6624375 8.71459375,7.336375 8.38778125,8.04509375 L6.1515,8.04509375 C7.15034375,6.57275 8.69009375,5.496125 10.4828125,5.102125 L10.4828125,5.102125 Z M17.656875,6.343125 C16.1458437,4.83215625 14.136875,4 12,4 C9.863125,4 7.85415625,4.83215625 6.343125,6.343125 C4.83215625,7.854125 4,9.863125 4,12 C4,14.136875 4.83215625,16.145875 6.343125,17.656875 C7.85415625,19.1678438 9.863125,20 12,20 C14.136875,20 16.1458437,19.1678438 17.656875,17.656875 C19.1678437,16.145875 20,14.136875 20,12 C20,9.863125 19.1678437,7.854125 17.656875,6.343125 L17.656875,6.343125 Z" id="Fill-1" fill="#002453"></path>
    </g>
</svg>