<?xml version="1.0" encoding="UTF-8"?>
<svg width="24px" height="24px" viewBox="0 0 24 24" version="1.1" xmlns="http://www.w3.org/2000/svg" xmlns:xlink="http://www.w3.org/1999/xlink">
    <!-- Generator: Sketch 63.1 (92452) - https://sketch.com -->
    <title>atoms/ico/24px/ico_legal</title>
    <desc>Created with Sketch.</desc>
    <g id="atoms/ico/24px/ico_legal" stroke="none" stroke-width="1" fill="none" fill-rule="evenodd">
        <path d="M19.3,20.1155556 C19.3,20.7666389 18.7947106,21.3 18.17,21.3 L6.13,21.3 C5.50528942,21.3 5,20.7666389 5,20.1155556 L5,3.18444444 C5,2.53336106 5.50528942,2 6.13,2 L18.17,2 C18.7947106,2 19.3,2.53336106 19.3,3.18444444 L19.3,20.1155556 Z M18,19.9444444 L18,3.35555556 L6.3,3.35555556 L6.3,19.9444444 L18,19.9444444 Z M8.47777778,6.32777778 L15.8222222,6.32777778 C16.1965486,6.32777778 16.5,6.63122923 16.5,7.00555556 C16.5,7.37988189 16.1965486,7.68333333 15.8222222,7.68333333 L8.47777778,7.68333333 C8.10345145,7.68333333 7.8,7.37988189 7.8,7.00555556 C7.8,6.63122923 8.10345145,6.32777778 8.47777778,6.32777778 Z M8.47777778,9.81111111 L15.8222222,9.81111111 C16.1965486,9.81111111 16.5,10.1145626 16.5,10.4888889 C16.5,10.8632152 16.1965486,11.1666667 15.8222222,11.1666667 L8.47777778,11.1666667 C8.10345145,11.1666667 7.8,10.8632152 7.8,10.4888889 C7.8,10.1145626 8.10345145,9.81111111 8.47777778,9.81111111 Z M13.0643398,14.8909189 C13.2719041,14.6764849 13.7233505,14.5793091 13.9377845,14.7868734 C13.9494717,14.7984178 13.9494717,14.7984178 13.9606815,14.8104263 C14.1715328,15.0409404 14.1669403,15.3956313 13.9501912,15.6206088 L11.7286738,17.9045679 L11.6302101,17.8208798 L10.4022472,16.7266994 C10.167741,16.5177418 10.1371605,16.1620481 10.3325591,15.9161298 C10.5204037,15.6797185 10.864331,15.6403474 11.1007422,15.828192 L11.122551,15.8464662 L11.6818898,16.3404854 L13.0643398,14.8909189 Z" id="Combined-Shape" fill="#002453"></path>
    </g>
</svg>