<?xml version="1.0" encoding="UTF-8"?>
<svg width="24px" height="24px" viewBox="0 0 24 24" version="1.1" xmlns="http://www.w3.org/2000/svg" xmlns:xlink="http://www.w3.org/1999/xlink">
    <!-- Generator: Sketch 63.1 (92452) - https://sketch.com -->
    <title>atoms/ico/24px/ico_linkedin</title>
    <desc>Created with Sketch.</desc>
    <g id="atoms/ico/24px/ico_linkedin" stroke="none" stroke-width="1" fill="none" fill-rule="evenodd">
        <path d="M15.52275,8.41816758 C18.45925,8.41816758 19,10.3530934 19,12.8649176 L19,12.8649176 L19,17.9994176 L16.10025,17.9999918 L16.1000856,13.3277517 C16.0966001,12.2638864 16.0230302,10.974316 14.5911758,10.974316 C13.0820742,10.974316 12.8510742,12.1526676 12.8510742,13.3712418 L12.8510742,13.3712418 L12.8510742,17.9994176 L9.95192578,17.9994176 L9.95192578,8.65266758 L12.7361758,8.65266758 L12.7361758,9.9272418 L12.777,9.9272418 C13.16375,9.19284336 14.1110742,8.41816758 15.52275,8.41816758 Z M8.13364844,8.65325 L8.13364844,18 L5.231,18 L5.231,8.65325 L8.13364844,8.65325 Z M6.68115937,4.00000273 C7.60865937,4.00000273 8.36173359,4.75307695 8.36233516,5.68115117 C8.36233516,6.60925273 7.60923359,7.37807695 6.68115937,7.37807695 C5.75308516,7.37807695 5.00001094,6.60925273 5.00001094,5.68115117 C5.00001094,4.75307695 5.75308516,4.00000273 6.68115937,4.00000273 Z" id="Combined-Shape" fill="#002453"></path>
    </g>
</svg>