<?xml version="1.0" encoding="UTF-8"?>
<svg width="24px" height="24px" viewBox="0 0 24 24" version="1.1" xmlns="http://www.w3.org/2000/svg" xmlns:xlink="http://www.w3.org/1999/xlink">
    <!-- Generator: Sketch 63.1 (92452) - https://sketch.com -->
    <title>atoms/ico/24px/ico_location</title>
    <desc>Created with Sketch.</desc>
    <g id="atoms/ico/24px/ico_location" stroke="none" stroke-width="1" fill="none" fill-rule="evenodd">
        <path d="M12,2 C12.3633134,2 12.657837,2.30091271 12.657837,2.67210734 L12.657837,2.67210734 L12.6574655,4.48263262 C16.2917813,4.79656771 19.1933761,7.68865729 19.5167312,11.3270455 L21.342163,11.3278927 C21.7054763,11.3278927 22,11.6288054 22,12 C22,12.3711946 21.7054763,12.6721073 21.342163,12.6721073 L21.342163,12.6721073 L19.5175913,12.6728386 C19.198558,16.3158087 16.2950268,19.2127855 12.6574655,19.5270009 L12.657837,21.3278927 C12.657837,21.6990873 12.3633134,22 12,22 C11.6366866,22 11.342163,21.6990873 11.342163,21.3278927 L11.342163,21.3278927 L11.3425345,19.5270009 C7.70497318,19.2127855 4.80144202,16.3158087 4.48240868,12.6728386 L2.65783703,12.6721073 C2.29452367,12.6721073 2,12.3711946 2,12 C2,11.6288054 2.29452367,11.3278927 2.65783703,11.3278927 L2.65783703,11.3278927 L4.48326881,11.3270455 C4.80662388,7.68865729 7.70821875,4.79656771 11.3425345,4.48263262 L11.342163,2.67210734 C11.342163,2.30091271 11.6366866,2 12,2 Z M12,5.79857758 C8.55535405,5.79857758 5.76896763,8.58070774 5.76896763,12.0048168 L5.769,11.946 L5.77335321,12 C5.77335321,12.0188972 5.77258989,12.0376122 5.77109302,12.0561147 C5.79668482,15.4565157 8.57247656,18.211056 12,18.211056 L11.903,18.209 L12,18.2018603 C12.032688,18.2018603 12.0648191,18.2042962 12.096229,18.209 C15.4965449,18.1589365 18.2310324,15.3968874 18.2310324,12.0048168 L18.23,12.055 L18.2266468,12 C18.2266468,11.9819345 18.2273444,11.9640355 18.2287136,11.9463295 C18.1993694,8.54920398 15.4250875,5.79857758 12,5.79857758 Z M11.8355407,9.63545509 C13.063589,9.63545509 14.0651697,10.6355059 14.0651697,11.8769534 C14.0651697,13.118401 13.063589,14.1184518 11.8355407,14.1184518 C10.6074925,14.1184518 9.60591176,13.118401 9.60591176,11.8769534 C9.60591176,10.6355059 10.6074925,9.63545509 11.8355407,9.63545509 Z M11.8355407,10.9796698 C11.3274356,10.9796698 10.9215858,11.3848996 10.9215858,11.8769534 C10.9215858,12.3690073 11.3274356,12.7742371 11.8355407,12.7742371 C12.3436459,12.7742371 12.7494957,12.3690073 12.7494957,11.8769534 C12.7494957,11.3848996 12.3436459,10.9796698 11.8355407,10.9796698 Z" id="Combined-Shape" fill="#002453"></path>
    </g>
</svg>