<?xml version="1.0" encoding="UTF-8"?>
<svg width="24px" height="24px" viewBox="0 0 24 24" version="1.1" xmlns="http://www.w3.org/2000/svg" xmlns:xlink="http://www.w3.org/1999/xlink">
    <!-- Generator: Sketch 63.1 (92452) - https://sketch.com -->
    <title>atoms/ico/24px/ico_log_out</title>
    <desc>Created with Sketch.</desc>
    <g id="atoms/ico/24px/ico_log_out" stroke="none" stroke-width="1" fill="none" fill-rule="evenodd">
        <path d="M12.8353821,3 C13.2219814,3 13.5353821,3.31340068 13.5353821,3.7 C13.5353821,4.08659932 13.2219814,4.4 12.8353821,4.4 L12.8353821,4.4 L5.7,4.4 C4.98202983,4.4 4.4,4.98202983 4.4,5.7 L4.4,5.7 L4.4,18.9275342 C4.4,19.6455044 4.98202983,20.2275342 5.7,20.2275342 L5.7,20.2275342 L12.8353821,20.2275342 C13.2219814,20.2275342 13.5353821,20.5409349 13.5353821,20.9275342 C13.5353821,21.3141335 13.2219814,21.6275342 12.8353821,21.6275342 L12.8353821,21.6275342 L5.7,21.6275342 C4.20883118,21.6275342 3,20.418703 3,18.9275342 L3,18.9275342 L3,5.7 C3,4.20883118 4.20883118,3 5.7,3 L5.7,3 Z M16.8979423,7.0186141 L16.9839895,7.09325982 L21.4169638,11.6129199 C21.6508462,11.8513759 21.6806545,12.2168098 21.502224,12.4876434 L21.435029,12.5741136 L17.0020547,17.4472901 C16.7419094,17.7332682 16.2991889,17.7542099 16.0132108,17.4940646 C15.7558305,17.2599339 15.7131297,16.8779173 15.8968092,16.5953772 L15.9664363,16.5052208 L19.3512455,12.7834187 L9.48424546,12.7834189 C9.12986274,12.7834189 8.83698723,12.5200753 8.79063563,12.1784047 L8.78424546,12.0834189 C8.78424546,11.7290362 9.04758908,11.4361607 9.3892596,11.3898091 L9.48424546,11.3834189 L19.2312455,11.3834187 L15.9845014,8.07357796 C15.7408648,7.82517706 15.7199771,7.44134925 15.9194407,7.16972202 L15.9940864,7.08367487 C16.2424873,6.84003823 16.6263151,6.81915054 16.8979423,7.0186141 Z" id="Combined-Shape" fill="#002453"></path>
    </g>
</svg>