<?xml version="1.0" encoding="UTF-8"?>
<svg width="24px" height="24px" viewBox="0 0 24 24" version="1.1" xmlns="http://www.w3.org/2000/svg" xmlns:xlink="http://www.w3.org/1999/xlink">
    <!-- Generator: Sketch 63.1 (92452) - https://sketch.com -->
    <title>atoms/ico/24px/ico_map</title>
    <desc>Created with Sketch.</desc>
    <g id="atoms/ico/24px/ico_map" stroke="none" stroke-width="1" fill="none" fill-rule="evenodd">
        <path d="M12,2.5 C15.28456,2.5 17.9602182,5.11015069 17.9602182,8.32445503 C17.9602182,9.66322447 17.2835791,11.3107333 16.1234451,13.1671429 L18.3219124,13.1671429 C19.017643,13.1671429 19.6909458,13.6623496 19.8834126,14.3213773 L20.7028493,17.11873 L21.4346875,19.6176824 C21.571206,20.0850949 21.4925924,20.5673646 21.2093222,20.9343429 C20.9282771,21.2968712 20.4814261,21.5 19.9918885,21.5 L4.00830275,21.5 C3.51831847,21.5 3.07090407,21.2965331 2.79054263,20.9335192 C2.50738839,20.5673803 2.42867743,20.0845911 2.56550374,19.6176824 L3.29733964,17.1187379 L4.11648385,14.3214796 C4.30910627,13.6622046 4.98228614,13.1669418 5.67807274,13.1669418 L7.87656366,13.1669418 C6.71644545,11.3104829 6.03976693,9.66301022 6.03976693,8.32445503 C6.03976693,5.11015069 8.71542519,2.5 12,2.5 Z M8.91838424,14.711873 L5.67827884,14.711873 C5.67475081,14.711873 5.61677451,14.7544999 5.61783376,14.7508812 L4.7986068,17.5484223 L4.09368537,19.9552698 L19.9064982,19.9552698 L19.2013733,17.548405 L18.3819753,14.7502781 C18.3831365,14.7542641 18.3254756,14.711873 18.3219124,14.711873 L15.081807,14.711873 C14.3714814,15.6975864 13.7136612,16.5021916 13.2133499,17.0679818 C12.8981466,17.4223256 12.4650292,17.6209841 11.9999926,17.6209841 C11.5351237,17.6209841 11.1020192,17.4222969 10.7859544,17.0669817 C10.286477,16.5021317 9.62870674,15.6975829 8.91838424,14.711873 Z M11.9999926,4.04473016 C9.57351236,4.04473016 7.60298656,5.96722411 7.60298656,8.32445503 C7.60298656,9.49866782 8.4049337,11.2092852 9.74361688,13.1711979 C10.5685931,14.3802453 11.4541281,15.4809088 11.9609989,16.0483185 C11.9871043,16.0777217 12.0126901,16.0777124 12.0396988,16.047287 C12.5444019,15.4823072 13.4312271,14.379826 14.2562561,13.1706081 C15.5949992,11.2084565 16.3969986,9.49795258 16.3969986,8.32445503 C16.3969986,5.96722411 14.4264728,4.04473016 11.9999926,4.04473016 Z M11.9999926,5.60896296 C13.5273993,5.60896296 14.7733936,6.82436555 14.7733936,8.32445503 C14.7733936,9.82440648 13.5273342,11.0399471 11.9999926,11.0399471 C10.4726509,11.0399471 9.2265916,9.82440648 9.2265916,8.32445503 C9.2265916,6.82436555 10.4725859,5.60896296 11.9999926,5.60896296 Z M11.9999926,7.15369312 C11.3307006,7.15369312 10.7896051,7.68161347 10.7896051,8.32445503 C10.7896051,8.96724057 11.3306444,9.49501587 11.9999926,9.49501587 C12.6693407,9.49501587 13.21038,8.96724057 13.21038,8.32445503 C13.21038,7.68161347 12.6692846,7.15369312 11.9999926,7.15369312 Z" id="Combined-Shape" fill="#002453"></path>
    </g>
</svg>