<?xml version="1.0" encoding="UTF-8"?>
<svg width="24px" height="24px" viewBox="0 0 24 24" version="1.1" xmlns="http://www.w3.org/2000/svg" xmlns:xlink="http://www.w3.org/1999/xlink">
    <!-- Generator: Sketch 63.1 (92452) - https://sketch.com -->
    <title>ico_money</title>
    <desc>Created with Sketch.</desc>
    <g id="Menú" stroke="none" stroke-width="1" fill="none" fill-rule="evenodd">
        <g id="CORREOS_1440_Menu_particulares" transform="translate(-64.000000, -312.000000)" fill="#002453" fill-rule="nonzero">
            <path d="M78.181781,316.558514 L78.181781,314.690144 C78.181781,311.103285 64,311.103285 64,314.690144 L64,325.618294 C64,327.028328 66.2071957,327.907311 68.8624988,328.219805 C67.8912672,328.655385 67.2727226,329.24376 67.2727226,329.989533 L67.2727226,333.267988 C67.2727226,335.061443 70.8399903,336 74.3636387,336 C77.8872871,336 81.4545548,335.061392 81.4545548,333.267988 L81.4545548,331.619709 C84.7914023,331.527971 88,330.597596 88,328.896749 L88,319.061434 C88,316.797014 82.3495933,315.963849 78.181781,316.558514 Z M71.0909161,313.090905 C74.9730299,313.090905 77.0908905,314.171672 77.0908905,314.727269 C77.0908905,315.282866 74.9729787,316.363633 71.0909161,316.363633 C67.2088534,316.363633 65.0909416,315.282866 65.0909416,314.727269 C65.0909416,314.171723 67.2088023,313.090905 71.0909161,313.090905 Z M65.0908905,316.24515 C66.4144511,317.041752 68.7588966,317.454576 71.0908649,317.454576 C73.4228332,317.454576 75.7673299,317.041752 77.0908905,316.24515 L77.0908905,316.787195 C75.1953193,317.207588 73.8181679,317.975298 73.8181679,319.09094 L73.8181679,319.413662 C72.9633225,319.55081 72.0405681,319.636361 71.0909161,319.636361 C67.2088023,319.636361 65.0908905,318.555593 65.0908905,317.999997 L65.0908905,316.24515 L65.0908905,316.24515 Z M74.9090584,327.154226 C75.012865,327.216663 75.1208649,327.277362 75.2367909,327.335044 C75.1276149,327.330493 75.0186434,327.326044 74.9090584,327.32318 L74.9090584,327.154226 Z M65.0908905,319.517878 C66.4144511,320.31448 68.7588966,320.727304 71.0908649,320.727304 C72.0350454,320.727304 72.9527884,320.64252 73.8181167,320.513247 L73.8181167,323.231861 C72.9632714,323.369009 72.040517,323.45456 71.0908649,323.45456 C67.2087511,323.45456 65.0908905,322.373793 65.0908905,321.818196 L65.0908905,319.517878 Z M65.0908905,325.636396 L65.0908905,323.336077 C66.4144511,324.13268 68.7588966,324.545504 71.0908649,324.545504 C72.0350454,324.545504 72.9527884,324.46072 73.8181167,324.331447 L73.8181167,327.050061 C72.9632714,327.187209 72.040517,327.27276 71.0908649,327.27276 C67.2088023,327.27276 65.0908905,326.191941 65.0908905,325.636396 Z M80.3636131,333.272744 C80.3636131,333.828341 78.2457014,334.909108 74.3636387,334.909108 C70.481576,334.909108 68.3636131,333.828341 68.3636131,333.272744 L68.3636131,331.517846 C69.6871737,332.314448 72.0316193,332.727272 74.3635876,332.727272 C76.5957889,332.727272 78.8424619,332.349988 80.1916418,331.619198 C80.2483008,331.621346 80.3066473,331.621601 80.3636131,331.62334 L80.3636131,333.272744 L80.3636131,333.272744 Z M74.3636387,331.63638 C70.4815249,331.63638 68.3636643,330.555613 68.3636643,330.000016 C68.3636643,329.444419 70.481576,328.363652 74.3636387,328.363652 C78.2457014,328.363652 80.3636131,329.444419 80.3636131,330.000016 C80.3636131,330.555613 78.2457014,331.63638 74.3636387,331.63638 Z M86.9090584,328.909124 C86.9090584,329.437056 84.9763111,330.428283 81.4545036,330.526567 L81.4545036,330.000016 C81.4545036,329.318522 80.9387941,328.767681 80.1069089,328.345601 C80.3736358,328.356391 80.6411809,328.363652 80.9090328,328.363652 C83.2410011,328.363652 85.5854977,327.950828 86.9090584,327.154226 L86.9090584,328.909124 L86.9090584,328.909124 Z M86.9090584,325.636396 C86.9090584,326.191993 84.7911466,327.27276 80.9090839,327.27276 C77.0270213,327.27276 74.9091095,326.191993 74.9091095,325.636396 L74.9091095,323.881498 C76.232619,324.6781 78.5771157,325.090924 80.9090839,325.090924 C83.2410522,325.090924 85.5855489,324.6781 86.9090584,323.881498 L86.9090584,325.636396 Z M86.9090584,322.363668 C86.9090584,322.919265 84.7911466,324.000032 80.9090839,324.000032 C77.0270213,324.000032 74.9091095,322.919265 74.9091095,322.363668 L74.9091095,320.60877 C76.232619,321.405372 78.5771157,321.818196 80.9090839,321.818196 C83.2410522,321.818196 85.5855489,321.405372 86.9090584,320.60877 L86.9090584,322.363668 Z M80.9090839,320.727304 C77.0269701,320.727304 74.9091095,319.646537 74.9091095,319.09094 C74.9091095,318.535343 77.0270213,317.454576 80.9090839,317.454576 C84.7911466,317.454576 86.9090584,318.535343 86.9090584,319.09094 C86.9090584,319.646537 84.7911466,320.727304 80.9090839,320.727304 Z" id="ico_money"></path>
        </g>
    </g>
</svg>