<?xml version="1.0" encoding="UTF-8"?>
<svg width="24px" height="24px" viewBox="0 0 24 24" version="1.1" xmlns="http://www.w3.org/2000/svg" xmlns:xlink="http://www.w3.org/1999/xlink">
    <!-- Generator: Sketch 63.1 (92452) - https://sketch.com -->
    <title>atoms/ico/input/ico_more</title>
    <desc>Created with Sketch.</desc>
    <g id="atoms/ico/input/ico_more" stroke="none" stroke-width="1" fill="none" fill-rule="evenodd">
        <path d="M12,21 C13.6442308,21 15.1658654,20.5889423 16.5649038,19.7668269 C17.9206731,18.9879808 18.9879808,17.9206731 19.7668269,16.5649038 C20.5889423,15.1658654 21,13.6442308 21,12 C21,10.3557692 20.5889423,8.83413462 19.7668269,7.43509615 C18.9879808,6.07932692 17.9206731,5.01201923 16.5649038,4.23317308 C15.1658654,3.41105769 13.6442308,3 12,3 C10.3701923,3 8.85576923,3.41105769 7.45673077,4.23317308 C6.10096154,5.02644231 5.02644231,6.10096154 4.23317308,7.45673077 C3.41105769,8.85576923 3,10.3701923 3,12 C3,13.6298077 3.41105769,15.1442308 4.23317308,16.5432692 C5.01201923,17.8990385 6.07932692,18.9735577 7.43509615,19.7668269 C8.83413462,20.5889423 10.3557692,21 12,21 Z M11.097419,17.491976 L11.097419,12.902581 L6.50802401,12.902581 L6.50802401,11.097419 L11.097419,11.097419 L11.097419,6.50802401 L12.902581,6.50802401 L12.902581,11.097419 L17.491976,11.097419 L17.491976,12.902581 L12.902581,12.902581 L12.902581,17.491976 L11.097419,17.491976 Z" id="" fill="#002453"></path>
    </g>
</svg>