<?xml version="1.0" encoding="UTF-8"?>
<svg width="24px" height="24px" viewBox="0 0 24 24" version="1.1" xmlns="http://www.w3.org/2000/svg" xmlns:xlink="http://www.w3.org/1999/xlink">
    <!-- Generator: Sketch 63.1 (92452) - https://sketch.com -->
    <title>atoms/ico/24px/ico_notif_info2</title>
    <desc>Created with Sketch.</desc>
    <g id="atoms/ico/24px/ico_notif_info2" stroke="none" stroke-width="1" fill="none" fill-rule="evenodd">
        <path d="M12,3 C16.9705627,3 21,7.02943725 21,12 C21,16.9705627 16.9705627,21 12,21 C7.02943725,21 3,16.9705627 3,12 C3,7.02943725 7.02943725,3 12,3 Z M12,4.5 C7.85786438,4.5 4.5,7.85786438 4.5,12 C4.5,16.1421356 7.85786438,19.5 12,19.5 C16.1421356,19.5 19.5,16.1421356 19.5,12 C19.5,7.85786438 16.1421356,4.5 12,4.5 Z M12.8433333,9.95238095 C12.9603984,9.94212544 13.0767525,9.97844161 13.1661829,10.053148 C13.2556134,10.1278545 13.3105982,10.2346674 13.31875,10.3495238 C13.37125,10.6080952 13.2925,10.8495238 13.2458333,11.0952381 C13.0747222,11.992381 12.9060417,12.8890476 12.7397917,13.7852381 C12.6785417,14.1138095 12.6085417,14.442381 12.5589583,14.7738095 C12.5431191,14.9079982 12.5475415,15.0437405 12.5720833,15.1766667 C12.5818264,15.2956381 12.6443697,15.40443 12.7431727,15.4742703 C12.8419756,15.5441106 12.9670862,15.5679646 13.0854167,15.5395238 C13.2321453,15.5068814 13.3748983,15.4589912 13.51125,15.3966667 C13.6279167,15.3466667 13.734375,15.2666667 13.8539583,15.2280952 C13.9300489,15.2014302 14.0144162,15.2103791 14.0829167,15.252381 C14.1396029,15.3279144 14.1617806,15.423091 14.1441667,15.5152381 C14.1080946,15.6207237 14.0453885,15.715566 13.961875,15.7909524 C13.5020599,16.2697291 12.8610492,16.5415732 12.19,16.542381 C11.8768566,16.5459685 11.5638836,16.526389 11.25375,16.4838095 C10.7302083,16.3980952 10.0710417,15.7480952 10.18625,15.0552381 C10.2722917,14.5409524 10.3466667,14.0252381 10.435625,13.5109524 C10.566875,12.7480952 10.72,11.9895238 10.83375,11.2252381 C10.895,10.8166667 10.7316667,10.642381 10.32625,10.6238095 C10.1721388,10.6105148 10.0215981,10.5708676 9.88145833,10.5066667 C9.76633814,10.4562846 9.70482453,10.3321527 9.735625,10.212381 C9.75218149,10.1021403 9.83719459,10.0137286 9.94854167,9.99095238 C10.0397613,9.96620202 10.1338916,9.95323509 10.2285417,9.95238095 L10.2285417,9.95238095 Z M12.3227083,6.7752381 C13.0436737,6.80293698 13.6090267,7.39312019 13.5885417,8.09952381 C13.5767625,8.62663379 13.2404584,9.09431829 12.7377568,9.28267589 C12.2350552,9.47103349 11.665982,9.34258543 11.2981107,8.95772693 C10.9302394,8.57286844 10.8367678,8.00817735 11.0616455,7.52916679 C11.2865232,7.05015623 11.7850048,6.75213811 12.3227083,6.7752381 L12.3227083,6.7752381 Z" id="Combined-Shape" fill="#002453"></path>
    </g>
</svg>