<?xml version="1.0" encoding="UTF-8"?>
<svg width="24px" height="24px" viewBox="0 0 24 24" version="1.1" xmlns="http://www.w3.org/2000/svg" xmlns:xlink="http://www.w3.org/1999/xlink">
    <!-- Generator: Sketch 63.1 (92452) - https://sketch.com -->
    <title>atoms/ico/24px/ico_notif_wrong</title>
    <desc>Created with Sketch.</desc>
    <g id="atoms/ico/24px/ico_notif_wrong" stroke="none" stroke-width="1" fill="none" fill-rule="evenodd">
        <path d="M12,2 C6.4771525,2 2,6.4771525 2,12 C2,17.5228475 6.4771525,22 12,22 C17.5228475,22 22,17.5228475 22,12 C22,9.3478351 20.9464316,6.80429597 19.0710678,4.92893219 C17.195704,3.0535684 14.6521649,2 12,2 Z M12,18 C11.4035325,18 10.92,17.5164675 10.92,16.92 C10.92,16.3235325 11.4035325,15.84 12,15.84 C12.5964675,15.84 13.08,16.3235325 13.08,16.92 C13.08,17.5164675 12.5964675,18 12,18 Z M13.08,13.32 C13.08,13.9164675 12.5964675,14.4 12,14.4 C11.4035325,14.4 10.92,13.9164675 10.92,13.32 L10.92,7.08 C10.92,6.48353247 11.4035325,6 12,6 C12.5964675,6 13.08,6.48353247 13.08,7.08 L13.08,13.32 Z" id="Shape" fill="#F32735"></path>
    </g>
</svg>