<?xml version="1.0" encoding="UTF-8"?>
<svg width="24px" height="24px" viewBox="0 0 24 24" version="1.1" xmlns="http://www.w3.org/2000/svg" xmlns:xlink="http://www.w3.org/1999/xlink">
    <!-- Generator: Sketch 63.1 (92452) - https://sketch.com -->
    <title>atoms/ico/24px/ico_pago_paypal</title>
    <desc>Created with Sketch.</desc>
    <g id="atoms/ico/24px/ico_pago_paypal" stroke="none" stroke-width="1" fill="none" fill-rule="evenodd">
        <path d="M18.3652332,7.72579928 C18.5917863,6.28122455 18.3636736,5.29828159 17.5823307,4.4079769 C16.7220736,3.42773718 15.1680173,3.00779783 13.1796736,3.00779783 L7.40802888,3.00779783 C7.00160578,3.00779783 6.65558989,3.3034917 6.59227148,3.70492419 L4.18897906,18.9450108 C4.14156823,19.2456953 4.37394368,19.5175798 4.67837112,19.5175798 L8.24146137,19.5175798 L7.99556968,21.0771466 C7.9540852,21.3401935 8.15734874,21.5780794 8.42372274,21.5780794 L11.4270325,21.5780794 C11.7825097,21.5780794 12.0851697,21.3193993 12.1405863,20.9682888 L12.1700101,20.8156592 L12.7358209,17.2279278 L12.7723148,17.0296549 C12.8276274,16.6785444 13.1302874,16.4198643 13.4857646,16.4198643 L13.9351278,16.4198643 C16.8446556,16.4198643 19.1228708,15.2377126 19.7885978,11.8191422 C20.0667206,10.3905791 19.9229285,9.19823827 19.1873329,8.3600231 C18.9648347,8.10643755 18.6880635,7.89683177 18.3652332,7.72579928" id="Fill-11" fill="#002453" opacity="0.5"></path>
        <path d="M18.3652332,7.72579928 C18.5917863,6.28122455 18.3636736,5.29828159 17.5823307,4.4079769 C16.7220736,3.42773718 15.1680173,3.00779783 13.1796736,3.00779783 L7.40802888,3.00779783 C7.00160578,3.00779783 6.65558989,3.3034917 6.59227148,3.70492419 L4.18897906,18.9450108 C4.14156823,19.2456953 4.37394368,19.5175798 4.67837112,19.5175798 L8.24146137,19.5175798 L9.13654874,13.8420043 L9.10878845,14.0198989 C9.17210686,13.6185704 9.51521155,13.3228765 9.92153069,13.3228765 L11.6150123,13.3228765 C14.9409444,13.3228765 17.545213,11.9716679 18.3061776,8.06380939 C18.3287394,7.94808953 18.347974,7.83600866 18.3652332,7.72579928" id="Fill-12" fill="#002453"></path>
    </g>
</svg>