<?xml version="1.0" encoding="UTF-8"?>
<svg width="24px" height="24px" viewBox="0 0 24 24" version="1.1" xmlns="http://www.w3.org/2000/svg" xmlns:xlink="http://www.w3.org/1999/xlink">
    <!-- Generator: Sketch 63.1 (92452) - https://sketch.com -->
    <title>atoms/ico/24px/ico_pago_card</title>
    <desc>Created with Sketch.</desc>
    <g id="atoms/ico/24px/ico_pago_card" stroke="none" stroke-width="1" fill="none" fill-rule="evenodd">
        <path d="M21.7900541,8.21556757 C22.9836399,8.21687835 23.9509054,9.18414391 23.9522162,10.3777297 L23.9522162,10.3777297 L23.9522162,19.9128649 C23.9509054,21.1064507 22.9836399,22.0737162 21.7900541,22.075027 L21.7900541,22.075027 L5.66032432,22.075027 C4.46668916,22.0738352 3.49935401,21.1065 3.49816216,19.9128649 L3.49816216,19.9128649 L3.49816216,10.3777297 C3.49935401,9.18409457 4.46668916,8.21675942 5.66032432,8.21556757 L5.66032432,8.21556757 Z M22.7414054,19.2642162 L4.70897297,19.2642162 L4.70897297,19.9128649 C4.70897297,20.4382817 5.13490748,20.8642162 5.66032432,20.8642162 L5.66032432,20.8642162 L21.7900541,20.8642162 C22.3154709,20.8642162 22.7414054,20.4382817 22.7414054,19.9128649 L22.7414054,19.9128649 L22.7414054,19.2642162 Z M21.7900541,9.42637838 L5.66010811,9.42637838 C5.1347757,9.42649777 4.70897297,9.85239731 4.70897297,10.3777297 L4.70897297,10.3777297 L4.70897297,16.7561081 L22.7414054,16.7561081 L22.7414054,10.3777297 C22.7408096,9.85255986 22.3152239,9.42697415 21.7900541,9.42637838 L21.7900541,9.42637838 Z M2.10616216,4.69686486 C2.36350441,3.53090431 3.5172501,2.79426494 4.68324324,3.05145946 L4.68324324,3.05145946 L20.436973,6.5267027 C20.8316523,6.61272431 21.1940667,6.80832022 21.4825946,7.09102703 L21.4825946,7.09102703 L17.3744865,7.09102703 L4.42313514,4.23351351 C4.35518531,4.21849026 4.28580697,4.21087822 4.21621622,4.21081081 C3.77012488,4.21155327 3.38445642,4.52215572 3.28864865,4.95783784 L3.28864865,4.95783784 L1.23394595,14.2691892 C1.12149365,14.7822644 1.44564219,15.2895264 1.95848649,15.403027 L1.95848649,15.403027 L2.46075676,15.5139459 L2.46075676,16.7537297 L1.69751351,16.5852973 C0.53155296,16.3279551 -0.205086413,15.1742094 0.0521081081,14.0082162 L0.0521081081,14.0082162 Z" id="Combined-Shape" fill="#002453"></path>
    </g>
</svg>