<?xml version="1.0" encoding="UTF-8"?>
<svg width="24px" height="24px" viewBox="0 0 24 24" version="1.1" xmlns="http://www.w3.org/2000/svg" xmlns:xlink="http://www.w3.org/1999/xlink">
    <!-- Generator: Sketch 63.1 (92452) - https://sketch.com -->
    <title>atoms/ico/24px/ico_pago_oficina</title>
    <desc>Created with Sketch.</desc>
    <g id="atoms/ico/24px/ico_pago_oficina" stroke="none" stroke-width="1" fill="none" fill-rule="evenodd">
        <path d="M7.47715515,14.6566659 L12.1808893,15.1217169 L16.8842709,14.6566659 L17.011478,14.6566659 L21.77851,15.1279303 C22.076246,15.1573643 22.3102192,15.3856896 22.3540365,15.6734022 L22.3614261,15.7713145 L22.3614261,21.0968479 C22.3614261,21.4471998 22.0843269,21.7274542 21.7451786,21.7427705 L21.6513067,21.7402326 L16.9479002,21.2748677 L12.2443102,21.7402328 L12.1171159,21.7402328 L7.41301635,21.2748677 L2.71011933,21.7402326 C2.39094589,21.7717831 2.10738857,21.5664593 2.0244311,21.2737404 L2.00572684,21.1834524 L2,21.0968479 L2,15.7713145 C2,15.4721271 2.20419959,15.2168264 2.48620572,15.1449166 L2.58291611,15.1279303 L7.34994813,14.6566659 L7.47715515,14.6566659 Z M6.892,15.9996659 L3.29252589,16.35614 L3.29252589,20.3826695 L7.34995362,19.9822399 L7.47714966,19.9822398 L11.202,20.3496659 L11.2024883,19.3585811 C11.2024883,19.0015177 11.4919454,18.7120606 11.8490088,18.7120606 C12.2060722,18.7120606 12.4955293,19.0015177 12.4955293,19.3585811 L12.495,20.4156659 L16.8842764,19.9822398 L17.0114725,19.9822399 L21.0675286,20.3826695 L21.0675286,16.35614 L17.667,16.0196659 L17.667693,17.2035128 C17.667693,17.5605762 17.3782359,17.8500333 17.0211725,17.8500333 C16.6641091,17.8500333 16.3746521,17.5605762 16.3746521,17.2035128 L16.374,16.0056659 L12.2443157,16.4146989 L12.1171104,16.4146989 L8.185,16.0246659 L8.1853928,17.2035128 C8.1853928,17.5605762 7.89593573,17.8500333 7.53887233,17.8500333 C7.18180894,17.8500333 6.89235186,17.5605762 6.89235186,17.2035128 L6.892,15.9996659 Z M12.0063064,3.00096899 C13.8887787,3.0446077 15.3960777,4.55160215 15.4016834,6.40646472 C15.3965968,7.96552359 14.3163919,9.31215802 12.7918501,9.69989529 L12.6593144,9.72973623 L12.6593312,13.5583079 C12.6593312,13.9007224 12.4227092,14.1864661 12.1047421,14.2662828 L12.0161237,14.2828332 L11.9241715,14.2884995 C11.6065266,14.2884995 11.3294853,14.0867818 11.2238415,13.7631135 L11.1974211,13.6624343 L11.1890118,13.5583078 L11.1886959,9.7478388 L11.0563339,9.71847501 C9.58866293,9.34937394 8.52766577,8.07748105 8.45104828,6.58791902 L8.44660922,6.41511947 L8.45110447,6.24062183 C8.54632724,4.39200583 10.1244256,2.957344 12.0063064,3.00096899 Z M11.9241715,4.50471988 C10.8425059,4.50471988 9.96990692,5.35764299 9.96990692,6.40433609 C9.96990692,7.45102919 10.8425059,8.30395229 11.9241715,8.30395229 C12.4449844,8.30395229 12.9438218,8.10186941 13.3104169,7.74324372 C13.6745304,7.38704578 13.8784361,6.90560375 13.8784361,6.40433609 C13.8784361,5.35764299 13.0058372,4.50471988 11.9241715,4.50471988 Z" id="Combined-Shape" fill="#002453"></path>
    </g>
</svg>