<?xml version="1.0" encoding="UTF-8"?>
<svg width="24px" height="24px" viewBox="0 0 24 24" version="1.1" xmlns="http://www.w3.org/2000/svg" xmlns:xlink="http://www.w3.org/1999/xlink">
    <!-- Generator: Sketch 63.1 (92452) - https://sketch.com -->
    <title>atoms/ico/24px/ico_pass_off</title>
    <desc>Created with Sketch.</desc>
    <g id="atoms/ico/24px/ico_pass_off" stroke="none" stroke-width="1" fill="none" fill-rule="evenodd">
        <path d="M20.9432993,13.8164332 C21.2015471,13.5810351 21.4158701,13.3680954 21.5446153,13.2034 C21.8028631,12.9197577 21.8028631,12.47142 21.5446153,12.2127317 C21.2871248,11.9290894 20.8789267,11.9290894 20.641884,12.2127317 C19.8474502,13.085285 16.8825233,15.8934262 12.0265562,15.8934262 C7.16983167,15.8934262 4.20414742,13.0619947 3.40971361,12.2127317 C3.15222315,11.9290894 2.74402504,11.9290894 2.50698235,12.2127317 C2.24873457,12.4947103 2.24873457,12.943048 2.50698235,13.2034 C2.63572758,13.3448052 2.82960275,13.5577448 3.08785054,13.7931429 L2.11998934,15.280393 C1.90566639,15.609784 1.99200143,16.0348314 2.27145431,16.2710613 C2.37823712,16.365886 2.50698235,16.4124665 2.63572758,16.4124665 C2.82960275,16.4124665 3.0439257,16.3184737 3.17342825,16.105534 L4.11856971,14.666528 C4.54873024,14.9967508 5.06446849,15.3510956 5.66578445,15.6804866 L6.84796859,16.247771 C7.36294951,16.4831691 7.9226126,16.6728185 8.54513366,16.837514 L7.98698522,19.1033246 C7.90065018,19.4809597 8.09376803,19.8585948 8.43759352,19.9767097 C8.50196614,20 8.54513366,20 8.60950627,20 C8.88895916,20 9.14720694,19.7878922 9.23278465,19.4809597 L9.81289552,17.1211562 C10.3074287,17.2151491 10.844372,17.2625614 11.3813154,17.2858517 L12.6702823,17.2858517 C13.207983,17.2625614 13.7449263,17.1918588 14.2387021,17.1211562 L14.8195703,19.4809597 C14.905148,19.7878922 15.1633958,20 15.4420914,20 C15.506464,20 15.5503888,20 15.6147615,19.9767097 C15.958587,19.8818851 16.1517048,19.4809597 16.0661271,19.1033246 L15.506464,16.837514 C16.1085373,16.6728185 16.6886481,16.4598789 17.2043864,16.247771 L18.3865705,15.6804866 C18.9878865,15.3510956 19.5036247,15.0208729 19.9330279,14.6898183 L20.8577216,16.105534 C20.9864669,16.2951834 21.1795847,16.4124665 21.3727026,16.4124665 C21.5014478,16.4124665 21.6309503,16.365886 21.7384905,16.2710613 C22.0179434,16.0348314 22.082316,15.5864937 21.8884408,15.280393 L20.9432993,13.8164332 Z" id="Fill-1" fill="#002453"></path>
    </g>
</svg>