<?xml version="1.0" encoding="UTF-8"?>
<svg width="24px" height="24px" viewBox="0 0 24 24" version="1.1" xmlns="http://www.w3.org/2000/svg" xmlns:xlink="http://www.w3.org/1999/xlink">
    <!-- Generator: Sketch 63.1 (92452) - https://sketch.com -->
    <title>atoms/ico/24px/ico_pdf</title>
    <desc>Created with Sketch.</desc>
    <g id="atoms/ico/24px/ico_pdf" stroke="none" stroke-width="1" fill="none" fill-rule="evenodd">
        <path d="M15.1110833,1 C15.2291667,1 15.342,1.046875 15.4253333,1.13020833 L15.4253333,1.13020833 L19.8697917,5.57466667 C19.953125,5.658 20,5.77083333 20,5.888875 L20,5.888875 L20,20.5555417 C20,21.5360417 19.2027083,22.3333333 18.22225,22.3333333 L18.22225,22.3333333 L5.77779167,22.3333333 C4.79729167,22.3333333 4,21.5360417 4,20.5555833 L4,20.5555833 L4,2.77779167 C4,1.79729167 4.79729167,1 5.77775,1 L5.77775,1 Z M14.6666667,1.88891667 L5.77779167,1.88891667 C5.28779167,1.88891667 4.88891667,2.28779167 4.88891667,2.77779167 L4.88891667,2.77779167 L4.88891667,20.5555417 C4.88891667,21.0455417 5.28779167,21.4444167 5.77779167,21.4444167 L5.77779167,21.4444167 L18.22225,21.4444167 C18.71225,21.4444167 19.111125,21.0455417 19.111125,20.5555417 L19.111125,20.5555417 L19.111125,6.33333333 L16.4444583,6.33333333 C15.4639583,6.33333333 14.6666667,5.53604167 14.6666667,4.55558333 L14.6666667,4.55558333 L14.6666667,1.88891667 Z M11.5555833,9 C12.3559167,9 12.8889167,9.30254167 12.8889167,10.7777917 C12.8889167,11.1250417 12.7096667,11.7765 12.3007917,13.0399583 C12.5629167,13.3524583 12.8645833,13.6805833 13.203125,14.019125 C13.4635417,14.2795417 13.8545833,14.6124167 14.2660417,14.9362083 C14.8954167,14.83075 15.3762917,14.7777917 15.5555417,14.77775 C16.1327917,14.77775 17.3333333,14.77775 17.3333333,15.8285417 C17.3333333,16.3628333 17.102,17 16,17 C15.602,17 14.780375,16.4526667 14.0364583,15.880625 C13.1080833,16.0537917 11.9318333,16.3302917 10.9856667,16.7035417 C10.0742083,18.5629167 8.826375,19.6666667 8,19.6666667 C7.35895833,19.6666667 6.66666667,19.2721667 6.66666667,18.635 C6.66666667,17.7574167 7.60416667,17.3129583 9.02345833,16.6410833 C9.33466667,16.4935 9.67016667,16.3346667 10.0234583,16.158 C10.1215417,16.1089583 10.223125,16.0616667 10.3277083,16.0152083 C10.4562083,15.727875 10.5777083,15.417125 10.6897083,15.081625 C10.9223333,14.3824167 11.129375,13.7621667 11.3055833,13.2244167 C10.5855417,12.2886667 10.22225,11.4835417 10.22225,10.8203333 C10.22225,9.31595833 10.9475,9 11.5555833,9 Z M9.579875,17.361125 C9.52041667,17.3893333 9.46179167,17.4167083 9.40408333,17.4440417 C8.49520833,17.8745833 7.55554167,18.319875 7.55554167,18.635 C7.57420833,18.658 7.74608333,18.7777917 8,18.7777917 C8.25216667,18.7777917 8.91233333,18.3290417 9.579875,17.361125 Z M15.5555417,15.6667083 C15.5034583,15.6667083 15.411,15.6736667 15.2855833,15.6875417 C15.6310833,15.9227917 15.9110417,16.0877083 16.032125,16.11375 C16.4444583,16.111125 16.4444583,16.02825 16.4444583,15.8285833 C16.3984583,15.7309167 16.21225,15.6667083 15.5555417,15.6667083 Z M11.9783333,14.0234583 C11.8459583,14.423625 11.6975,14.8680833 11.5325833,15.362875 C11.5065417,15.441875 11.479625,15.52 11.4518333,15.59725 C12.009125,15.4205833 12.592,15.2725833 13.1398333,15.1532083 C12.864625,14.9184167 12.6580417,14.7309167 12.5747083,14.6475833 C12.3615833,14.4345 12.1627917,14.2265833 11.9783333,14.0234583 Z M11.5555833,9.88891667 C11.4002083,9.88891667 11.111125,9.88891667 11.111125,10.8203333 C11.111125,11.168 11.2972917,11.6285 11.6462917,12.1658333 C11.8750417,11.4340417 12.0000417,10.9652917 12.0000417,10.7777917 C12.0000417,9.88891667 11.8698333,9.88891667 11.5555833,9.88891667 Z M15.5555417,2.517375 L15.5555417,4.55558333 C15.5555417,5.04558333 15.9544167,5.44445833 16.4444167,5.44445833 L16.4444167,5.44445833 L18.482625,5.44445833 L15.5555417,2.517375 Z" id="Combined-Shape" stroke="#002453" stroke-width="0.5" fill="#002453" fill-rule="nonzero"></path>
    </g>
</svg>