<?xml version="1.0" encoding="UTF-8"?>
<svg width="24px" height="24px" viewBox="0 0 24 24" version="1.1" xmlns="http://www.w3.org/2000/svg" xmlns:xlink="http://www.w3.org/1999/xlink">
    <!-- Generator: Sketch 63.1 (92452) - https://sketch.com -->
    <title>atoms/ico/24px/ico_perfil</title>
    <desc>Created with Sketch.</desc>
    <g id="atoms/ico/24px/ico_perfil" stroke="none" stroke-width="1" fill="none" fill-rule="evenodd">
        <path d="M12,3 C14.5829499,3 16.6960918,5.02888892 16.6960918,7.51056113 C16.6960918,10.0372522 14.5919788,12.074888 12,12.074888 C9.40802124,12.074888 7.30390822,10.0372522 7.30390822,7.51056113 C7.30390822,5.02888892 9.41705005,3 12,3 Z M12,4.49391935 C10.2349392,4.49391935 8.85630955,5.83297315 8.85630955,7.51056113 C8.85630955,9.23431751 10.2270059,10.5809686 12,10.5809686 C13.7369693,10.5809686 15.1436905,9.21481022 15.1436905,7.51056113 C15.1436905,5.85227174 13.7289303,4.49391935 12,4.49391935 Z M8.36010111,12.6778323 L15.6398989,12.6778323 C18.0548535,12.6778323 20,14.545424 20,16.865799 L20,21 L4,21 L4,16.865799 C4,14.545424 5.94514649,12.6778323 8.36010111,12.6778323 Z M12.7762007,16.865799 C12.7762007,17.8438233 11.2237993,17.8438233 11.2237993,16.865799 L11.2237993,14.1717517 L8.36010111,14.1717517 C6.79916617,14.1717517 5.55240132,15.3688068 5.55240132,16.865799 L5.55240132,19.5060806 L18.4475987,19.5060806 L18.4475987,16.865799 C18.4475987,15.3688068 17.2008338,14.1717517 15.6398989,14.1717517 L12.7762007,14.1717517 L12.7762007,16.865799 Z" id="Combined-Shape" fill="#002453"></path>
    </g>
</svg>