<?xml version="1.0" encoding="UTF-8"?>
<svg width="24px" height="24px" viewBox="0 0 24 24" version="1.1" xmlns="http://www.w3.org/2000/svg" xmlns:xlink="http://www.w3.org/1999/xlink">
    <!-- Generator: Sketch 63.1 (92452) - https://sketch.com -->
    <title>atoms/ico/24px/ico_personal</title>
    <desc>Created with Sketch.</desc>
    <g id="atoms/ico/24px/ico_personal" stroke="none" stroke-width="1" fill="none" fill-rule="evenodd">
        <path d="M3.31785714,19.9444444 L8.8,19.9444444 L8.95,20.0944444 L8.95,21.15 L8.8,21.3 L3.1475,21.3 C2.51376928,21.3 2,20.7672022 2,20.1155556 L2,3.18444444 C2,2.53279777 2.51376928,2 3.1475,2 L15.4025,2 C16.0362307,2 16.55,2.53279777 16.55,3.18444444 L16.55,8.8 L16.4,8.95 L15.3821429,8.95 L15.2321429,8.8 L15.2321429,3.35555556 L3.31785714,3.35555556 L3.31785714,19.9444444 Z M5.52777778,6.32777778 L13.0222222,6.32777778 C13.3965486,6.32777778 13.7,6.63122923 13.7,7.00555556 C13.7,7.37988189 13.3965486,7.68333333 13.0222222,7.68333333 L5.52777778,7.68333333 C5.15345145,7.68333333 4.85,7.37988189 4.85,7.00555556 C4.85,6.63122923 5.15345145,6.32777778 5.52777778,6.32777778 Z M5.52777778,9.81111111 L10.1722222,9.81111111 C10.5465486,9.81111111 10.85,10.1145626 10.85,10.4888889 C10.85,10.8632152 10.5465486,11.1666667 10.1722222,11.1666667 L5.52777778,11.1666667 C5.15345145,11.1666667 4.85,10.8632152 4.85,10.4888889 C4.85,10.1145626 5.15345145,9.81111111 5.52777778,9.81111111 Z M15.925,9.6 C17.6927197,9.6 19.1421349,10.9498075 19.1421349,12.6066887 C19.1421349,14.290234 17.7005004,15.6474291 15.925,15.6474291 C14.1494996,15.6474291 12.7078651,14.290234 12.7078651,12.6066887 C12.7078651,10.9498075 14.1572803,9.6 15.925,9.6 Z M15.925,10.8461489 C14.8566381,10.8461489 14.0217772,11.6258828 14.0217772,12.6066887 C14.0217772,13.6154874 14.8499817,14.4012801 15.925,14.4012801 C16.9802369,14.4012801 17.8282228,13.5995634 17.8282228,12.6066887 C17.8282228,11.6416177 16.9734969,10.8461489 15.925,10.8461489 Z M13.547691,15.7292938 L18.302309,15.7292938 C19.9603063,15.7292938 21.3,16.9769462 21.3,18.5316727 L21.3,21.15 L21.15,21.3 L10.7,21.3 L10.55,21.15 L10.55,18.5316727 C10.55,16.9769462 11.8896937,15.7292938 13.547691,15.7292938 Z M16.5819561,18.5316727 C16.5819561,19.3510881 15.2680439,19.3510881 15.2680439,18.5316727 L15.2680439,16.9754427 L13.547691,16.9754427 C12.6089129,16.9754427 11.8639121,17.6687599 11.8639121,18.5316727 L11.8639121,20.0538511 L19.9860879,20.0538511 L19.9860879,18.5316727 C19.9860879,17.6687599 19.2410871,16.9754427 18.302309,16.9754427 L16.5819561,16.9754427 L16.5819561,18.5316727 Z" id="Combined-Shape" fill="#002453"></path>
    </g>
</svg>