<?xml version="1.0" encoding="UTF-8"?>
<svg width="24px" height="24px" viewBox="0 0 24 24" version="1.1" xmlns="http://www.w3.org/2000/svg" xmlns:xlink="http://www.w3.org/1999/xlink">
    <!-- Generator: Sketch 63.1 (92452) - https://sketch.com -->
    <title>atoms/ico/24px/ico_phone</title>
    <desc>Created with Sketch.</desc>
    <g id="atoms/ico/24px/ico_phone" stroke="none" stroke-width="1" fill="none" fill-rule="evenodd">
        <path d="M15.64,1.132 C17.0171122,1.10070574 18.1592433,2.19092183 18.192,3.568 L18.192,20.368 C18.2043364,20.9871938 17.9646954,21.5848527 17.528,22.024 C17.0288306,22.5268135 16.348503,22.8078811 15.64,22.804 L8.56,22.804 C7.8972822,22.8211847 7.25495231,22.5740202 6.77469565,22.1170259 C6.29443898,21.6600317 6.0157133,21.0307543 6,20.368 L6,3.568 C6.03275668,2.19092183 7.17488782,1.10070574 8.552,1.132 L15.64,1.132 Z M15.448,2.34384842 L8.752,2.34384842 C7.92072246,2.34320173 7.23642159,2.99752035 7.2,3.828 L7.2,19.908 C7.23225174,20.7416275 7.91774912,21.4006237 8.752,21.4 L15.48,21.4 C16.3142396,21.4133923 17.0024959,20.7501634 17.02,19.916 L17.02,3.828 C16.9833163,2.98971655 16.2870053,2.33238478 15.448,2.34384842 Z M12.068,18.988 C12.5827294,18.988 13,19.3855711 13,19.876 C13,20.3664289 12.5827294,20.764 12.068,20.764 C11.5532706,20.764 11.136,20.3664289 11.136,19.876 C11.136,19.3855711 11.5532706,18.988 12.068,18.988 Z M13.776,3.836 C13.8179918,3.82741117 13.8594574,3.86397196 13.8900031,3.93651808 C13.9205489,4.00906419 13.937279,4.11071835 13.936,4.216 L13.936,4.296 C13.937279,4.40128165 13.9205489,4.50293581 13.8900031,4.57548192 C13.8594574,4.64802804 13.8179918,4.68458883 13.776,4.676 L11.072,4.676 C11.0293521,4.68765334 10.98678,4.65246762 10.9553145,4.57955963 C10.9238489,4.50665163 10.9065865,4.40319653 10.908,4.296 L10.908,4.216 C10.9065865,4.10880347 10.9238489,4.00534837 10.9553145,3.93244037 C10.9789136,3.87775938 11.0087602,3.84429716 11.0402006,3.83589987 L13.776,3.836 Z" id="Combined-Shape" fill="#002453"></path>
    </g>
</svg>