<?xml version="1.0" encoding="UTF-8"?>
<svg width="24px" height="24px" viewBox="0 0 24 24" version="1.1" xmlns="http://www.w3.org/2000/svg" xmlns:xlink="http://www.w3.org/1999/xlink">
    <!-- Generator: Sketch 63.1 (92452) - https://sketch.com -->
    <title>atoms/ico/24px/ico_poi</title>
    <desc>Created with Sketch.</desc>
    <g id="atoms/ico/24px/ico_poi" stroke="none" stroke-width="1" fill="none" fill-rule="evenodd">
        <path d="M5.81023114,7.35874698 C5.98180526,4.0278768 8.82927775,1.43967057 12.2284891,1.51846971 C15.628096,1.59727801 18.3476716,4.31514914 18.3577766,7.65144575 L18.3577766,7.65380501 C18.3478338,10.7012175 16.0665341,13.2655128 13.0244444,13.7165199 L13.0244444,21.5652174 C13.0244444,22.082816 12.6003305,22.5 12.08,22.5 C11.5596695,22.5 11.1355556,22.082816 11.1355556,21.5652174 L11.1355556,13.7513335 C7.96839953,13.2822064 5.64692812,10.5290452 5.81023114,7.35874698 Z" id="Shape" fill="#333333"></path>
        <path d="M12.08,12.1847826 C13.311459,12.1847826 14.4921577,11.706353 15.3621429,10.8552804 C16.2310599,10.005253 16.7188889,8.85313225 16.7188889,7.65217391 C16.7188889,5.15012802 14.6432025,3.11956522 12.08,3.11956522 C9.51679754,3.11956522 7.44111111,5.15012802 7.44111111,7.65217391 C7.44111111,10.1542198 9.51679754,12.1847826 12.08,12.1847826 Z" id="Path" fill="#FFCD00"></path>
    </g>
</svg>