<?xml version="1.0" encoding="UTF-8"?>
<svg width="24px" height="24px" viewBox="0 0 24 24" version="1.1" xmlns="http://www.w3.org/2000/svg" xmlns:xlink="http://www.w3.org/1999/xlink">
    <!-- Generator: Sketch 63.1 (92452) - https://sketch.com -->
    <title>atoms/ico/24px/ico_refresh</title>
    <desc>Created with Sketch.</desc>
    <g id="atoms/ico/24px/ico_refresh" stroke="none" stroke-width="1" fill="none" fill-rule="evenodd">
        <path d="M4.22045,11.70995 C4.2417,11.70995 4.2628,11.71105 4.28375,11.71315 C4.2907,11.71385 4.2974,11.71515 4.30425,11.7161 C4.31795,11.7179 4.33165,11.71965 4.3452,11.72235 C4.35455,11.72425 4.36355,11.7268 4.37275,11.72905 L4.37275,11.72905 L4.40495,11.7374 C4.4148,11.7404 4.42435,11.7441 4.434,11.7475 L4.434,11.7475 L4.45795,11.7558 L8.7246,13.4624 C9.0522,13.59355 9.21215,13.9667 9.0811,14.29435 C8.98335,14.5389 8.75005,14.6968 8.48675,14.6968 C8.40525,14.6968 8.3253,14.6814 8.2492,14.65095 L8.2492,14.65095 L4.92765,13.3223 C5.4027,16.7456 8.3482,19.39 11.9002,19.39 C14.87935,19.39 17.5475,17.5039 18.53975,14.6967 C18.63,14.44145 18.87245,14.26985 19.1431,14.26985 C19.21585,14.26985 19.2876,14.28225 19.35655,14.30655 C19.68915,14.4241 19.8642,14.79055 19.74665,15.1232 C18.57395,18.44095 15.4207,20.67 11.9002,20.67 C7.8914,20.67 4.5358,17.82 3.75285,14.03975 L3.75285,14.03975 L2.17225,16.14735 C2.05195,16.30765 1.8605,16.40335 1.6599,16.40335 C1.52055,16.40335 1.38785,16.35905 1.2762,16.27525 C1.13945,16.17275 1.05085,16.02305 1.02665,15.85375 C1.0025,15.6845 1.0457,15.51605 1.14825,15.3793 L1.14825,15.3793 L3.70825,11.96595 L3.70825,11.96595 L3.7187,11.9536 C3.7261,11.94425 3.73385,11.9353 3.74175,11.9264 L3.74175,11.9264 L3.76365,11.90235 L3.76365,11.90235 L3.79775,11.8705 C3.8028,11.8661 3.80745,11.86125 3.8126,11.857 C3.8303,11.84235 3.8489,11.82885 3.8681,11.81615 C3.87145,11.81395 3.875,11.812 3.87835,11.8099 L3.90360625,11.7946 L3.90360625,11.7946 L3.92965,11.7805 C3.9338,11.7784 3.9381,11.77645 3.9423,11.7744 C3.9595,11.76605 3.9771,11.7585 3.99505,11.7517 C3.9996,11.75 4.00415,11.7483 4.0087,11.7467 C4.02655,11.7404 4.04465,11.735 4.06315,11.7303 L4.06315,11.7303 L4.07795,11.72645 C4.09625,11.7223 4.1149,11.7191 4.13375,11.7165 C4.1389,11.71575 4.1439,11.71475 4.14905,11.71415 C4.172,11.71165 4.19525,11.71005 4.21885,11.70995 L4.21885,11.70995 Z M11.9002,4.03 C15.90905,4.03 19.26455,6.87995 20.0476,10.66015 L20.0476,10.66015 L21.6282,8.55265 C21.7485,8.3923 21.94,8.2966 22.14055,8.2966 C22.27985,8.2966 22.41255,8.3409 22.5242,8.42465 C22.8065,8.63645 22.8639,9.03835 22.6522,9.3206 L22.6522,9.3206 L20.0922,12.73395 C20.089,12.7383 20.0851,12.74205 20.08175,12.7463 C20.0744,12.75565 20.06665,12.76455 20.05875,12.77345 L20.05875,12.77345 L20.03675,12.79765 C20.0261,12.8085 20.0149,12.81865 20.0035,12.82865 C19.99825,12.83335 19.99325,12.8385 19.9878,12.843 C19.9702,12.8576 19.9517,12.87105 19.9326,12.88365 C19.9289,12.88605 19.9251,12.8881 19.92145,12.89045 L19.8966313,12.9054 L19.8966313,12.9054 L19.8711,12.9193 C19.86665,12.92155 19.8621,12.9236 19.8576,12.92575 C19.8407,12.93395 19.8235,12.94135 19.8058,12.948 C19.801,12.94985 19.7962,12.95165 19.7913,12.95335 L19.7913,12.95335 L19.7379,12.96935 C19.7327,12.97075 19.7275,12.97225 19.72225,12.97345 C19.7043,12.97755 19.6861,12.9806 19.6677,12.9832 L19.6677,12.9832 L19.6512,12.98575 C19.62915,12.9882 19.6068,12.98955 19.58415,12.9897 L19.58415,12.9897 L19.5481813,12.9891375 L19.5481813,12.9891375 L19.5165,12.98675 L19.5165,12.98675 L19.4986,12.9841 C19.484,12.98225 19.4694,12.98035 19.455,12.97745 L19.455,12.97745 L19.42905,12.97115 C19.4178,12.9684 19.40655,12.9658 19.3954,12.9625 C19.3856,12.9596 19.3761,12.9559 19.3665,12.9525 L19.3665,12.9525 L19.3425,12.94415 L15.07585,11.2375 C14.7482,11.1065 14.58825,10.7333 14.7193,10.40565 C14.81715,10.16115 15.0505,10.0032 15.3138,10.0032 C15.3953,10.0032 15.4752,10.01865 15.55125,10.0491 L15.55125,10.0491 L18.8728,11.3777 C18.39775,7.95435 15.45225,5.31 11.90025,5.31 C8.92105,5.31 6.2528,7.1961 5.26065,10.0033 C5.1704,10.2586 4.9279,10.4301 4.6572,10.43015 C4.58455,10.43015 4.5128,10.41775 4.4439,10.3934 C4.28275,10.33645 4.1534,10.2201 4.0797,10.0659 C4.006,9.9116 3.9968,9.73785 4.0538,9.5767 C5.2264,6.2591 8.37965,4.03 11.9002,4.03 Z" id="Combined-Shape" fill="#002453"></path>
    </g>
</svg>