<?xml version="1.0" encoding="UTF-8"?>
<svg width="24px" height="24px" viewBox="0 0 24 24" version="1.1" xmlns="http://www.w3.org/2000/svg" xmlns:xlink="http://www.w3.org/1999/xlink">
    <!-- Generator: Sketch 63.1 (92452) - https://sketch.com -->
    <title>atoms/ico/24px/ico_remitente</title>
    <desc>Created with Sketch.</desc>
    <g id="atoms/ico/24px/ico_remitente" stroke="none" stroke-width="1" fill="none" fill-rule="evenodd">
        <path d="M19.4029166,11.4681033 C21.3952541,11.4681033 23,13.102246 23,15.1325741 L23,18.75 L14.2,18.75 L14.2,21 L1,21 L1,17.3825741 C1,15.352246 2.60474586,13.7181033 4.59708341,13.7181033 L10.0760428,13.7176233 C10.6174516,12.3939097 11.8974745,11.4681033 13.3970834,11.4681033 L19.4029166,11.4681033 Z M6.95963445,15.0252827 L4.59708341,15.0252827 C3.30931209,15.0252827 2.28073109,16.072706 2.28073109,17.3825741 L2.28073109,19.6928206 L12.9192689,19.6928206 L12.919,18.75 L9.8,18.75 L9.8,15.1325741 L9.802,15.025 L8.24036555,15.0252827 L8.24036555,17.3825741 C8.24036555,18.2383454 6.95963445,18.2383454 6.95963445,17.3825741 L6.95963445,15.0252827 Z M11.0823292,15.0749636 L11.0807311,15.1325741 L11.0807311,15.1325741 L11.0807311,17.4428206 L12.919,17.442 L12.9192689,17.3825741 C12.9192689,16.2401024 12.1367871,15.2972828 11.0823292,15.0749636 Z M15.7596345,12.7752827 L13.3970834,12.7752827 C12.5867768,12.7752827 11.8790921,13.1899917 11.4657101,13.8238455 C13.0394155,14.2158259 14.2,15.6559354 14.2,17.3825741 L14.2,17.442 L21.7192689,17.4428206 L21.7192689,15.1325741 C21.7192689,13.822706 20.6906879,12.7752827 19.4029166,12.7752827 L17.0403655,12.7752827 L17.0403655,15.1325741 C17.0403655,15.9883454 15.7596345,15.9883454 15.7596345,15.1325741 L15.7596345,12.7752827 Z M7.6,5.25 C9.73093371,5.25 11.4742757,7.0252778 11.4742757,9.19674099 C11.4742757,11.4075957 9.73838248,13.190527 7.6,13.190527 C5.46161752,13.190527 3.72572429,11.4075957 3.72572429,9.19674099 C3.72572429,7.0252778 5.46906629,5.25 7.6,5.25 Z M7.6,6.55717943 C6.1438248,6.55717943 5.00645538,7.7288515 5.00645538,9.19674099 C5.00645538,10.7050278 6.13727986,11.8833476 7.6,11.8833476 C9.03299967,11.8833476 10.1935446,10.6879589 10.1935446,9.19674099 C10.1935446,7.74573777 9.02636748,6.55717943 7.6,6.55717943 Z M16.4,3 C18.5309337,3 20.2742757,4.7752778 20.2742757,6.94674099 C20.2742757,9.15759568 18.5383825,10.940527 16.4,10.940527 C14.2616175,10.940527 12.5257243,9.15759568 12.5257243,6.94674099 C12.5257243,4.7752778 14.2690663,3 16.4,3 Z M16.4,4.30717943 C14.9438248,4.30717943 13.8064554,5.4788515 13.8064554,6.94674099 C13.8064554,8.45502782 14.9372799,9.63334756 16.4,9.63334756 C17.8329997,9.63334756 18.9935446,8.43795895 18.9935446,6.94674099 C18.9935446,5.49573777 17.8263675,4.30717943 16.4,4.30717943 Z" id="Combined-Shape" fill="#002453"></path>
        <path d="M8.24036555,17.3825741 C8.24036555,18.2383454 6.95963445,18.2383454 6.95963445,17.3825741 L6.95963445,15.0252827 L4.59708341,15.0252827 C3.30931209,15.0252827 2.28073109,16.072706 2.28073109,17.3825741 L2.28073109,19.6928206 L12.9192689,19.6928206 L12.9192689,17.3825741 C12.9192689,16.072706 11.8906879,15.0252827 10.6029166,15.0252827 L8.24036555,15.0252827 L8.24036555,17.3825741 Z" id="Path" fill="#FFCD00"></path>
    </g>
</svg>