<?xml version="1.0" encoding="UTF-8"?>
<svg width="24px" height="24px" viewBox="0 0 24 24" version="1.1" xmlns="http://www.w3.org/2000/svg" xmlns:xlink="http://www.w3.org/1999/xlink">
    <!-- Generator: Sketch 63.1 (92452) - https://sketch.com -->
    <title>atoms/ico/24px/ico_rubbish</title>
    <desc>Created with Sketch.</desc>
    <g id="atoms/ico/24px/ico_rubbish" stroke="none" stroke-width="1" fill="none" fill-rule="evenodd">
        <path d="M13.0491684,3 C13.8755198,3 14.54541,3.67989705 14.54541,4.51859257 L14.54541,4.51859257 L14.545,5.438 L17.6395659,5.4389517 C18.0556731,5.4389517 18.418383,5.72637744 18.5193038,6.13609095 L18.9727103,7.97680921 C19.0941768,8.46993295 18.7987727,8.96962766 18.3129069,9.0929086 C18.2409779,9.11115946 18.1671151,9.12038822 18.0929724,9.12038822 L18.039,9.12 L18.0395668,9.16631322 L17.1723409,20.5979863 C17.112324,21.3891228 16.4623142,22 15.6805148,22 L15.6805148,22 L8.36557054,22 C7.58555698,22 6.93640258,21.3918238 6.87410824,20.602687 L6.87410824,20.602687 L5.97146865,9.16816503 C5.97019527,9.1520341 5.96956477,9.13600145 5.96955536,9.12009304 L5.90681306,9.12038822 C5.40599403,9.12038822 5,8.7083294 5,8.20002909 C5,8.12477886 5.00909293,8.04981265 5.02707517,7.97680921 L5.4804817,6.13609095 C5.58140251,5.72637744 5.94411242,5.4389517 6.36021959,5.4389517 L9.596,5.438 L9.59683814,4.51859257 C9.59683814,3.72649125 10.1943636,3.07603424 10.9568912,3.00620599 L11.0930797,3 Z M16.861,9.12 L7.15,9.12 L8.04919975,20.5071334 C8.06052599,20.6506128 8.16331095,20.7658906 8.29664169,20.7958989 L8.36557054,20.8035331 L15.6805148,20.8035331 C15.846351,20.8035331 15.9842319,20.6739531 15.9969628,20.5061363 L15.9969628,20.5061363 L16.861,9.12 Z M12,10.0000124 C12.2655496,10.0000124 12.4858479,10.2048223 12.5272521,10.4731655 L12.5342445,10.5647726 L12.5342445,19.4352274 C12.5342445,19.7471359 12.2950551,19.9999876 12,19.9999876 C11.7344504,19.9999876 11.5141521,19.7951777 11.4727479,19.5268345 L11.4657555,19.4352274 L11.4657555,10.5647726 C11.4657555,10.2528641 11.7049449,10.0000124 12,10.0000124 Z M9.50812289,10.0006885 C9.77335457,9.98695679 10.0028665,10.1801298 10.0566382,10.4460107 L10.0678611,10.5371465 L10.4788184,19.4076014 C10.4932515,19.7191364 10.2660487,19.9840541 9.97134684,19.9993115 C9.70611516,20.0130432 9.47660327,19.8198702 9.42283153,19.5539893 L9.41160858,19.4628535 L9.00065128,10.5923986 C8.98621825,10.2808636 9.21342103,10.0159459 9.50812289,10.0006885 Z M14.4918771,10.0006885 C14.7571088,10.0144202 14.9676662,10.2303766 14.9966037,10.5005397 L14.9993487,10.5923986 L14.5883914,19.4628535 C14.5739584,19.7743885 14.323355,20.014569 14.0286532,19.9993115 C13.7634215,19.9855798 13.5528641,19.7696234 13.5239266,19.4994603 L13.5211816,19.4076014 L13.9321389,10.5371465 C13.9465719,10.2256115 14.1971752,9.98543104 14.4918771,10.0006885 Z M17.4271604,6.63541857 L6.57262506,6.63541857 L6.25524049,7.92392135 L17.744545,7.92392135 L17.4271604,6.63541857 Z M13.0491684,4.19646687 L11.0930797,4.19646687 C10.917793,4.19646687 10.7756951,4.34068746 10.7756951,4.51859257 L10.7756951,4.51859257 L10.775,5.438 L13.366,5.438 L13.366553,4.51859257 C13.366553,4.36610247 13.2621545,4.23836019 13.1219418,4.20497444 L13.0491684,4.19646687 Z" id="Combined-Shape" fill="#002453"></path>
    </g>
</svg>