<?xml version="1.0" encoding="UTF-8"?>
<svg width="24px" height="24px" viewBox="0 0 24 24" version="1.1" xmlns="http://www.w3.org/2000/svg" xmlns:xlink="http://www.w3.org/1999/xlink">
    <!-- Generator: Sketch 63.1 (92452) - https://sketch.com -->
    <title>atoms/ico/24px/ico_saved</title>
    <desc>Created with Sketch.</desc>
    <g id="atoms/ico/24px/ico_saved" stroke="none" stroke-width="1" fill="none" fill-rule="evenodd">
        <path d="M14.962963,2.75 C16.1793202,2.75 17.1814956,3.71513079 17.339825,4.97619561 L17.3556394,5.14230559 L17.3611111,5.31459273 L17.361,10.763 L18.2222222,10.7620482 C19.241857,10.7620482 20.0834598,11.5335144 20.2280517,12.5361786 L20.2444481,12.6882446 L20.25,12.8433735 L20.25,20.1686747 C20.25,21.2643509 19.4243282,22.1646958 18.3737673,22.2442815 L18.2222222,22.25 L5.77777778,22.25 C4.70716126,22.25 3.83282504,21.3994585 3.75555194,20.3238035 L3.75,20.1686747 L3.75,12.8433735 C3.75,11.7476973 4.57567184,10.8473524 5.62623267,10.7677667 L5.77777778,10.7620482 L6.638,10.762 L6.63888889,5.3145917 C6.63888889,4.08786963 7.44882792,3.04501192 8.55613638,2.80248905 L8.71629088,2.77335395 L8.87296171,2.75604296 L9.03703704,2.75 L14.962963,2.75 Z M12,13.4668675 C11.1535733,13.4668675 10.4485797,14.1112503 10.3686027,14.9482164 L10.3686027,14.9482164 L10.3613931,15.0938866 L10.3611111,17.9062918 L10.3671268,18.0477014 C10.4388233,18.88663 11.1425053,19.5451807 12,19.5451807 C12.8464267,19.5451807 13.5514203,18.9007979 13.6313973,18.0638317 L13.6313973,18.0638317 L13.6386069,17.9181616 L13.6388889,15.1057564 L13.6328732,14.9643468 C13.5611767,14.1254182 12.8574947,13.4668675 12,13.4668675 Z M14.957,4.623 L9.03703704,4.62349398 C8.7938804,4.62349398 8.57077535,4.82180987 8.49824995,5.10026994 L8.47836629,5.20821843 L8.47222222,5.3145917 L8.472,10.762 L15.527,10.762 L15.5277778,5.3145917 C15.5277778,4.99520982 15.3501473,4.73252784 15.1297526,4.65161115 L15.0453635,4.63003191 L14.957,4.623 Z" id="Combined-Shape" fill="#002453"></path>
    </g>
</svg>