<?xml version="1.0" encoding="UTF-8"?>
<svg width="24px" height="24px" viewBox="0 0 24 24" version="1.1" xmlns="http://www.w3.org/2000/svg" xmlns:xlink="http://www.w3.org/1999/xlink">
    <!-- Generator: Sketch 63.1 (92452) - https://sketch.com -->
    <title>atoms/ico/24px/ico_save</title>
    <desc>Created with Sketch.</desc>
    <g id="atoms/ico/24px/ico_save" stroke="none" stroke-width="1" fill="none" fill-rule="evenodd">
        <path d="M14.962963,3 C16.107298,3 17.0278838,3.95686606 17.1057715,5.15043305 L17.1111111,5.3145917 L17.1111111,7.87263339 C17.1111111,8.25191328 16.8126343,8.55938038 16.4444444,8.55938038 C16.1097264,8.55938038 15.8326224,8.30527534 15.7850062,7.97411583 L15.7777778,7.87263339 L15.7777778,5.3145917 C15.7777778,4.82600081 15.4584507,4.43754179 15.063213,4.38066993 L14.962963,4.37349398 L9.03703704,4.37349398 C8.630838,4.37349398 8.2802648,4.72436908 8.228734,5.194664 L8.22222222,5.3145917 L8.22222222,11.0120482 L18.2222222,11.0120482 C19.2040618,11.0120482 20,11.8319605 20,12.8433735 L20,20.1686747 C20,21.1800877 19.2040618,22 18.2222222,22 L5.77777778,22 C4.79593822,22 4,21.1800877 4,20.1686747 L4,12.8433735 C4,11.8319605 4.79593822,11.0120482 5.77777778,11.0120482 L6.88888889,11.0120482 L6.88888889,5.3145917 C6.88888889,4.10099439 7.75972094,3.09136323 8.88243635,3.00586335 L9.03703704,3 L14.962963,3 Z M18.2222222,12.3855422 L5.77777778,12.3855422 C5.53231789,12.3855422 5.33333333,12.5905202 5.33333333,12.8433735 L5.33333333,20.1686747 C5.33333333,20.421528 5.53231789,20.626506 5.77777778,20.626506 L18.2222222,20.626506 C18.4676821,20.626506 18.6666667,20.421528 18.6666667,20.1686747 L18.6666667,12.8433735 C18.6666667,12.5905202 18.4676821,12.3855422 18.2222222,12.3855422 Z M12,14.2168675 C12.4909198,14.2168675 12.8888889,14.6148366 12.8888889,15.1057564 L12.8888889,17.9062918 C12.8888889,18.3972116 12.4909198,18.7951807 12,18.7951807 C11.5090802,18.7951807 11.1111111,18.3972116 11.1111111,17.9062918 L11.1111111,15.1057564 C11.1111111,14.6148366 11.5090802,14.2168675 12,14.2168675 Z" id="Combined-Shape" fill="#002453"></path>
    </g>
</svg>