<?xml version="1.0" encoding="UTF-8"?>
<svg width="24px" height="24px" viewBox="0 0 24 24" version="1.1" xmlns="http://www.w3.org/2000/svg" xmlns:xlink="http://www.w3.org/1999/xlink">
    <!-- Generator: Sketch 63.1 (92452) - https://sketch.com -->
    <title>atoms/ico/24px/ico_share</title>
    <desc>Created with Sketch.</desc>
    <g id="atoms/ico/24px/ico_share" stroke="none" stroke-width="1" fill="none" fill-rule="evenodd">
        <path d="M17.3333333,15.7228916 C16.6577778,15.7228916 16.0533333,15.9939759 15.5911111,16.4186747 L9.25333333,12.6686747 C9.29777778,12.4608434 9.33333333,12.253012 9.33333333,12.0361446 C9.33333333,11.8192771 9.29777778,11.6114458 9.25333333,11.4036145 L15.52,7.68975904 C16,8.14156627 16.6311111,8.42168675 17.3333333,8.42168675 C18.8088889,8.42168675 20,7.21084337 20,5.71084337 C20,4.21084337 18.8088889,3 17.3333333,3 C15.8577778,3 14.6666667,4.21084337 14.6666667,5.71084337 C14.6666667,5.92771084 14.7022222,6.13554217 14.7466667,6.34337349 L8.48,10.0572289 C8,9.60542169 7.36888889,9.3253012 6.66666667,9.3253012 C5.19111111,9.3253012 4,10.5361446 4,12.0361446 C4,13.5361446 5.19111111,14.746988 6.66666667,14.746988 C7.36888889,14.746988 8,14.4668675 8.48,14.0150602 L14.8088889,17.7740964 C14.7644444,17.9638554 14.7377778,18.1626506 14.7377778,18.3614458 C14.7377778,19.8162651 15.9022222,21 17.3333333,21 C18.7644444,21 19.9288889,19.8162651 19.9288889,18.3614458 C19.9288889,16.9066265 18.7644444,15.7228916 17.3333333,15.7228916 L17.3333333,15.7228916 Z" id="icon" fill="#002453"></path>
    </g>
</svg>