<?xml version="1.0" encoding="UTF-8"?>
<svg width="24px" height="24px" viewBox="0 0 24 24" version="1.1" xmlns="http://www.w3.org/2000/svg" xmlns:xlink="http://www.w3.org/1999/xlink">
    <!-- Generator: Sketch 63.1 (92452) - https://sketch.com -->
    <title>atoms/ico/input/ico_show</title>
    <desc>Created with Sketch.</desc>
    <g id="atoms/ico/input/ico_show" stroke="none" stroke-width="1" fill="none" fill-rule="evenodd">
        <path d="M15.263564,4 C15.3214842,4 15.3603247,4 15.4182449,4.02018196 C15.7276067,4.12253333 15.9013672,4.44976941 15.8236861,4.77700548 L15.8236861,4.77700548 L15.331,6.66 L15.619413,6.75852731 C16.9501292,7.2372385 18.1769084,7.96993709 19.2555699,8.8971826 L20.0506291,7.73158189 C20.1671509,7.54706111 20.359991,7.46561248 20.5344329,7.46561248 C20.6502732,7.46561248 20.7661136,7.50597641 20.8621929,7.58814582 C21.1136346,7.79284856 21.1913157,8.16116934 20.9984757,8.44659992 L20.9984757,8.44659992 L20.1276289,9.73536226 C20.1549806,9.75937334 20.1800609,9.78849392 20.2032143,9.82138826 C20.4858474,10.1278093 20.7511803,10.4507367 21.0054756,10.7853 C21.23321,11.0853681 21.4484657,11.398104 21.6473434,11.7187573 L21.7955267,11.9681543 L21.7955267,11.9681543 C21.8181441,12.0085328 21.8415415,12.0481197 21.864159,12.0884982 C21.9694471,12.2769315 22.0209213,12.4621978 21.9920646,12.6775502 C21.9546288,12.9506993 21.775249,13.2088053 21.632525,13.4415759 C20.7909997,14.8215726 19.6874239,16.0068021 18.3880902,16.9450098 C17.14569,17.842839 15.6934934,18.482562 14.1968419,18.780255 C12.5793039,19.1032835 10.9048323,19.0739892 9.30289263,18.6670366 C8.53467908,18.4722695 7.78596334,18.1824939 7.0754633,17.8285877 C6.35638423,17.4715146 5.69657848,17.0241834 5.06718932,16.5253895 C3.86222493,15.5705553 2.85535824,14.3433637 2.11210189,12.9902861 C2.09182417,12.9546579 2.07544601,12.9182381 2.06062768,12.8818182 C2.048929,12.8509405 2.03723031,12.8200627 2.02865128,12.789185 C1.96859804,12.5746244 2.00603382,12.33552 2.11210189,12.1423363 C2.28056293,11.8327673 2.46696195,11.530324 2.66583957,11.2365898 C3.05987312,10.6530291 3.50061572,10.1059781 3.98473823,9.60186472 L3.21153287,8.44659992 C3.03709095,8.1813513 3.09501112,7.79284856 3.34645279,7.58814582 C3.44321354,7.50597641 3.55973529,7.46561248 3.67557562,7.46561248 C3.84933612,7.46561248 4.02309663,7.56724307 4.13893696,7.73158189 L4.13893696,7.73158189 L4.85247987,8.78438207 C5.23432202,8.4593587 5.63750396,8.1583028 6.0607975,7.88358577 C6.91390247,7.33132908 7.85105701,6.89375869 8.82663317,6.59802755 L8.39859008,4.92380024 C8.32159032,4.59656417 8.49535083,4.24914614 8.80471266,4.16697672 C8.86263283,4.14679476 8.90215483,4.14679476 8.960075,4.14679476 C9.21083525,4.14679476 9.44319734,4.33059476 9.52019709,4.59656417 L9.52019709,4.59656417 L9.95913913,6.32268623 C10.0907608,6.29850755 10.2227474,6.27697499 10.3549942,6.25815077 C11.1731221,6.14334898 11.9943697,6.09267785 12.8202968,6.16155892 C13.2852965,6.20104596 13.7482921,6.26596397 14.2048823,6.36020448 L14.7027605,4.44976941 C14.7797602,4.1838 15.0121223,4 15.263564,4 Z M10.7706874,7.88041882 C9.95723898,7.99997103 9.15938878,8.21690683 8.3958547,8.528851 C7.59956432,8.87642332 6.84850885,9.32375443 6.1567267,9.85738482 C5.5125192,10.3783474 4.93070468,10.9721498 4.41830234,11.6261241 C4.1921278,11.9277757 3.97921176,12.2413034 3.78267388,12.5651236 C3.97999167,12.891319 4.19290771,13.2064301 4.4222019,13.5112487 C4.93538415,14.1660148 5.52109823,14.7614006 6.16686556,15.2831549 C6.85162849,15.8120349 7.59566476,16.2530321 8.38493593,16.5982292 C9.14847,16.9101734 9.94632021,17.1286927 10.7605486,17.2482449 C11.5864756,17.3480037 12.4202018,17.3480037 13.244569,17.2474531 C14.0564577,17.1286927 14.8519681,16.9101734 15.6123825,16.599021 C16.4024336,16.2538239 17.1480297,15.8096597 17.8320127,15.2831549 C18.4801198,14.7590254 19.0673937,14.1596809 19.5836956,13.5017478 C19.8090902,13.200888 20.0188866,12.8889438 20.2138647,12.5667071 C20.0313652,12.2705976 19.8363872,11.9831973 19.6281506,11.7052978 C19.0954706,11.0259879 18.4879189,10.4076417 17.8187542,9.86688565 C17.1215127,9.32850485 16.3626581,8.87800679 15.5577887,8.52647579 C14.7981542,8.21611509 14.0065433,7.99838756 13.1969944,7.87804361 C12.3905651,7.78145176 11.5763368,7.78303523 10.7706874,7.88041882 Z M12.0153494,8.76185905 C14.0860163,8.76185905 15.7659473,10.4664677 15.7659473,12.5685281 C15.7659473,14.6705884 14.0860163,16.3759888 12.0153494,16.3759888 C9.9446824,16.3759888 8.26553137,14.6705884 8.26553137,12.5685281 C8.26553137,10.4664677 9.9446824,8.76185905 12.0153494,8.76185905 Z M12.0153494,10.4237139 C10.8486007,10.4237139 9.90256714,11.3840903 9.90256714,12.5685281 C9.90256714,13.7537576 10.8486007,14.7141339 12.0153494,14.7141339 C13.182878,14.7141339 14.1289115,13.7537576 14.1289115,12.5685281 C14.1289115,11.3840903 13.182878,10.4237139 12.0153494,10.4237139 Z" id="Combined-Shape" fill="#002453"></path>
    </g>
</svg>