<?xml version="1.0" encoding="UTF-8"?>
<svg width="17px" height="17px" viewBox="0 0 17 17" version="1.1" xmlns="http://www.w3.org/2000/svg" xmlns:xlink="http://www.w3.org/1999/xlink">
    <!-- Generator: Sketch 63.1 (92452) - https://sketch.com -->
    <title>ico_tools</title>
    <desc>Created with Sketch.</desc>
    <g id="Menú" stroke="none" stroke-width="1" fill="none" fill-rule="evenodd">
        <g id="CORREOS_1440_Menu_particulares" transform="translate(-64.000000, -511.000000)" fill="#002453">
            <g id="Group-4" transform="translate(64.000000, 488.000000)">
                <g id="Group-3">
                    <g id="atoms/ico/tools/3" transform="translate(0.000000, 16.000000)">
                        <path d="M14.4,19.2 C15.7254834,19.2 16.8,20.2745166 16.8,21.6 C16.8,22.9254834 15.7254834,24 14.4,24 C13.0745166,24 12,22.9254834 12,21.6 C12,20.2745166 13.0745166,19.2 14.4,19.2 Z M8.4,19.2 C9.7254834,19.2 10.8,20.2745166 10.8,21.6 C10.8,22.9254834 9.7254834,24 8.4,24 C7.0745166,24 6,22.9254834 6,21.6 C6,20.2745166 7.0745166,19.2 8.4,19.2 Z M2.4,19.2 C3.7254834,19.2 4.8,20.2745166 4.8,21.6 C4.8,22.9254834 3.7254834,24 2.4,24 C1.0745166,24 0,22.9254834 0,21.6 C0,20.2745166 1.0745166,19.2 2.4,19.2 Z M14.4,13.2 C15.7254834,13.2 16.8,14.2745166 16.8,15.6 C16.8,16.9254834 15.7254834,18 14.4,18 C13.0745166,18 12,16.9254834 12,15.6 C12,14.2745166 13.0745166,13.2 14.4,13.2 Z M8.4,13.2 C9.7254834,13.2 10.8,14.2745166 10.8,15.6 C10.8,16.9254834 9.7254834,18 8.4,18 C7.0745166,18 6,16.9254834 6,15.6 C6,14.2745166 7.0745166,13.2 8.4,13.2 Z M2.4,13.2 C3.7254834,13.2 4.8,14.2745166 4.8,15.6 C4.8,16.9254834 3.7254834,18 2.4,18 C1.0745166,18 0,16.9254834 0,15.6 C0,14.2745166 1.0745166,13.2 2.4,13.2 Z M14.4,7.2 C15.7254834,7.2 16.8,8.2745166 16.8,9.6 C16.8,10.9254834 15.7254834,12 14.4,12 C13.0745166,12 12,10.9254834 12,9.6 C12,8.2745166 13.0745166,7.2 14.4,7.2 Z M8.4,7.2 C9.7254834,7.2 10.8,8.2745166 10.8,9.6 C10.8,10.9254834 9.7254834,12 8.4,12 C7.0745166,12 6,10.9254834 6,9.6 C6,8.2745166 7.0745166,7.2 8.4,7.2 Z M2.4,7.2 C3.7254834,7.2 4.8,8.2745166 4.8,9.6 C4.8,10.9254834 3.7254834,12 2.4,12 C1.0745166,12 0,10.9254834 0,9.6 C0,8.2745166 1.0745166,7.2 2.4,7.2 Z" id="ico_tools"></path>
                    </g>
                </g>
            </g>
        </g>
    </g>
</svg>