<?xml version="1.0" encoding="UTF-8"?>
<svg width="24px" height="24px" viewBox="0 0 24 24" version="1.1" xmlns="http://www.w3.org/2000/svg" xmlns:xlink="http://www.w3.org/1999/xlink">
    <!-- Generator: Sketch 63.1 (92452) - https://sketch.com -->
    <title>atoms/ico/24px/ico_tosend_card</title>
    <desc>Created with Sketch.</desc>
    <g id="atoms/ico/24px/ico_tosend_card" stroke="none" stroke-width="1" fill="none" fill-rule="evenodd">
        <polyline id="Stroke-12" fill="#FFCD00" points="19.9133871 7 15 8.48083333 15 14.9111667 19.9133871 13.2168333 19.9133871 7"></polyline>
        <path d="M11.8335572,2.44518898 C11.974706,2.40264812 12.1252618,2.40264812 12.2664105,2.44518898 L12.2664105,2.44518898 L22.158346,5.42652232 C22.4745376,5.5218194 22.6501996,5.7737453 22.685332,6.0430744 L22.691871,6.14461667 L22.691871,17.64395 C22.691871,17.9060697 22.5553894,18.1461914 22.3369425,18.2814885 L22.2384631,18.3328136 L12.3465276,22.5918136 L12.3307808,22.598636 C12.3101267,22.6070363 12.2890739,22.6145343 12.2676835,22.6210899 L12.3465276,22.5918136 C12.3109794,22.607119 12.2751399,22.6194534 12.239234,22.6289649 C12.2229518,22.6335057 12.2059863,22.6373687 12.1888626,22.6406375 C12.171643,22.6437658 12.1549478,22.6463693 12.1382839,22.6483924 C12.1263099,22.6499444 12.1136645,22.6511462 12.1009615,22.6520213 C12.0833555,22.6531772 12.0666411,22.6537522 12.0499996,22.6537623 C12.0339517,22.6537751 12.0169016,22.6532005 11.9997999,22.6520221 C11.9862549,22.6511462 11.9736095,22.6499444 11.9610325,22.6484229 C11.9449716,22.6463693 11.9282764,22.6437658 11.9115725,22.6405668 C11.893933,22.6373687 11.8769675,22.6335057 11.8601886,22.6290674 C11.8560309,22.627732 11.8513775,22.6264515 11.8467258,22.6251234 L11.8322359,22.6210899 C11.8108455,22.6145343 11.7897927,22.6070363 11.7691385,22.598636 L11.7533917,22.5918136 L1.86145626,18.3328136 C1.62070332,18.2291568 1.45412762,18.0088429 1.41624546,17.7546987 L1.40804839,17.64395 L1.40804839,6.14461667 L1.41463571,6.0430744 C1.44976811,5.7737453 1.62543012,5.5218194 1.94162172,5.42652232 L1.94162172,5.42652232 Z M21.1900484,7.15428333 L20.2530484,7.43628333 L20.2534194,13.1131667 C20.2534194,13.39759 20.0930217,13.6541708 19.8449254,13.7809395 L19.7479204,13.8221936 L14.8345333,15.516527 C14.347499,15.684476 13.8400323,15.3226788 13.8400323,14.8075 L13.8400323,14.8075 L13.8390484,9.37028333 L12.7990484,9.68328333 L12.7990484,20.7632833 L21.191,17.15 L21.1900484,7.15428333 Z M2.908,7.154 L2.908,17.15 L11.299,20.763 L11.299,9.683 L2.908,7.154 Z M18.753,7.905 L15.34,8.934 L15.34,13.755 L18.753,12.578 L18.753,7.905 Z M16.8290484,5.38628333 L9.53704839,7.58428333 L12.05,8.342 L19.342,6.144 L16.8290484,5.38628333 Z M12.05,3.946 L4.757,6.144 L6.93704839,6.80028333 L14.2310484,4.60328333 L12.05,3.946 Z" id="Combined-Shape" fill="#002453" fill-rule="nonzero"></path>
    </g>
</svg>