<?xml version="1.0" encoding="UTF-8"?>
<svg width="24px" height="24px" viewBox="0 0 24 24" version="1.1" xmlns="http://www.w3.org/2000/svg" xmlns:xlink="http://www.w3.org/1999/xlink">
    <!-- Generator: Sketch 63.1 (92452) - https://sketch.com -->
    <title>atoms/ico/24px/ico_turn</title>
    <desc>Created with Sketch.</desc>
    <g id="atoms/ico/24px/ico_turn" stroke="none" stroke-width="1" fill="none" fill-rule="evenodd">
        <path d="M10.1849115,16.140175 C12.2979968,16.140175 14,17.9040116 14,20.0954769 L14,24 L0,24 L0,20.0954769 C0,17.9040116 1.70200318,16.140175 3.81508847,16.140175 L10.1849115,16.140175 Z M6.32082442,17.5510988 L3.81508847,17.5510988 C2.44927039,17.5510988 1.35835116,18.6816509 1.35835116,20.0954769 L1.35835116,22.5890762 L12.6416488,22.5890762 L12.6416488,20.0954769 C12.6416488,18.6816509 11.5507296,17.5510988 10.1849115,17.5510988 L7.67917558,17.5510988 L7.67917558,20.0954769 C7.67917558,21.0191665 6.32082442,21.0191665 6.32082442,20.0954769 L6.32082442,17.5510988 Z M13,0.27499175 C19.065345,0.27499175 24,5.20963575 24,11.274978 C24,16.3004772 20.6123059,20.5497643 16.0006702,21.8590555 L16.0005337,20.1353944 C19.6969771,18.8884972 22.35,15.3984816 22.35,11.274978 C22.35,6.10137825 18.17363,1.92499175 13,1.92499175 C10.2440312,1.92499175 7.7710493,3.1101014 6.06160838,4.99975699 L3.96961419,5.00030424 C5.95883955,2.14617149 9.26504522,0.27499175 13,0.27499175 Z M7,7 C9.26008121,7 11.1090803,8.91617287 11.1090803,11.2599744 C11.1090803,13.6462937 9.26798142,15.5707275 7,15.5707275 C4.73201858,15.5707275 2.8909197,13.6462937 2.8909197,11.2599744 C2.8909197,8.91617287 4.73991879,7 7,7 Z M7,8.41092383 C5.45557176,8.41092383 4.24927085,9.67558575 4.24927085,11.2599744 C4.24927085,12.8879665 5.44863016,14.1598037 7,14.1598037 C8.51984814,14.1598037 9.75072915,12.869543 9.75072915,11.2599744 C9.75072915,9.6938122 8.51281399,8.41092383 7,8.41092383 Z M13,3.29999175 C13.4205977,3.29999175 13.7676659,3.61472037 13.8185723,4.02149762 L13.825,4.12498075 L13.825,10.4499808 L19.6,10.4499808 C20.05562,10.4499808 20.425,10.819358 20.425,11.274978 C20.425,11.6955757 20.110262,12.0426439 19.7034833,12.0935503 L19.6,12.099978 L13,12.099978 C12.5794277,12.099978 12.232338,11.7852634 12.1814282,11.3784667 L12.175,11.274978 L12.175,4.12498075 C12.175,3.66936075 12.54438,3.29999175 13,3.29999175 Z" id="Combined-Shape" fill="#002453"></path>
    </g>
</svg>