<?xml version="1.0" encoding="UTF-8"?>
<svg width="24px" height="24px" viewBox="0 0 24 24" version="1.1" xmlns="http://www.w3.org/2000/svg" xmlns:xlink="http://www.w3.org/1999/xlink">
    <!-- Generator: Sketch 63.1 (92452) - https://sketch.com -->
    <title>atoms/ico/24px/ico_twitter</title>
    <desc>Created with Sketch.</desc>
    <defs>
        <path d="M20.9999722,6.63380556 C20.3742778,6.91105556 19.7029167,7.09908333 18.9975278,7.18302778 C19.7177778,6.75172222 20.2691111,6.06761111 20.5304167,5.25494444 C19.8548056,5.65436111 19.1090556,5.94438889 18.3144444,6.10161111 C17.6781389,5.42280556 16.7730556,5 15.7691667,5 C13.8432222,5 12.2816389,6.56158333 12.2816389,8.48647222 C12.2816389,8.75947222 12.3124444,9.02611111 12.3719444,9.28108333 C9.474,9.13552778 6.90430556,7.74711111 5.18444444,5.63736111 C4.88380556,6.15152778 4.71277778,6.75063889 4.71277778,7.39016667 C4.71277778,8.60013889 5.32891667,9.66775 6.26375,10.2923611 C5.69222222,10.27325 5.15469444,10.1160278 4.68411111,9.85469444 L4.68411111,9.89825 C4.68411111,11.5873056 5.88663889,12.9969722 7.48113889,13.3178056 C7.189,13.3964167 6.88094444,13.4399722 6.56225,13.4399722 C6.33705556,13.4399722 6.11927778,13.4176667 5.90575,13.3751667 C6.34977778,14.7614722 7.63730556,15.7695833 9.16277778,15.7972222 C7.96980556,16.7320556 6.46558333,17.2876389 4.83177778,17.2876389 C4.55027778,17.2876389 4.273,17.2706389 4,17.2398333 C5.54352778,18.2309722 7.376,18.8088611 9.3455,18.8088611 C15.7607222,18.8088611 19.2673889,13.4952222 19.2673889,8.88697222 L19.2556944,8.4355 C19.9408611,7.94680556 20.5336111,7.33280556 20.9999722,6.63380556 Z" id="path-1"></path>
    </defs>
    <g id="atoms/ico/24px/ico_twitter" stroke="none" stroke-width="1" fill="none" fill-rule="evenodd">
        <mask id="mask-2" fill="white">
            <use xlink:href="#path-1"></use>
        </mask>
        <use id="Shape" fill="#002453" xlink:href="#path-1"></use>
    </g>
</svg>