<?xml version="1.0" encoding="UTF-8"?>
<svg width="24px" height="24px" viewBox="0 0 24 24" version="1.1" xmlns="http://www.w3.org/2000/svg" xmlns:xlink="http://www.w3.org/1999/xlink">
    <!-- Generator: Sketch 63.1 (92452) - https://sketch.com -->
    <title>atoms/ico/24px/ico_up_full</title>
    <desc>Created with Sketch.</desc>
    <g id="atoms/ico/24px/ico_up_full" stroke="none" stroke-width="1" fill="none" fill-rule="evenodd">
        <path d="M12,21 C13.6442308,21 15.1658654,20.5889423 16.5649038,19.7668269 C17.9206731,18.9879808 18.9879808,17.9206731 19.7668269,16.5649038 C20.5889423,15.1658654 21,13.6442308 21,12 C21,10.3557692 20.5889423,8.83413462 19.7668269,7.43509615 C18.9879808,6.07932692 17.9206731,5.01201923 16.5649038,4.23317308 C15.1658654,3.41105769 13.6442308,3 12,3 C10.3701923,3 8.85576923,3.41105769 7.45673077,4.23317308 C6.10096154,5.02644231 5.02644231,6.10096154 4.23317308,7.45673077 C3.41105769,8.85576923 3,10.3701923 3,12 C3,13.6298077 3.41105769,15.1442308 4.23317308,16.5432692 C5.01201923,17.8990385 6.07932692,18.9735577 7.43509615,19.7668269 C8.83413462,20.5889423 10.3557692,21 12,21 Z M10.3925739,7.24084236 C10.3778331,7.2258876 10.3778331,7.2258876 10.3625531,7.21146047 C10.0465538,6.91841426 9.54765862,6.93156898 9.24823945,7.24084236 C8.91728684,7.58268697 8.91757265,8.1182432 9.24888994,8.45974926 L12.6753045,11.9915339 L9.24790446,15.5391324 C8.91711442,15.8815231 8.91739969,16.417237 9.24855419,16.7592901 C9.26328697,16.7742367 9.26328697,16.7742367 9.27855854,16.7886559 C9.59438396,17.0815409 10.0930047,17.0683934 10.3922592,16.7592901 L15,11.9999037 L10.3925739,7.24084236 Z" id="" fill="#002453" transform="translate(12.000000, 12.000000) rotate(-90.000000) translate(-12.000000, -12.000000) "></path>
    </g>
</svg>