<?xml version="1.0" encoding="UTF-8"?>
<svg width="24px" height="24px" viewBox="0 0 24 24" version="1.1" xmlns="http://www.w3.org/2000/svg" xmlns:xlink="http://www.w3.org/1999/xlink">
    <!-- Generator: Sketch 63.1 (92452) - https://sketch.com -->
    <title>atoms/ico/24px/ico_youtube</title>
    <desc>Created with Sketch.</desc>
    <g id="atoms/ico/24px/ico_youtube" stroke="none" stroke-width="1" fill="none" fill-rule="evenodd">
        <path d="M10.0054286,14.9990714 L10.0054286,9.00335714 L15.2097143,12.0005 L10.0054286,14.9990714 Z M21.5854286,7.1905 C21.354,6.33478571 20.6782857,5.65907143 19.8225714,5.42764286 C18.2582857,4.99907143 11.9982857,4.99907143 11.9982857,4.99907143 C11.9982857,4.99907143 5.73971429,4.99907143 4.174,5.41192857 C3.334,5.64192857 2.64257143,6.33478571 2.41257143,7.1905 C1.99971429,8.75478571 1.99971429,12.0005 1.99971429,12.0005 C1.99971429,12.0005 1.99971429,15.2619286 2.41257143,16.8105 C2.64257143,17.6662143 3.31685714,18.3419286 4.174,18.5733571 C5.75542857,19.0019286 11.9982857,19.0019286 11.9982857,19.0019286 C11.9982857,19.0019286 18.2582857,19.0019286 19.8225714,18.5890714 C20.6782857,18.3590714 21.354,17.6833571 21.5854286,16.8262143 C21.9969512,15.2619286 21.9969512,12.0176429 21.9969512,12.0176429 C21.9969512,12.0176429 22.014,8.75478571 21.5854286,7.1905 L21.5854286,7.1905 Z" id="Fill-1" fill="#002453"></path>
    </g>
</svg>